<svg width="51" height="48" viewBox="0 0 51 48" fill="none" xmlns="http://www.w3.org/2000/svg">
<g clip-path="url(#clip0_6_491)">
<path d="M49.9961 18.6027C50.0013 18.5652 50.0013 18.5272 49.9961 18.4897C50.001 18.4591 50.001 18.4279 49.9961 18.3973L49.6257 15.7579C49.5723 15.4421 49.4294 15.147 49.2131 14.9055L49.1495 14.8336L49.0332 14.7206L42.6208 9.35971L42.8007 9.53431C42.6535 9.36342 42.4688 9.22672 42.2601 9.1343C42.0513 9.04188 41.8238 8.99607 41.5944 9.00027H39.6474C39.3308 8.99418 39.0215 9.09188 38.7692 9.27756C38.5042 9.093 38.1853 8.9958 37.8592 9.00027H35.9122C35.6568 8.99625 35.4049 9.05776 35.1819 9.17859C34.959 9.29941 34.7728 9.47527 34.6424 9.68835C34.4413 9.99269 34.3658 10.3594 34.4308 10.7154L34.6742 12.3791C34.5129 12.2904 34.3304 12.2443 34.1451 12.2456H24.717C24.3788 12.2476 24.0483 12.3439 23.7647 12.5229C23.4904 12.6895 23.2703 12.928 23.1298 13.2109L22.3997 12.605C22.1123 12.347 21.733 12.2071 21.3415 12.2148H6.54867C6.2092 12.2208 5.87728 12.3128 5.58579 12.4818C5.18699 12.7083 4.89474 13.0767 4.77099 13.5088L0.0728333 28.7597C-0.0149502 29.011 -0.0235856 29.282 0.0480329 29.5381C0.119651 29.7941 0.268281 30.0238 0.474933 30.1975C0.52878 30.2418 0.585319 30.283 0.64424 30.3207C0.64424 30.3207 0.548992 30.2591 0.496084 30.2078L6.90847 35.5789C7.17972 35.8213 7.53438 35.9568 7.90306 35.9589H22.8124C23.1528 35.9503 23.485 35.8547 23.7753 35.6816C23.9394 35.5945 24.0863 35.4798 24.2091 35.3427L24.262 35.2708L24.3467 35.1681L24.4101 35.0551L25.1085 35.6406C25.3759 35.8733 25.7228 36.0013 26.082 36H41.023C41.3631 35.989 41.6947 35.8935 41.9859 35.7227C42.1464 35.6303 42.2924 35.5162 42.4198 35.3838L42.4726 35.3119L42.5573 35.2092C42.6023 35.1442 42.6413 35.0755 42.6737 35.0038C42.7083 34.9415 42.7366 34.8762 42.7583 34.8087L47.0438 20.8826V20.7594C47.0491 20.7116 47.0491 20.6634 47.0438 20.6156V20.5232C47.049 20.4925 47.049 20.4614 47.0438 20.4307C47.0486 20.3658 47.0486 20.3006 47.0438 20.2356H48.4194C48.5391 20.2462 48.6595 20.2462 48.7792 20.2356H48.8744C48.9519 20.2132 49.0265 20.1821 49.0967 20.1432H49.2025L49.3929 19.9994L49.4776 19.9378L49.6257 19.7529V19.6913L49.7315 19.5167C49.7256 19.4827 49.7256 19.448 49.7315 19.414C49.7259 19.3974 49.7259 19.3793 49.7315 19.3627C49.754 19.3025 49.7717 19.2406 49.7844 19.1778C49.7795 19.1575 49.7795 19.1364 49.7844 19.1162C49.7793 19.0856 49.7793 19.0543 49.7844 19.0237C49.7844 19.0237 49.9961 18.6232 49.9961 18.6027Z" fill="black"/>
<path d="M21.7754 13.3856C21.8316 13.4349 21.8708 13.4997 21.8878 13.5713C21.9049 13.6429 21.8988 13.7179 21.8706 13.7861L17.1831 29.0267C17.1241 29.1931 17.0033 29.3322 16.8445 29.417C16.7152 29.5009 16.5656 29.5504 16.4106 29.5608H1.51194C1.38471 29.5548 1.26417 29.5037 1.17333 29.417C1.1193 29.3685 1.08137 29.3054 1.06441 29.236C1.04744 29.1664 1.05222 29.0936 1.0781 29.0267L5.77626 13.7861C5.8304 13.6176 5.94736 13.4748 6.10428 13.3856C6.23565 13.3077 6.38452 13.2619 6.53813 13.252H21.4368C21.563 13.2532 21.6841 13.301 21.7754 13.3856ZM13.998 25.956L16.8021 16.8568H8.95072L6.15718 25.956H13.998ZM35.9968 13.5396C36.0477 13.5969 36.1112 13.6424 36.1827 13.6726C36.2541 13.7029 36.3316 13.7171 36.4095 13.7142H38.3459C38.4197 13.7149 38.4923 13.6973 38.5572 13.6632C38.622 13.6291 38.6767 13.5794 38.7163 13.5191C38.7506 13.4719 38.775 13.4185 38.7877 13.362C38.8004 13.3056 38.8013 13.2472 38.7903 13.1904L38.4094 10.4792C38.3731 10.3537 38.308 10.2378 38.219 10.1402C38.1681 10.0829 38.1046 10.0374 38.0331 10.0072C37.9617 9.97699 37.8841 9.96279 37.8063 9.96565H35.8699C35.7961 9.96496 35.7234 9.98251 35.6586 10.0167C35.5938 10.0508 35.5391 10.1004 35.4995 10.1608C35.4254 10.3046 35.3937 10.397 35.4254 10.4792L35.817 13.1904C35.837 13.3224 35.9001 13.4448 35.9968 13.5396ZM42.1447 10.4586C42.1084 10.3331 42.0432 10.2173 41.9542 10.1197C41.9055 10.0626 41.8438 10.0171 41.7741 9.98684C41.7044 9.95657 41.6284 9.94229 41.5521 9.94511H39.6051C39.5326 9.94311 39.4609 9.96019 39.3975 9.99454C39.3342 10.0289 39.2816 10.0792 39.2454 10.1402C39.175 10.2314 39.1445 10.3458 39.1607 10.4586L39.5522 13.1699C39.5768 13.3005 39.6391 13.4216 39.7321 13.5191C39.7838 13.5753 39.8475 13.62 39.9188 13.6501C39.99 13.6802 40.067 13.6951 40.1447 13.6936H42.0918C42.1641 13.6946 42.2354 13.677 42.2985 13.6428C42.3617 13.6085 42.4145 13.5588 42.4516 13.4985C42.4884 13.4526 42.5141 13.3992 42.5269 13.3423C42.5397 13.2855 42.5393 13.2266 42.5256 13.1699L42.1447 10.4586ZM34.2932 14.5666L34.1027 13.2315H24.717C24.5697 13.2394 24.4271 13.2855 24.3043 13.365C24.2264 13.4063 24.1586 13.4634 24.1056 13.5326C24.0527 13.6017 24.0158 13.6812 23.9975 13.7655L23.2145 16.3125C23.1832 16.3761 23.1725 16.4475 23.1838 16.5172C23.1952 16.5869 23.228 16.6515 23.2779 16.7028C23.3672 16.7842 23.4836 16.8316 23.606 16.8363H35.0128L32.2087 25.9355H20.8336C20.687 25.9387 20.5441 25.9814 20.421 26.0587C20.2713 26.1509 20.162 26.2936 20.1141 26.4592L19.3205 29.0062C19.2946 29.0715 19.2878 29.1425 19.3009 29.2114C19.314 29.2803 19.3463 29.3443 19.3945 29.3964C19.481 29.4833 19.5984 29.5347 19.7226 29.5402H34.6636C34.8181 29.5273 34.967 29.4779 35.0974 29.3964C35.2536 29.3112 35.3709 29.1718 35.4254 29.0062L39.7215 15.0801H34.8858C34.8091 15.0816 34.7329 15.0677 34.6619 15.0395C34.5909 15.0112 34.5267 14.9691 34.4731 14.9158C34.3856 14.8226 34.3238 14.7096 34.2932 14.5871V14.5666Z" fill="white"/>
</g>
<defs>
<clipPath id="clip0_6_491">
<rect width="50" height="27" fill="white" transform="translate(0 9)"/>
</clipPath>
</defs>
</svg>
