<svg width="191" height="31" viewBox="0 0 191 31" fill="none" xmlns="http://www.w3.org/2000/svg">
<path d="M23.226 16.6364L16.561 28.0513L9.89613 16.6364H23.226ZM25.0115 15.6162H8.10341L16.561 30.0703L25.0115 15.6162Z" fill="white"/>
<path d="M34.8137 2.43933L41.4786 13.8542H28.1487L34.8137 2.43933ZM34.8137 0.398926L26.356 14.853H43.2713L34.8137 0.398926Z" fill="white"/>
<path d="M0 0.398926L7.09143 13.1836L14.8406 0.719951L0 0.398926Z" fill="#4CAF4F"/>
<path d="M16.5612 1.51855L23.9996 14.2319H9.10834L16.5612 1.51855Z" fill="#4CAF4F"/>
<path d="M25.9152 17.0078L33.3608 30.0707H18.1153L25.6838 17.0078H25.9152Z" fill="#4CAF4F"/>
<path d="M27.5271 16.2158L34.8137 29.0789L42.2015 16.2158H27.5271Z" fill="#4CAF4F"/>
<path d="M74.2197 2.4624V27.6384H69.6222L58.6691 11.7928H58.4847V27.6384H53.1619V2.4624H57.8332L68.7002 18.2958H68.9215V2.4624H74.2197Z" fill="white"/>
<path d="M87.1243 28.0072C85.182 28.0072 83.5102 27.6138 82.1088 26.8271C80.7156 26.0321 79.642 24.9094 78.888 23.4588C78.134 22 77.757 20.2749 77.757 18.2835C77.757 16.3412 78.134 14.6366 78.888 13.1696C79.642 11.7026 80.7033 10.5594 82.0719 9.73985C83.4487 8.92032 85.0632 8.51055 86.9153 8.51055C88.161 8.51055 89.3206 8.71134 90.3942 9.11291C91.476 9.50628 92.4185 10.1004 93.2216 10.8954C94.033 11.6903 94.664 12.6902 95.1147 13.8949C95.5655 15.0914 95.7908 16.4928 95.7908 18.0991V19.5374H79.8469V16.292H90.8614C90.8614 15.538 90.6975 14.8701 90.3696 14.2882C90.0418 13.7064 89.587 13.2515 89.0051 12.9237C88.4315 12.5877 87.7635 12.4197 87.0014 12.4197C86.2064 12.4197 85.5016 12.6041 84.887 12.9729C84.2805 13.3335 83.8052 13.8211 83.461 14.4358C83.1168 15.0422 82.9406 15.7183 82.9324 16.4641V19.5496C82.9324 20.4839 83.1045 21.2912 83.4487 21.9714C83.8011 22.6516 84.2969 23.1761 84.9361 23.5449C85.5754 23.9137 86.3335 24.098 87.2103 24.098C87.7922 24.098 88.3249 24.0161 88.8084 23.8522C89.292 23.6883 89.7058 23.4424 90.05 23.1146C90.3942 22.7868 90.6565 22.3852 90.8368 21.9099L95.6802 22.2295C95.4344 23.3933 94.9303 24.4095 94.1682 25.2782C93.4142 26.1387 92.439 26.8107 91.2424 27.2942C90.0541 27.7696 88.6814 28.0072 87.1243 28.0072Z" fill="white"/>
<path d="M103.247 8.75641L106.713 15.3577L110.266 8.75641H115.638L110.167 18.1974L115.785 27.6384H110.438L106.713 21.1109L103.05 27.6384H97.6409L103.247 18.1974L97.8376 8.75641H103.247Z" fill="white"/>
<path d="M126.603 28.0072C124.669 28.0072 123.005 27.5975 121.612 26.7779C120.227 25.9502 119.162 24.8028 118.416 23.3359C117.679 21.8689 117.31 20.1807 117.31 18.2712C117.31 16.3371 117.683 14.6406 118.428 13.1819C119.182 11.7149 120.252 10.5717 121.637 9.75214C123.022 8.92441 124.669 8.51055 126.579 8.51055C128.226 8.51055 129.668 8.80968 130.906 9.40794C132.143 10.0062 133.123 10.8462 133.844 11.928C134.565 13.0098 134.962 14.2801 135.036 15.7388H130.094C129.955 14.7964 129.586 14.0383 128.988 13.4646C128.398 12.8828 127.624 12.5918 126.665 12.5918C125.853 12.5918 125.144 12.8131 124.538 13.2556C123.94 13.69 123.473 14.3251 123.137 15.1611C122.801 15.997 122.633 17.0091 122.633 18.1974C122.633 19.4021 122.796 20.4265 123.124 21.2707C123.46 22.1148 123.932 22.7581 124.538 23.2007C125.144 23.6432 125.853 23.8645 126.665 23.8645C127.263 23.8645 127.8 23.7416 128.275 23.4957C128.759 23.2498 129.156 22.8933 129.467 22.4262C129.787 21.9509 129.996 21.3813 130.094 20.7175H135.036C134.954 22.1599 134.561 23.4301 133.856 24.5283C133.159 25.6183 132.197 26.4706 130.967 27.0852C129.738 27.6999 128.283 28.0072 126.603 28.0072Z" fill="white"/>
<path d="M146.994 28.0072C145.052 28.0072 143.38 27.6138 141.979 26.8271C140.585 26.0321 139.512 24.9094 138.758 23.4588C138.004 22 137.627 20.2749 137.627 18.2835C137.627 16.3412 138.004 14.6366 138.758 13.1696C139.512 11.7026 140.573 10.5594 141.942 9.73985C143.319 8.92032 144.933 8.51055 146.785 8.51055C148.031 8.51055 149.191 8.71134 150.264 9.11291C151.346 9.50628 152.288 10.1004 153.092 10.8954C153.903 11.6903 154.534 12.6902 154.985 13.8949C155.435 15.0914 155.661 16.4928 155.661 18.0991V19.5374H139.717V16.292H150.731C150.731 15.538 150.567 14.8701 150.24 14.2882C149.912 13.7064 149.457 13.2515 148.875 12.9237C148.301 12.5877 147.633 12.4197 146.871 12.4197C146.076 12.4197 145.372 12.6041 144.757 12.9729C144.15 13.3335 143.675 13.8211 143.331 14.4358C142.987 15.0422 142.81 15.7183 142.802 16.4641V19.5496C142.802 20.4839 142.974 21.2912 143.319 21.9714C143.671 22.6516 144.167 23.1761 144.806 23.5449C145.445 23.9137 146.203 24.098 147.08 24.098C147.662 24.098 148.195 24.0161 148.678 23.8522C149.162 23.6883 149.576 23.4424 149.92 23.1146C150.264 22.7868 150.526 22.3852 150.707 21.9099L155.55 22.2295C155.304 23.3933 154.8 24.4095 154.038 25.2782C153.284 26.1387 152.309 26.8107 151.112 27.2942C149.924 27.7696 148.551 28.0072 146.994 28.0072Z" fill="white"/>
<path d="M164.315 16.7223V27.6384H159.078V8.75641H164.069V12.0878H164.29C164.708 10.9896 165.409 10.1209 166.393 9.48169C167.376 8.83426 168.568 8.51055 169.97 8.51055C171.281 8.51055 172.424 8.79739 173.4 9.37106C174.375 9.94473 175.133 10.7643 175.674 11.8297C176.215 12.8869 176.485 14.1489 176.485 15.6159V27.6384H171.248V16.5502C171.256 15.3946 170.961 14.4931 170.363 13.8457C169.765 13.1901 168.941 12.8623 167.892 12.8623C167.187 12.8623 166.565 13.0139 166.024 13.3171C165.491 13.6203 165.073 14.0629 164.77 14.6447C164.475 15.2184 164.323 15.9109 164.315 16.7223Z" fill="white"/>
<path d="M190.656 8.75641V12.6902H179.285V8.75641H190.656ZM181.866 4.23259H187.103V21.8361C187.103 22.3197 187.177 22.6966 187.324 22.9671C187.472 23.2293 187.677 23.4137 187.939 23.5203C188.209 23.6268 188.521 23.6801 188.873 23.6801C189.119 23.6801 189.365 23.6596 189.611 23.6186C189.857 23.5695 190.045 23.5326 190.176 23.508L191 27.4049C190.738 27.4868 190.369 27.5811 189.894 27.6876C189.418 27.8023 188.841 27.872 188.16 27.8966C186.898 27.9458 185.792 27.7777 184.841 27.3926C183.899 27.0074 183.165 26.4091 182.641 25.5978C182.116 24.7865 181.858 23.762 181.866 22.5245V4.23259Z" fill="white"/>
</svg>
