<svg width="32" height="33" viewBox="0 0 32 33" fill="none" xmlns="http://www.w3.org/2000/svg">
<path opacity="0.1" fill-rule="evenodd" clip-rule="evenodd" d="M0 16.3213C0 7.48473 7.16344 0.321289 16 0.321289C24.8366 0.321289 32 7.48473 32 16.3213C32 25.1578 24.8366 32.3213 16 32.3213C7.16344 32.3213 0 25.1578 0 16.3213Z" fill="white"/>
<path fill-rule="evenodd" clip-rule="evenodd" d="M16.0008 7.78809C13.6833 7.78809 13.3924 7.79822 12.4822 7.83964C11.5737 7.88124 10.9536 8.02507 10.4111 8.23609C9.8498 8.45405 9.37371 8.74561 8.89939 9.2201C8.42472 9.69442 8.13316 10.1705 7.91449 10.7316C7.70294 11.2743 7.55893 11.8946 7.51805 12.8027C7.47733 13.7129 7.46667 14.004 7.46667 16.3215C7.46667 18.639 7.47698 18.929 7.51822 19.8392C7.56 20.7477 7.70383 21.3678 7.91467 21.9104C8.13281 22.4716 8.42437 22.9477 8.89886 23.422C9.373 23.8967 9.84909 24.189 10.41 24.4069C10.9529 24.618 11.5732 24.7618 12.4815 24.8034C13.3917 24.8448 13.6824 24.8549 15.9997 24.8549C18.3174 24.8549 18.6074 24.8448 19.5176 24.8034C20.4261 24.7618 21.0469 24.618 21.5898 24.4069C22.1509 24.189 22.6263 23.8967 23.1004 23.422C23.5751 22.9477 23.8667 22.4716 24.0853 21.9105C24.2951 21.3678 24.4391 20.7475 24.4818 19.8394C24.5227 18.9292 24.5333 18.639 24.5333 16.3215C24.5333 14.004 24.5227 13.7131 24.4818 12.8029C24.4391 11.8944 24.2951 11.2743 24.0853 10.7318C23.8667 10.1705 23.5751 9.69442 23.1004 9.2201C22.6258 8.74543 22.1511 8.45387 21.5893 8.23609C21.0453 8.02507 20.4248 7.88124 19.5164 7.83964C18.6062 7.79822 18.3164 7.78809 15.9981 7.78809H16.0008ZM15.2352 9.32586C15.4624 9.3255 15.716 9.32586 16.0008 9.32586C18.2792 9.32586 18.5492 9.33403 19.449 9.37492C20.281 9.41297 20.7325 9.55199 21.0333 9.66879C21.4316 9.82346 21.7155 10.0084 22.014 10.307C22.3127 10.6057 22.4975 10.8901 22.6526 11.2884C22.7694 11.5888 22.9086 12.0404 22.9464 12.8724C22.9873 13.7719 22.9962 14.0422 22.9962 16.3195C22.9962 18.5969 22.9873 18.8671 22.9464 19.7667C22.9084 20.5987 22.7694 21.0502 22.6526 21.3507C22.4979 21.7489 22.3127 22.0325 22.014 22.331C21.7153 22.6296 21.4318 22.8145 21.0333 22.9692C20.7329 23.0865 20.281 23.2252 19.449 23.2632C18.5494 23.3041 18.2792 23.313 16.0008 23.313C13.7222 23.313 13.4521 23.3041 12.5526 23.2632C11.7205 23.2248 11.269 23.0858 10.968 22.969C10.5698 22.8144 10.2853 22.6295 9.98666 22.3308C9.68799 22.0321 9.5031 21.7484 9.34807 21.35C9.23127 21.0495 9.09207 20.598 9.0542 19.766C9.01331 18.8664 9.00514 18.5962 9.00514 16.3174C9.00514 14.0386 9.01331 13.7698 9.0542 12.8702C9.09225 12.0382 9.23127 11.5867 9.34807 11.2859C9.50274 10.8877 9.68799 10.6032 9.98666 10.3045C10.2853 10.0059 10.5698 9.82097 10.968 9.66595C11.2688 9.54861 11.7205 9.40995 12.5526 9.37172C13.3398 9.33617 13.6448 9.3255 15.2352 9.32372V9.32586ZM20.5558 10.7428C19.9905 10.7428 19.5318 11.2009 19.5318 11.7664C19.5318 12.3318 19.9905 12.7904 20.5558 12.7904C21.1212 12.7904 21.5798 12.3318 21.5798 11.7664C21.5798 11.2011 21.1212 10.7428 20.5558 10.7428ZM16.0008 11.9392C13.5807 11.9392 11.6185 13.9014 11.6185 16.3215C11.6185 18.7416 13.5807 20.7029 16.0008 20.7029C18.4209 20.7029 20.3824 18.7416 20.3824 16.3215C20.3824 13.9014 18.4209 11.9392 16.0008 11.9392ZM16.0008 13.477C17.5716 13.477 18.8453 14.7504 18.8453 16.3215C18.8453 17.8923 17.5716 19.166 16.0008 19.166C14.4297 19.166 13.1563 17.8923 13.1563 16.3215C13.1563 14.7504 14.4297 13.477 16.0008 13.477Z" fill="white"/>
</svg>
