<svg width="32" height="33" viewBox="0 0 32 33" fill="none" xmlns="http://www.w3.org/2000/svg">
<path opacity="0.1" fill-rule="evenodd" clip-rule="evenodd" d="M0 16.3213C0 7.48473 7.16344 0.321289 16 0.321289C24.8366 0.321289 32 7.48473 32 16.3213C32 25.1578 24.8366 32.3213 16 32.3213C7.16344 32.3213 0 25.1578 0 16.3213Z" fill="white"/>
<path fill-rule="evenodd" clip-rule="evenodd" d="M24.5333 16.3096C24.5333 16.8867 24.4746 17.463 24.3592 18.0247C24.2467 18.5731 24.08 19.1115 23.8617 19.6262C23.6483 20.1318 23.3837 20.619 23.0745 21.0734C22.77 21.5249 22.4191 21.9484 22.0337 22.3346C21.6474 22.719 21.2224 23.0689 20.7711 23.3748C20.3152 23.6818 19.8273 23.946 19.3214 24.1603C18.806 24.3775 18.2664 24.544 17.7184 24.6563C17.1559 24.772 16.5775 24.8311 15.9996 24.8311C15.4213 24.8311 14.8429 24.772 14.2812 24.6563C13.7324 24.544 13.1928 24.3775 12.6778 24.1603C12.1719 23.946 11.6836 23.6818 11.2277 23.3748C10.7764 23.0689 10.3514 22.719 9.96598 22.3346C9.58014 21.9484 9.22927 21.5249 8.92426 21.0734C8.61674 20.619 8.35171 20.1318 8.13755 19.6262C7.91917 19.1115 7.75211 18.5731 7.63918 18.0247C7.52502 17.463 7.46667 16.8867 7.46667 16.3096C7.46667 15.7321 7.52498 15.1545 7.63921 14.594C7.75214 14.0456 7.91921 13.5064 8.13758 12.9925C8.35174 12.4866 8.61677 11.9989 8.92429 11.5445C9.2293 11.0927 9.58017 10.6699 9.96601 10.2834C10.3515 9.89888 10.7765 9.54981 11.2277 9.24441C11.6836 8.93607 12.172 8.67188 12.6778 8.45716C13.1929 8.23951 13.7324 8.07268 14.2812 7.96118C14.8429 7.84635 15.4213 7.78809 15.9997 7.78809C16.5776 7.78809 17.1559 7.84635 17.7185 7.96118C18.2664 8.07271 18.806 8.23954 19.3215 8.45716C19.8273 8.67185 20.3153 8.93607 20.7711 9.24441C21.2224 9.54981 21.6474 9.89888 22.0337 10.2834C22.4191 10.6699 22.77 11.0927 23.0746 11.5445C23.3837 11.9989 23.6483 12.4866 23.8617 12.9925C24.08 13.5064 24.2467 14.0456 24.3592 14.594C24.4746 15.1545 24.5333 15.7321 24.5333 16.3096ZM12.8903 9.72747C10.858 10.6857 9.3413 12.5556 8.86835 14.8092C9.06047 14.8108 12.0973 14.8491 15.5962 13.9208C14.3349 11.6831 12.9873 9.85691 12.8903 9.72747ZM16.2 15.0414C12.4477 16.1631 8.84711 16.0824 8.71795 16.0774C8.71584 16.1556 8.7121 16.2313 8.7121 16.3096C8.7121 18.179 9.41839 19.8833 10.5793 21.172C10.5768 21.1682 12.5711 17.6352 16.5038 16.3653C16.5988 16.3337 16.6954 16.3054 16.7913 16.278C16.6084 15.8644 16.4087 15.45 16.2 15.0414ZM20.8123 10.848C19.5293 9.7183 17.8447 9.03305 15.9996 9.03305C15.4075 9.03305 14.8329 9.10462 14.2824 9.23693C14.3916 9.38341 15.7604 11.1967 17.0067 13.4818C19.7565 12.4524 20.7944 10.8746 20.8123 10.848ZM17.288 17.4838C17.2718 17.4892 17.2556 17.4938 17.2397 17.4996C12.94 18.9964 11.5358 22.0128 11.5206 22.0458C12.7578 23.0065 14.3096 23.5861 15.9996 23.5861C17.0088 23.5861 17.9701 23.3809 18.8447 23.0094C18.7368 22.3736 18.3135 20.1451 17.288 17.4838ZM20.0719 22.3445C21.7082 21.2419 22.8703 19.491 23.1945 17.4629C23.0445 17.4147 21.0057 16.7701 18.6534 17.1467C19.6093 19.7698 19.9977 21.906 20.0719 22.3445ZM17.5676 14.5662C17.7368 14.9132 17.9006 15.2664 18.0518 15.6214C18.1056 15.7487 18.1581 15.8735 18.2093 15.9983C20.7128 15.6838 23.1792 16.213 23.2846 16.2346C23.2679 14.5096 22.65 12.9263 21.6274 11.6868C21.6137 11.7064 20.4449 13.3928 17.5676 14.5662Z" fill="white"/>
</svg>
