<svg width="32" height="33" viewBox="0 0 32 33" fill="none" xmlns="http://www.w3.org/2000/svg">
<path opacity="0.1" fill-rule="evenodd" clip-rule="evenodd" d="M0 16.3213C0 7.48473 7.16344 0.321289 16 0.321289C24.8366 0.321289 32 7.48473 32 16.3213C32 25.1578 24.8366 32.3213 16 32.3213C7.16344 32.3213 0 25.1578 0 16.3213Z" fill="white"/>
<path fill-rule="evenodd" clip-rule="evenodd" d="M15.5208 13.3259L15.5544 13.8795L14.9948 13.8117C12.9579 13.5519 11.1784 12.6706 9.66756 11.1904L8.92891 10.456L8.73865 10.9984C8.33575 12.2073 8.59316 13.4841 9.43253 14.3428C9.8802 14.8173 9.77948 14.8851 9.00725 14.6027C8.73865 14.5123 8.50363 14.4445 8.48124 14.4784C8.4029 14.5575 8.6715 15.5856 8.88414 15.9924C9.17513 16.5573 9.76828 17.111 10.4174 17.4386L10.9658 17.6985L10.3167 17.7098C9.68994 17.7098 9.66756 17.7211 9.73471 17.9584C9.95854 18.6928 10.8427 19.4724 11.8276 19.8114L12.5214 20.0486L11.9171 20.4102C11.0218 20.9299 9.96973 21.2237 8.91772 21.2463C8.41409 21.2576 8 21.3028 8 21.3367C8 21.4497 9.36538 22.0824 10.16 22.331C12.5438 23.0654 15.3753 22.749 17.5017 21.4949C19.0126 20.6023 20.5235 18.8284 21.2286 17.111C21.6091 16.1958 21.9896 14.5236 21.9896 13.7214C21.9896 13.2016 22.0232 13.1338 22.6499 12.5124C23.0192 12.1508 23.3662 11.7554 23.4333 11.6424C23.5452 11.4277 23.534 11.4277 22.9633 11.6198C22.012 11.9588 21.8777 11.9136 22.3477 11.4051C22.6947 11.0436 23.1088 10.3882 23.1088 10.1962C23.1088 10.1623 22.9409 10.2188 22.7506 10.3204C22.5492 10.4334 22.1015 10.6029 21.7658 10.7046L21.1614 10.8967L20.613 10.5238C20.3108 10.3204 19.8856 10.0945 19.6617 10.0267C19.0909 9.8685 18.218 9.8911 17.7032 10.0719C16.3042 10.5803 15.4201 11.891 15.5208 13.3259Z" fill="white"/>
</svg>
