<svg width="32" height="33" viewBox="0 0 32 33" fill="none" xmlns="http://www.w3.org/2000/svg">
<path opacity="0.1" fill-rule="evenodd" clip-rule="evenodd" d="M0 16.3213C0 7.48473 7.16344 0.321289 16 0.321289C24.8366 0.321289 32 7.48473 32 16.3213C32 25.1578 24.8366 32.3213 16 32.3213C7.16344 32.3213 0 25.1578 0 16.3213Z" fill="white"/>
<path fill-rule="evenodd" clip-rule="evenodd" d="M22.6677 10.8213C23.4021 11.0228 23.9804 11.6166 24.1767 12.3706C24.5333 13.7371 24.5333 16.5884 24.5333 16.5884C24.5333 16.5884 24.5333 19.4396 24.1767 20.8063C23.9804 21.5603 23.4021 22.154 22.6677 22.3556C21.3369 22.7217 16 22.7217 16 22.7217C16 22.7217 10.6631 22.7217 9.33218 22.3556C8.59783 22.154 8.0195 21.5603 7.82323 20.8063C7.46667 19.4396 7.46667 16.5884 7.46667 16.5884C7.46667 16.5884 7.46667 13.7371 7.82323 12.3706C8.0195 11.6166 8.59783 11.0228 9.33218 10.8213C10.6631 10.4551 16 10.4551 16 10.4551C16 10.4551 21.3369 10.4551 22.6677 10.8213ZM14.4 14.1884V19.5217L18.6667 16.8551L14.4 14.1884Z" fill="white"/>
</svg>
