<svg width="370" height="364" viewBox="0 0 370 364" fill="none" xmlns="http://www.w3.org/2000/svg">
<path d="M315.393 363.424C315.393 363.546 255.252 363.65 181.09 363.65C106.927 363.65 46.7599 363.546 46.7599 363.424C46.7599 363.303 106.892 363.199 181.09 363.199C255.287 363.199 315.393 363.312 315.393 363.424Z" fill="#263238"/>
<path d="M256.794 257.398C243.413 248.053 240.382 230.706 240.91 215.107C240.997 212.509 240.711 209.755 241.949 207.477C243.188 205.199 246.081 203.632 248.41 204.723C250.342 205.632 251.182 207.884 252.264 209.746C253.709 212.226 255.826 214.247 258.37 215.575C260.024 216.441 262.077 216.961 263.714 216.06C265.966 214.822 266.226 211.73 266.208 209.131C266.208 204.299 266.179 199.472 266.122 194.65C265.966 192.062 266.229 189.465 266.901 186.96C267.707 184.5 269.499 182.222 271.95 181.529C274.401 180.836 277.459 182.265 278.013 184.794C278.108 185.866 278.134 186.942 278.091 188.016C278.16 189.099 278.663 190.285 279.676 190.615C280.689 190.944 281.746 190.19 282.525 189.428C285.193 186.83 287.012 183.443 288.701 180.1C290.389 176.757 292.044 173.319 294.469 170.469C296.894 167.62 300.245 165.359 303.996 165.143C307.746 164.926 311.652 167.23 312.587 170.868C313.523 174.505 311.401 178.221 309.123 181.174C305.686 185.558 301.634 189.423 297.093 192.65C296.206 193.134 295.499 193.89 295.075 194.806C294.512 196.539 296.149 198.271 297.855 198.816C299.786 199.457 301.882 199.258 303.918 199.501C305.953 199.743 308.118 200.626 308.889 202.532C309.946 205.182 307.728 207.954 305.555 209.772C301.189 213.41 296.233 216.272 290.9 218.234C288.995 218.927 286.994 219.542 285.453 220.875C283.911 222.209 282.993 224.539 283.92 226.366C284.846 228.194 287.228 228.774 289.229 228.402C291.23 228.029 293.005 226.955 294.91 226.237C298.47 224.894 303.06 225.137 305.303 228.211C305.998 229.27 306.438 230.476 306.588 231.734C306.739 232.992 306.595 234.267 306.169 235.46C305.303 237.835 303.969 240.011 302.246 241.861C296.574 248.638 289.203 253.788 280.888 256.783C272.635 259.641 264.987 260.421 256.785 257.416" fill="#4CAF4F"/>
<path d="M308.776 167.282C308.776 167.282 308.698 167.369 308.525 167.525L307.754 168.209C307.079 168.815 306.083 169.699 304.827 170.868C301.266 174.174 297.96 177.744 294.936 181.547C293.005 183.946 291.004 186.665 288.874 189.619C286.743 192.572 284.543 195.759 282.361 199.145C280.034 202.716 277.903 206.411 275.978 210.214C274.973 212.197 274.09 214.267 273.18 216.381L270.495 222.833C266.956 230.96 263.874 239.279 261.263 247.75C259.16 254.681 257.71 261.794 256.933 268.995C256.429 273.855 256.348 278.749 256.69 283.623C256.829 285.356 256.959 286.681 257.08 287.581C257.132 288.014 257.166 288.361 257.201 288.612V288.967C257.164 288.854 257.138 288.738 257.123 288.621C257.08 288.37 257.028 288.032 256.959 287.599C256.803 286.733 256.638 285.364 256.482 283.632C256.064 278.749 256.093 273.838 256.569 268.961C257.298 261.728 258.716 254.583 260.804 247.62C263.393 239.125 266.467 230.786 270.01 222.642L272.765 216.216C273.674 214.111 274.566 212.024 275.579 210.032C277.518 206.218 279.666 202.514 282.014 198.938C284.232 195.473 286.466 192.338 288.571 189.411C290.675 186.483 292.711 183.746 294.633 181.356C297.688 177.563 301.039 174.018 304.654 170.755C305.936 169.603 306.958 168.737 307.65 168.157L308.456 167.507C308.555 167.421 308.662 167.346 308.776 167.282Z" fill="#263238"/>
<path d="M275.692 210.015C275.57 209.658 275.485 209.289 275.441 208.915C275.302 208.196 275.146 207.183 274.964 205.866C274.592 203.268 274.211 199.708 273.804 195.768C273.397 191.827 272.938 188.259 272.557 185.687C272.357 184.405 272.184 183.374 272.063 182.655C271.968 182.287 271.919 181.909 271.916 181.529C272.065 181.876 272.172 182.24 272.236 182.612C272.427 183.322 272.643 184.344 272.886 185.635C273.379 188.233 273.864 191.766 274.271 195.716C274.679 199.665 275.025 203.129 275.293 205.823C275.423 207.035 275.536 208.066 275.623 208.889C275.69 209.26 275.713 209.638 275.692 210.015Z" fill="#263238"/>
<path d="M309.019 203.796C308.597 203.888 308.168 203.94 307.737 203.952C306.871 204.03 305.641 204.134 304.117 204.307C301.068 204.637 296.876 205.243 292.277 206.109C287.678 206.975 283.547 207.954 280.577 208.707C279.096 209.088 277.9 209.435 277.112 209.669C276.691 209.818 276.256 209.923 275.813 209.98C276.213 209.779 276.631 209.614 277.06 209.487C277.874 209.201 279.052 208.802 280.525 208.378C283.478 207.512 287.609 206.481 292.225 205.598C296.136 204.85 300.082 204.301 304.047 203.952C305.58 203.822 306.819 203.77 307.685 203.753C308.13 203.723 308.577 203.737 309.019 203.796Z" fill="#263238"/>
<path d="M261.228 247.014C261.136 246.889 261.06 246.752 261.003 246.607L260.431 245.403C259.938 244.355 259.271 242.805 258.474 240.908C256.863 237.097 254.811 231.762 252.628 225.838C250.445 219.914 248.436 214.579 246.912 210.725C246.167 208.854 245.552 207.321 245.093 206.178L244.608 204.94C244.541 204.797 244.494 204.645 244.47 204.489C244.562 204.615 244.638 204.751 244.695 204.896L245.266 206.1C245.751 207.148 246.427 208.698 247.224 210.595C248.835 214.406 250.887 219.741 253.07 225.665C255.252 231.589 257.262 236.924 258.786 240.778C259.531 242.649 260.146 244.182 260.596 245.325C260.795 245.819 260.96 246.191 261.09 246.564C261.157 246.706 261.204 246.858 261.228 247.014Z" fill="#263238"/>
<path d="M305.468 232.75C305.329 232.829 305.181 232.89 305.026 232.931L303.744 233.364L299.007 234.897C295.006 236.197 289.48 238.05 283.417 240.094C277.355 242.138 271.803 243.957 267.776 245.169C265.767 245.784 264.13 246.252 262.995 246.564L261.687 246.901C261.535 246.95 261.379 246.982 261.22 246.997C261.358 246.917 261.507 246.856 261.661 246.815L262.943 246.382L267.681 244.849C271.682 243.55 277.208 241.696 283.27 239.652C289.333 237.608 294.876 235.789 298.903 234.577C300.921 233.962 302.549 233.494 303.692 233.183L305 232.845C305.152 232.796 305.309 232.765 305.468 232.75Z" fill="#263238"/>
<path d="M287.419 22.6634L282.958 24.2569L281.044 18.4282C277.528 7.68009 266.321 1.97259 256.023 5.60149C245.725 9.23038 240.243 21.0178 243.759 31.7659L245.673 37.5947L241.196 39.1969C239.488 39.8592 238.102 41.1539 237.324 42.812C236.547 44.4702 236.438 46.3641 237.021 48.1003L249.432 86.0261C249.69 86.8855 250.118 87.6844 250.69 88.3753C251.263 89.0661 251.968 89.6349 252.765 90.0477C253.561 90.4606 254.433 90.7091 255.327 90.7785C256.222 90.8479 257.121 90.7368 257.972 90.4518L304.195 73.9182C305.925 73.2571 307.331 71.9509 308.118 70.2743C308.904 68.5976 309.01 66.6813 308.413 64.9283L295.993 27.0024C295.729 26.1454 295.294 25.3504 294.716 24.6649C294.138 23.9793 293.427 23.4173 292.627 23.0123C291.827 22.6074 290.953 22.3678 290.058 22.3078C289.164 22.2478 288.266 22.3688 287.419 22.6634ZM252.186 28.7259C251.238 25.9313 251.409 22.8781 252.661 20.2061C253.914 17.5342 256.152 15.4507 258.907 14.3922C260.268 13.9268 261.708 13.7402 263.142 13.8435C264.576 13.9468 265.974 14.3378 267.254 14.9934C268.533 15.6489 269.668 16.5555 270.589 17.659C271.511 18.7625 272.2 20.0403 272.617 21.4162L274.523 27.2449L254.092 34.5547L252.186 28.7259ZM278.169 62.382L281.339 72.0648C281.397 72.259 281.378 72.4681 281.286 72.6487C281.194 72.8294 281.036 72.9676 280.845 73.0348L276.402 74.6198C276.225 74.6688 276.036 74.6475 275.875 74.5603C275.714 74.4731 275.592 74.3268 275.536 74.1521L272.34 64.5126C270.578 64.4165 268.887 63.7845 267.494 62.701C266.101 61.6175 265.072 60.1343 264.545 58.45C263.792 56.2232 263.93 53.7914 264.929 51.6636C265.928 49.5359 267.712 47.8772 269.907 47.035C270.99 46.6647 272.137 46.5165 273.279 46.599C274.421 46.6814 275.535 46.993 276.554 47.5151C277.573 48.0372 278.477 48.7591 279.211 49.6379C279.945 50.5166 280.495 51.5342 280.828 52.6299C281.385 54.3409 281.431 56.1772 280.96 57.914C280.49 59.6508 279.523 61.2126 278.178 62.408L278.169 62.382Z" fill="#4CAF4F"/>
<path d="M282.759 24.153C282.759 24.2742 274.488 27.3835 264.199 31.0817C253.91 34.7798 245.518 37.7505 245.474 37.6639C245.431 37.5773 253.745 34.4421 264.043 30.7352C274.341 27.0284 282.716 24.0404 282.759 24.153Z" fill="#263238"/>
<path d="M292.581 25.7466C292.619 25.8217 292.651 25.9 292.676 25.9804C292.745 26.1536 292.823 26.3788 292.927 26.656C293.152 27.2882 293.464 28.163 293.854 29.2542L297.179 38.937C298.565 43.0423 300.219 47.9097 302.056 53.3141C302.922 56.0249 303.944 58.8483 304.896 61.819C305.406 63.3498 305.626 64.9623 305.546 66.5738C305.472 67.4119 305.234 68.2272 304.844 68.9729C304.428 69.716 303.872 70.3718 303.207 70.9042C301.869 71.881 300.384 72.6382 298.808 73.1474L294.347 74.7496L285.903 77.7723L271.604 82.8649L261.947 86.2599L259.349 87.126L258.656 87.3512C258.582 87.3841 258.503 87.4046 258.422 87.4118C258.422 87.4118 258.491 87.4118 258.639 87.3079L259.314 87.0394L261.912 86.0607L271.517 82.5271L285.79 77.3306L294.217 74.282L298.678 72.671C300.209 72.1825 301.652 71.4483 302.948 70.4972C303.566 70.0031 304.084 69.3944 304.472 68.7044C304.839 68.0148 305.06 67.2572 305.121 66.4785C305.201 64.9258 304.99 63.3719 304.498 61.8969C303.563 58.9523 302.575 56.1028 301.683 53.392C299.882 47.979 298.219 43.0943 296.902 38.989C295.586 34.8838 294.477 31.584 293.715 29.2629C293.351 28.1283 293.074 27.2449 292.849 26.604L292.641 25.9111C292.615 25.8587 292.595 25.8035 292.581 25.7466Z" fill="#263238"/>
<path d="M268.192 13.8032C268.192 13.8032 267.733 13.578 266.884 13.2316C265.674 12.7667 264.395 12.5091 263.099 12.4694C261.179 12.4036 259.268 12.7644 257.504 13.526C255.359 14.4744 253.525 16.0083 252.212 17.9517C250.891 19.8896 250.182 22.1797 250.177 24.5253C250.195 26.4478 250.487 28.3579 251.043 30.1982C251.494 31.7744 251.961 33.0303 252.273 33.905C252.457 34.3493 252.608 34.8067 252.723 35.2734C252.477 34.858 252.272 34.4201 252.109 33.9656C251.753 33.0996 251.242 31.8697 250.74 30.2848C250.124 28.4252 249.788 26.484 249.744 24.5253C249.721 22.0911 250.447 19.7086 251.823 17.7006C253.181 15.6861 255.09 14.1048 257.322 13.145C259.141 12.3792 261.112 12.0414 263.082 12.1576C264.405 12.2251 265.706 12.5332 266.919 13.067C267.243 13.2166 267.556 13.3903 267.854 13.5867C267.977 13.6408 268.091 13.7138 268.192 13.8032Z" fill="#263238"/>
<path d="M268.59 47.6933C268.728 47.6095 268.873 47.5371 269.023 47.4768C269.457 47.2812 269.906 47.1218 270.365 47.0004C271.095 46.785 271.848 46.6571 272.609 46.6194C273.643 46.5638 274.677 46.72 275.649 47.0784C277.866 47.8579 279.901 50.1183 280.906 53.141C281.388 54.7631 281.388 56.4902 280.906 58.1123C280.371 59.8728 279.414 61.4757 278.117 62.7805L278.169 62.5467C279.321 65.7079 280.577 69.1376 281.876 72.7145L281.954 72.931L281.737 73.009L279.754 73.6672L275.423 75.1135L275.207 75.1828L275.138 74.9663C273.951 71.3807 272.652 68.0376 271.673 64.7552L271.864 64.9024C270.171 64.7618 268.556 64.1263 267.222 63.075C266.014 62.1449 265.024 60.9627 264.32 59.6106C263.685 58.4116 263.369 57.0696 263.402 55.7132C263.442 54.327 263.788 52.9668 264.416 51.7301C265.043 50.4933 265.936 49.4106 267.031 48.5594C267.482 48.1935 267.987 47.9012 268.529 47.6933C268.04 47.9836 267.566 48.2987 267.109 48.6373C265.906 49.6549 264.985 50.964 264.433 52.4394C263.959 53.5521 263.737 54.7558 263.784 55.9642C263.83 57.1726 264.143 58.3558 264.701 59.4287C265.393 60.7294 266.36 61.8642 267.533 62.7545C268.807 63.7538 270.346 64.3562 271.959 64.4867H272.106L272.15 64.6166C273.102 67.8384 274.41 71.2075 275.614 74.8104L275.328 74.6718L279.659 73.2255L281.633 72.5586L281.495 72.8531C280.204 69.2761 278.957 65.8378 277.814 62.6766V62.5467L277.918 62.4427C279.177 61.192 280.116 59.656 280.655 57.9651C281.114 56.4134 281.114 54.7619 280.655 53.2103C279.711 50.3002 277.762 48.0917 275.649 47.3122C274.713 46.9515 273.715 46.7836 272.713 46.8186C271.964 46.8357 271.221 46.9374 270.495 47.1217C269.205 47.4421 268.599 47.7366 268.59 47.6933Z" fill="#263238"/>
<path d="M241.819 297.767L155.306 297.368C150.31 297.341 145.529 295.331 142.014 291.782C138.498 288.232 136.535 283.432 136.555 278.436L137.474 61.5594C137.484 59.0842 137.982 56.6353 138.939 54.3526C139.896 52.0699 141.294 49.9983 143.052 48.2561C144.81 46.5139 146.895 45.1353 149.186 44.1991C151.477 43.2629 153.931 42.7875 156.406 42.8L242.911 43.1984C247.907 43.2237 252.689 45.2308 256.206 48.779C259.723 52.3271 261.688 57.1263 261.67 62.1224L260.752 278.99C260.742 281.466 260.244 283.916 259.287 286.199C258.33 288.483 256.933 290.556 255.174 292.299C253.416 294.043 251.332 295.423 249.041 296.361C246.749 297.299 244.295 297.777 241.819 297.767Z" fill="#455A64"/>
<path d="M242.781 50.6555H226.013C225.466 50.6657 224.926 50.7835 224.425 51.0023C223.923 51.2211 223.47 51.5365 223.09 51.9306C222.711 52.3247 222.412 52.7897 222.212 53.2991C222.013 53.8085 221.915 54.3523 221.925 54.8994V57.9393C221.936 58.486 221.838 59.0293 221.638 59.5382C221.438 60.0471 221.14 60.5116 220.76 60.905C220.38 61.2984 219.927 61.613 219.425 61.8308C218.924 62.0487 218.384 62.1655 217.837 62.1745L185.151 62.0272C184.046 61.9977 182.997 61.5306 182.235 60.7284C181.474 59.9262 181.062 58.8546 181.089 57.7488V54.7088C181.117 53.6045 180.707 52.5341 179.947 51.7322C179.187 50.9302 178.14 50.4621 177.036 50.4304H171.138L156.458 50.3611C152.966 50.3403 149.609 51.7039 147.12 54.1534C144.632 56.6029 143.215 59.9387 143.181 63.4303L142.315 275.119C142.307 276.851 142.64 278.568 143.296 280.171C143.951 281.774 144.916 283.233 146.135 284.464C147.355 285.694 148.804 286.672 150.402 287.343C151.999 288.013 153.712 288.362 155.445 288.37L241.776 288.768C243.509 288.776 245.227 288.443 246.832 287.787C248.436 287.131 249.896 286.165 251.127 284.945C252.358 283.725 253.337 282.275 254.008 280.676C254.679 279.078 255.028 277.363 255.036 275.63L255.902 63.9413C255.923 60.4398 254.552 57.0734 252.092 54.5821C249.631 52.0908 246.282 50.6784 242.781 50.6555Z" fill="white"/>
<path d="M231.166 260.525L166.972 260.248C166.305 260.248 165.768 259.52 165.777 258.637L165.846 241.843C165.846 240.977 166.392 240.232 167.059 240.232L231.253 240.527C231.623 240.591 231.953 240.795 232.176 241.097C232.399 241.398 232.496 241.775 232.448 242.146L232.388 258.923C232.388 259.815 231.833 260.533 231.166 260.525Z" fill="#4CAF4F"/>
<path d="M186.894 253.271C186.471 253.271 186.065 253.203 185.675 253.068C185.29 252.927 184.992 252.748 184.78 252.531L185.016 252.068C185.216 252.263 185.485 252.428 185.821 252.564C186.162 252.694 186.52 252.759 186.894 252.759C187.252 252.759 187.542 252.715 187.764 252.629C187.992 252.536 188.157 252.414 188.26 252.263C188.369 252.111 188.423 251.943 188.423 251.759C188.423 251.536 188.358 251.357 188.228 251.222C188.103 251.086 187.938 250.981 187.732 250.905C187.526 250.823 187.298 250.753 187.049 250.693C186.799 250.634 186.55 250.571 186.301 250.506C186.051 250.436 185.821 250.344 185.609 250.23C185.403 250.116 185.235 249.967 185.105 249.783C184.981 249.593 184.918 249.346 184.918 249.043C184.918 248.761 184.992 248.503 185.138 248.27C185.29 248.032 185.52 247.842 185.829 247.701C186.138 247.555 186.534 247.481 187.016 247.481C187.336 247.481 187.653 247.528 187.968 247.62C188.282 247.706 188.553 247.828 188.781 247.986L188.577 248.465C188.333 248.303 188.073 248.183 187.797 248.108C187.526 248.032 187.263 247.994 187.008 247.994C186.667 247.994 186.385 248.04 186.162 248.132C185.94 248.224 185.775 248.349 185.666 248.506C185.563 248.658 185.512 248.831 185.512 249.026C185.512 249.249 185.574 249.428 185.699 249.563C185.829 249.699 185.997 249.804 186.203 249.88C186.414 249.956 186.645 250.024 186.894 250.083C187.144 250.143 187.39 250.208 187.634 250.279C187.884 250.349 188.111 250.441 188.317 250.555C188.529 250.664 188.697 250.81 188.821 250.994C188.951 251.179 189.016 251.42 189.016 251.718C189.016 251.994 188.941 252.252 188.789 252.49C188.637 252.723 188.404 252.913 188.09 253.06C187.781 253.2 187.382 253.271 186.894 253.271ZM190.328 253.222V247.53H190.929V253.222H190.328ZM192.781 253.222V247.53H193.277L197.205 252.474H196.944V247.53H197.538V253.222H197.042L193.123 248.278H193.383V253.222H192.781ZM201.892 253.271C201.458 253.271 201.057 253.2 200.689 253.06C200.325 252.913 200.008 252.71 199.737 252.45C199.472 252.189 199.263 251.883 199.111 251.531C198.965 251.179 198.892 250.794 198.892 250.376C198.892 249.959 198.965 249.574 199.111 249.222C199.263 248.869 199.474 248.563 199.745 248.303C200.017 248.043 200.334 247.842 200.697 247.701C201.065 247.555 201.467 247.481 201.9 247.481C202.334 247.481 202.73 247.549 203.087 247.685C203.451 247.82 203.76 248.026 204.014 248.303L203.64 248.685C203.402 248.446 203.139 248.276 202.852 248.173C202.564 248.07 202.255 248.018 201.925 248.018C201.572 248.018 201.247 248.078 200.949 248.197C200.656 248.311 200.399 248.476 200.176 248.693C199.96 248.904 199.789 249.154 199.664 249.441C199.545 249.723 199.485 250.035 199.485 250.376C199.485 250.712 199.545 251.024 199.664 251.311C199.789 251.599 199.96 251.851 200.176 252.068C200.399 252.279 200.656 252.444 200.949 252.564C201.247 252.677 201.57 252.734 201.917 252.734C202.242 252.734 202.548 252.686 202.835 252.588C203.128 252.49 203.396 252.325 203.64 252.092L203.982 252.547C203.711 252.786 203.394 252.967 203.031 253.092C202.667 253.211 202.288 253.271 201.892 253.271ZM203.405 252.474V250.376H203.982V252.547L203.405 252.474ZM210.106 253.271C209.38 253.271 208.808 253.062 208.39 252.645C207.973 252.227 207.764 251.609 207.764 250.791V247.53H208.366V250.767C208.366 251.439 208.518 251.935 208.821 252.255C209.125 252.574 209.553 252.734 210.106 252.734C210.664 252.734 211.095 252.574 211.399 252.255C211.702 251.935 211.854 251.439 211.854 250.767V247.53H212.44V250.791C212.44 251.609 212.231 252.227 211.814 252.645C211.402 253.062 210.832 253.271 210.106 253.271ZM214.253 253.222V247.53H216.383C216.866 247.53 217.28 247.609 217.627 247.766C217.974 247.918 218.24 248.14 218.424 248.433C218.614 248.72 218.709 249.07 218.709 249.482C218.709 249.883 218.614 250.23 218.424 250.523C218.24 250.81 217.974 251.032 217.627 251.189C217.28 251.347 216.866 251.425 216.383 251.425H214.586L214.855 251.141V253.222H214.253ZM214.855 251.189L214.586 250.897H216.367C216.936 250.897 217.367 250.775 217.66 250.531C217.958 250.281 218.107 249.932 218.107 249.482C218.107 249.026 217.958 248.674 217.66 248.425C217.367 248.175 216.936 248.051 216.367 248.051H214.586L214.855 247.766V251.189Z" fill="#E8E8E3"/>
<path d="M179.776 112.884L157.501 112.783L157.482 116.871L179.758 116.972L179.776 112.884Z" fill="#4CAF4F"/>
<path opacity="0.1" d="M179.776 112.884L157.501 112.783L157.482 116.871L179.758 116.972L179.776 112.884Z" fill="black"/>
<path d="M245.076 137.983C245.251 137.965 245.422 137.924 245.587 137.861C245.826 137.768 246.035 137.608 246.188 137.401C246.341 137.195 246.433 136.949 246.453 136.692C246.453 135.315 246.453 133.306 246.453 130.725C246.453 129.434 246.453 127.988 246.453 126.394C246.453 126.005 246.453 125.598 246.453 125.191C246.509 124.796 246.423 124.393 246.21 124.056C246.091 123.894 245.936 123.762 245.757 123.671C245.578 123.579 245.381 123.53 245.18 123.528H243.829H231.314L158.874 123.259C158.689 123.256 158.505 123.298 158.34 123.381C158.174 123.464 158.03 123.585 157.922 123.736C157.712 124.074 157.633 124.477 157.696 124.87C157.696 125.736 157.696 126.602 157.696 127.468C157.696 129.201 157.696 130.933 157.696 132.665C157.696 133.531 157.696 134.397 157.696 135.263C157.661 135.667 157.661 136.072 157.696 136.476C157.742 136.649 157.827 136.809 157.944 136.944C158.061 137.079 158.207 137.186 158.372 137.255C158.543 137.323 158.725 137.356 158.909 137.35H163.317L182.553 137.454L215.118 137.654L237.073 137.827L243.04 137.896H244.591C244.946 137.896 245.119 137.896 245.119 137.896H244.591H243.04H237.073H215.118L182.553 137.792L163.317 137.714H158.909C158.666 137.724 158.424 137.683 158.199 137.593C157.971 137.496 157.768 137.348 157.606 137.16C157.444 136.972 157.327 136.75 157.263 136.51C157.213 136.283 157.196 136.05 157.211 135.817V135.177C157.211 134.31 157.211 133.444 157.211 132.578C157.211 130.846 157.211 129.114 157.211 127.382C157.211 126.516 157.211 125.65 157.211 124.784C157.195 124.553 157.195 124.321 157.211 124.091C157.244 123.836 157.342 123.594 157.497 123.389C157.647 123.18 157.844 123.01 158.074 122.894C158.303 122.778 158.557 122.719 158.814 122.722L231.253 123.121L243.768 123.207H245.119C245.357 123.207 245.592 123.265 245.803 123.375C246.014 123.485 246.195 123.644 246.332 123.84C246.576 124.216 246.674 124.669 246.609 125.113C246.609 125.52 246.609 125.927 246.609 126.317C246.609 127.893 246.609 129.339 246.609 130.647C246.609 133.245 246.548 135.237 246.531 136.623C246.51 136.889 246.413 137.144 246.252 137.358C246.091 137.571 245.872 137.734 245.621 137.827C245.457 137.928 245.269 137.982 245.076 137.983Z" fill="#E0E0E0"/>
<path d="M204.933 127.607H164.192V131.426H204.933V127.607Z" fill="#4CAF4F"/>
<path opacity="0.2" d="M204.933 127.607H164.192V131.426H204.933V127.607Z" fill="white"/>
<path d="M179.625 150.176L157.349 150.075L157.331 154.163L179.606 154.264L179.625 150.176Z" fill="#4CAF4F"/>
<path opacity="0.1" d="M179.625 150.176L157.349 150.075L157.331 154.163L179.606 154.264L179.625 150.176Z" fill="black"/>
<path d="M244.513 175.276C244.688 175.255 244.861 175.223 245.032 175.181C245.274 175.104 245.497 174.976 245.685 174.806C245.873 174.636 246.023 174.427 246.124 174.194C246.26 173.844 246.313 173.468 246.28 173.094C246.28 172.678 246.28 172.228 246.28 171.726C246.28 170.721 246.28 169.578 246.28 168.261V162.762C246.321 162.363 246.233 161.962 246.028 161.618C245.815 161.265 245.479 161.003 245.084 160.882C244.653 160.805 244.214 160.782 243.777 160.813H231.314L159.125 160.544C158.737 160.545 158.362 160.687 158.071 160.944C157.779 161.2 157.591 161.554 157.541 161.939C157.541 162.762 157.541 163.671 157.541 164.537C157.541 166.269 157.541 168.001 157.541 169.734C157.541 170.6 157.541 171.466 157.541 172.332C157.508 172.737 157.526 173.144 157.593 173.544C157.701 173.895 157.923 174.2 158.225 174.41C158.545 174.613 158.92 174.71 159.299 174.688H160.503H163.006L182.172 174.783L214.624 174.982L236.501 175.155L242.451 175.225H236.501H214.624L182.155 175.19L162.988 175.121H159.221C158.752 175.148 158.287 175.024 157.896 174.765C157.502 174.492 157.214 174.092 157.082 173.631C157.004 173.191 156.981 172.743 157.012 172.297C157.012 171.431 157.012 170.565 157.012 169.699C157.012 167.967 157.012 166.235 157.012 164.502C157.012 163.636 157.012 162.77 157.012 161.904C157.075 161.409 157.317 160.954 157.692 160.624C158.066 160.294 158.548 160.112 159.048 160.111L231.236 160.51L243.699 160.605C244.163 160.577 244.629 160.609 245.084 160.7C245.534 160.847 245.914 161.156 246.15 161.566C246.374 161.948 246.471 162.391 246.427 162.831C246.427 163.238 246.427 163.636 246.427 164.035C246.427 165.602 246.427 167.04 246.427 168.365C246.427 169.69 246.427 170.807 246.427 171.829C246.427 172.323 246.427 172.782 246.427 173.207C246.458 173.594 246.396 173.983 246.245 174.341C246.133 174.58 245.97 174.792 245.768 174.962C245.566 175.133 245.33 175.258 245.076 175.328C244.886 175.344 244.696 175.326 244.513 175.276Z" fill="#E0E0E0"/>
<path d="M179.457 189.088L157.181 188.987L157.163 193.075L179.438 193.176L179.457 189.088Z" fill="#4CAF4F"/>
<path opacity="0.1" d="M179.457 189.088L157.181 188.987L157.163 193.075L179.438 193.176L179.457 189.088Z" fill="black"/>
<path d="M244.339 214.172C244.515 214.152 244.688 214.12 244.859 214.077C245.1 214 245.322 213.874 245.51 213.705C245.698 213.536 245.848 213.329 245.95 213.098C246.086 212.749 246.139 212.372 246.106 211.998C246.106 211.574 246.106 211.132 246.106 210.621C246.106 209.625 246.106 208.473 246.106 207.157V201.657C246.148 201.259 246.06 200.858 245.855 200.514C245.636 200.168 245.302 199.91 244.911 199.787C244.48 199.707 244.041 199.68 243.603 199.709H231.14L158.952 199.44C158.564 199.441 158.189 199.583 157.898 199.839C157.606 200.096 157.418 200.45 157.367 200.835C157.367 201.701 157.367 202.567 157.367 203.433C157.367 205.165 157.367 206.897 157.367 208.629C157.367 209.495 157.367 210.361 157.367 211.228C157.335 211.629 157.352 212.034 157.419 212.431C157.523 212.785 157.746 213.091 158.051 213.298C158.369 213.505 158.747 213.602 159.125 213.575H162.893L182.059 213.679L214.512 213.878L236.389 214.051L242.339 214.12H236.389H214.512L182.059 214.025L162.893 213.947H159.125C158.657 213.979 158.191 213.854 157.8 213.592C157.406 213.319 157.119 212.918 156.986 212.457C156.909 212.017 156.885 211.569 156.917 211.124C156.917 210.258 156.917 209.391 156.917 208.525C156.917 206.793 156.917 205.061 156.917 203.329C156.917 202.463 156.917 201.597 156.917 200.687C156.978 200.193 157.218 199.738 157.591 199.408C157.964 199.077 158.445 198.895 158.944 198.895L231.132 199.293L243.595 199.388C244.059 199.36 244.525 199.392 244.98 199.483C245.43 199.63 245.81 199.939 246.046 200.35C246.27 200.731 246.367 201.174 246.323 201.614C246.323 202.021 246.323 202.428 246.323 202.818C246.323 204.386 246.323 205.823 246.323 207.148C246.323 208.473 246.323 209.591 246.323 210.613C246.323 211.106 246.323 211.565 246.323 211.99C246.356 212.377 246.294 212.767 246.141 213.124C246.029 213.363 245.866 213.575 245.664 213.746C245.462 213.916 245.226 214.041 244.972 214.112C244.769 214.181 244.552 214.202 244.339 214.172Z" fill="#E0E0E0"/>
<path d="M204.063 165.98L163.323 165.795L163.305 169.615L204.046 169.8L204.063 165.98Z" fill="#4CAF4F"/>
<path opacity="0.2" d="M204.063 165.98L163.323 165.795L163.305 169.615L204.046 169.8L204.063 165.98Z" fill="white"/>
<path d="M167.007 207.105C166.981 207.453 166.854 207.787 166.641 208.063C166.428 208.34 166.138 208.548 165.808 208.662C165.477 208.775 165.121 208.789 164.783 208.702C164.444 208.615 164.139 208.431 163.905 208.172C163.67 207.913 163.517 207.591 163.464 207.245C163.411 206.9 163.461 206.547 163.607 206.229C163.752 205.912 163.988 205.644 164.285 205.46C164.581 205.275 164.926 205.182 165.275 205.191C165.757 205.218 166.21 205.434 166.534 205.792C166.858 206.151 167.028 206.622 167.007 207.105Z" fill="#4CAF4F"/>
<path d="M172.524 207.131C172.541 207.375 172.508 207.62 172.426 207.851C172.344 208.082 172.216 208.293 172.049 208.472C171.882 208.651 171.68 208.794 171.455 208.891C171.231 208.989 170.989 209.039 170.744 209.039C170.499 209.039 170.257 208.989 170.033 208.891C169.808 208.794 169.606 208.651 169.439 208.472C169.272 208.293 169.144 208.082 169.062 207.851C168.981 207.62 168.947 207.375 168.964 207.131C168.947 206.887 168.981 206.642 169.062 206.411C169.144 206.18 169.272 205.969 169.439 205.79C169.606 205.611 169.808 205.468 170.033 205.371C170.257 205.273 170.499 205.223 170.744 205.223C170.989 205.223 171.231 205.273 171.455 205.371C171.68 205.468 171.882 205.611 172.049 205.79C172.216 205.969 172.344 206.18 172.426 206.411C172.508 206.642 172.541 206.887 172.524 207.131Z" fill="#4CAF4F"/>
<path d="M178.049 207.157C178.024 207.505 177.897 207.838 177.683 208.115C177.47 208.392 177.18 208.6 176.85 208.714C176.52 208.827 176.163 208.841 175.825 208.754C175.487 208.667 175.182 208.482 174.947 208.223C174.713 207.964 174.56 207.642 174.507 207.297C174.454 206.952 174.503 206.599 174.649 206.281C174.795 205.964 175.031 205.696 175.327 205.512C175.624 205.327 175.968 205.234 176.317 205.243C176.799 205.272 177.25 205.489 177.574 205.846C177.898 206.204 178.068 206.675 178.049 207.157Z" fill="#4CAF4F"/>
<path d="M183.566 207.183C183.541 207.531 183.414 207.864 183.2 208.141C182.987 208.418 182.698 208.626 182.367 208.739C182.037 208.853 181.68 208.867 181.342 208.78C181.004 208.693 180.699 208.508 180.464 208.249C180.23 207.99 180.077 207.668 180.024 207.323C179.971 206.978 180.02 206.624 180.166 206.307C180.312 205.99 180.548 205.722 180.844 205.538C181.141 205.353 181.485 205.259 181.834 205.269C182.316 205.298 182.767 205.514 183.091 205.872C183.415 206.23 183.585 206.701 183.566 207.183Z" fill="#4CAF4F"/>
<path d="M189.083 207.2C189.059 207.549 188.934 207.883 188.721 208.161C188.509 208.439 188.22 208.648 187.889 208.763C187.559 208.878 187.202 208.893 186.864 208.807C186.525 208.721 186.218 208.537 185.983 208.278C185.748 208.019 185.594 207.697 185.54 207.352C185.487 207.006 185.536 206.652 185.682 206.335C185.827 206.017 186.063 205.749 186.36 205.564C186.657 205.379 187.002 205.285 187.351 205.295C187.831 205.324 188.281 205.539 188.605 205.895C188.928 206.251 189.1 206.719 189.083 207.2Z" fill="#4CAF4F"/>
<path d="M194.609 207.226C194.585 207.573 194.461 207.906 194.25 208.183C194.04 208.46 193.754 208.67 193.426 208.786C193.098 208.903 192.743 208.921 192.405 208.838C192.067 208.755 191.761 208.576 191.524 208.321C191.286 208.067 191.129 207.748 191.07 207.405C191.012 207.063 191.055 206.71 191.194 206.391C191.333 206.072 191.562 205.801 191.854 205.611C192.145 205.421 192.486 205.32 192.833 205.321C193.321 205.339 193.782 205.55 194.115 205.907C194.448 206.264 194.625 206.738 194.609 207.226Z" fill="#4CAF4F"/>
<path d="M200.126 207.252C200.143 207.496 200.11 207.741 200.028 207.972C199.946 208.203 199.818 208.414 199.651 208.593C199.484 208.772 199.282 208.915 199.058 209.013C198.833 209.11 198.591 209.16 198.346 209.16C198.101 209.16 197.859 209.11 197.635 209.013C197.41 208.915 197.208 208.772 197.041 208.593C196.875 208.414 196.746 208.203 196.664 207.972C196.583 207.741 196.549 207.496 196.566 207.252C196.549 207.008 196.583 206.763 196.664 206.532C196.746 206.301 196.875 206.09 197.041 205.911C197.208 205.732 197.41 205.589 197.635 205.492C197.859 205.394 198.101 205.344 198.346 205.344C198.591 205.344 198.833 205.394 199.058 205.492C199.282 205.589 199.484 205.732 199.651 205.911C199.818 206.09 199.946 206.301 200.028 206.532C200.11 206.763 200.143 207.008 200.126 207.252Z" fill="#4CAF4F"/>
<path d="M205.643 207.278C205.619 207.625 205.495 207.958 205.284 208.235C205.074 208.512 204.788 208.722 204.46 208.838C204.132 208.954 203.777 208.972 203.439 208.89C203.101 208.807 202.795 208.627 202.558 208.373C202.32 208.118 202.163 207.8 202.104 207.457C202.046 207.114 202.089 206.762 202.228 206.443C202.367 206.124 202.596 205.853 202.888 205.663C203.179 205.473 203.52 205.372 203.867 205.373C204.355 205.391 204.816 205.601 205.149 205.958C205.482 206.316 205.659 206.79 205.643 207.278Z" fill="#4CAF4F"/>
<path d="M211.16 207.304C211.136 207.653 211.01 207.987 210.798 208.265C210.585 208.543 210.296 208.752 209.966 208.867C209.636 208.982 209.279 208.997 208.94 208.911C208.601 208.825 208.295 208.641 208.06 208.382C207.824 208.123 207.67 207.801 207.617 207.456C207.563 207.11 207.612 206.756 207.758 206.439C207.904 206.121 208.14 205.853 208.437 205.668C208.733 205.483 209.078 205.389 209.428 205.399C209.908 205.428 210.358 205.643 210.681 205.999C211.005 206.355 211.176 206.823 211.16 207.304Z" fill="#4CAF4F"/>
<g opacity="0.2">
<path d="M167.007 207.105C166.981 207.453 166.854 207.787 166.641 208.063C166.428 208.34 166.138 208.548 165.808 208.662C165.477 208.775 165.121 208.789 164.783 208.702C164.444 208.615 164.139 208.431 163.905 208.172C163.67 207.913 163.517 207.591 163.464 207.245C163.411 206.9 163.461 206.547 163.607 206.229C163.752 205.912 163.988 205.644 164.285 205.46C164.581 205.275 164.926 205.182 165.275 205.191C165.757 205.218 166.21 205.434 166.534 205.792C166.858 206.151 167.028 206.622 167.007 207.105Z" fill="white"/>
<path d="M172.524 207.131C172.541 207.375 172.508 207.62 172.426 207.851C172.344 208.082 172.216 208.293 172.049 208.472C171.882 208.651 171.68 208.794 171.455 208.891C171.231 208.989 170.989 209.039 170.744 209.039C170.499 209.039 170.257 208.989 170.033 208.891C169.808 208.794 169.606 208.651 169.439 208.472C169.272 208.293 169.144 208.082 169.062 207.851C168.981 207.62 168.947 207.375 168.964 207.131C168.947 206.887 168.981 206.642 169.062 206.411C169.144 206.18 169.272 205.969 169.439 205.79C169.606 205.611 169.808 205.468 170.033 205.371C170.257 205.273 170.499 205.223 170.744 205.223C170.989 205.223 171.231 205.273 171.455 205.371C171.68 205.468 171.882 205.611 172.049 205.79C172.216 205.969 172.344 206.18 172.426 206.411C172.508 206.642 172.541 206.887 172.524 207.131Z" fill="white"/>
<path d="M178.05 207.157C178.024 207.505 177.897 207.838 177.684 208.115C177.47 208.392 177.181 208.6 176.85 208.714C176.52 208.827 176.164 208.841 175.825 208.754C175.487 208.667 175.182 208.482 174.947 208.223C174.713 207.964 174.56 207.642 174.507 207.297C174.454 206.952 174.503 206.599 174.649 206.281C174.795 205.964 175.031 205.696 175.327 205.512C175.624 205.327 175.968 205.234 176.317 205.243C176.799 205.272 177.25 205.489 177.574 205.846C177.898 206.204 178.069 206.675 178.05 207.157Z" fill="white"/>
<path d="M183.566 207.183C183.541 207.532 183.414 207.865 183.2 208.142C182.987 208.418 182.698 208.626 182.367 208.74C182.037 208.853 181.68 208.868 181.342 208.78C181.004 208.693 180.699 208.509 180.464 208.25C180.23 207.991 180.077 207.669 180.024 207.323C179.971 206.978 180.02 206.625 180.166 206.308C180.312 205.99 180.548 205.723 180.844 205.538C181.141 205.353 181.485 205.26 181.834 205.269C182.316 205.298 182.767 205.515 183.091 205.873C183.415 206.231 183.585 206.701 183.566 207.183Z" fill="white"/>
<path d="M189.083 207.2C189.059 207.549 188.934 207.884 188.721 208.161C188.509 208.439 188.22 208.649 187.889 208.764C187.559 208.879 187.202 208.894 186.863 208.808C186.525 208.721 186.218 208.537 185.983 208.279C185.748 208.02 185.594 207.698 185.54 207.352C185.487 207.007 185.536 206.653 185.682 206.335C185.827 206.017 186.063 205.749 186.36 205.564C186.657 205.379 187.002 205.286 187.351 205.295C187.831 205.324 188.281 205.54 188.605 205.896C188.928 206.251 189.1 206.72 189.083 207.2Z" fill="white"/>
<path d="M194.609 207.226C194.585 207.573 194.461 207.906 194.251 208.183C194.04 208.46 193.754 208.67 193.426 208.786C193.098 208.903 192.743 208.921 192.405 208.838C192.067 208.755 191.761 208.576 191.524 208.321C191.287 208.067 191.129 207.748 191.07 207.405C191.012 207.063 191.055 206.71 191.194 206.391C191.333 206.072 191.563 205.801 191.854 205.611C192.145 205.421 192.486 205.32 192.834 205.321C193.321 205.339 193.782 205.55 194.115 205.907C194.448 206.264 194.625 206.738 194.609 207.226Z" fill="white"/>
<path d="M200.126 207.253C200.143 207.497 200.11 207.742 200.028 207.973C199.946 208.203 199.818 208.415 199.651 208.594C199.484 208.773 199.282 208.915 199.058 209.013C198.833 209.111 198.591 209.161 198.346 209.161C198.101 209.161 197.859 209.111 197.635 209.013C197.41 208.915 197.208 208.773 197.041 208.594C196.874 208.415 196.746 208.203 196.664 207.973C196.583 207.742 196.549 207.497 196.566 207.253C196.549 207.008 196.583 206.763 196.664 206.533C196.746 206.302 196.874 206.09 197.041 205.911C197.208 205.732 197.41 205.59 197.635 205.492C197.859 205.395 198.101 205.344 198.346 205.344C198.591 205.344 198.833 205.395 199.058 205.492C199.282 205.59 199.484 205.732 199.651 205.911C199.818 206.09 199.946 206.302 200.028 206.533C200.11 206.763 200.143 207.008 200.126 207.253Z" fill="white"/>
<path d="M205.643 207.278C205.619 207.626 205.495 207.958 205.284 208.235C205.074 208.513 204.787 208.722 204.46 208.839C204.132 208.955 203.777 208.973 203.439 208.89C203.101 208.808 202.795 208.628 202.558 208.373C202.32 208.119 202.163 207.801 202.104 207.458C202.046 207.115 202.089 206.762 202.228 206.443C202.367 206.125 202.596 205.853 202.888 205.663C203.179 205.473 203.52 205.372 203.867 205.373C204.355 205.391 204.816 205.602 205.149 205.959C205.482 206.316 205.659 206.791 205.643 207.278Z" fill="white"/>
<path d="M211.16 207.304C211.136 207.653 211.01 207.988 210.798 208.265C210.586 208.543 210.296 208.753 209.966 208.868C209.636 208.983 209.279 208.998 208.94 208.912C208.601 208.825 208.295 208.641 208.06 208.383C207.825 208.124 207.671 207.802 207.617 207.456C207.563 207.111 207.612 206.757 207.758 206.439C207.904 206.121 208.14 205.853 208.437 205.668C208.734 205.483 209.078 205.39 209.428 205.399C209.908 205.428 210.358 205.644 210.681 206C211.005 206.355 211.177 206.824 211.16 207.304Z" fill="white"/>
</g>
<path d="M203.322 82.2761C203.923 82.0111 204.434 81.5751 204.79 81.0223C205.145 80.4694 205.331 79.8242 205.322 79.1668C205.345 78.7395 205.28 78.3121 205.132 77.9107C204.984 77.5092 204.756 77.1421 204.461 76.8317C204.166 76.5213 203.812 76.2741 203.419 76.1052C203.025 75.9362 202.602 75.8491 202.174 75.8491C201.746 75.8491 201.323 75.9362 200.93 76.1052C200.536 76.2741 200.182 76.5213 199.887 76.8317C199.593 77.1421 199.364 77.5092 199.216 77.9107C199.068 78.3121 199.004 78.7395 199.026 79.1668C199.013 79.8308 199.197 80.4837 199.554 81.0433C199.912 81.6028 200.427 82.0439 201.035 82.3107C196.185 83.0382 196.402 88.304 196.402 88.304L207.869 88.356C207.869 88.356 208.137 82.9949 203.322 82.2761Z" fill="#4CAF4F"/>
<path opacity="0.1" d="M203.322 82.2761C203.923 82.0111 204.434 81.5751 204.79 81.0223C205.145 80.4694 205.331 79.8242 205.322 79.1668C205.345 78.7395 205.28 78.3121 205.132 77.9107C204.984 77.5092 204.756 77.1421 204.461 76.8317C204.166 76.5213 203.812 76.2741 203.419 76.1052C203.025 75.9362 202.602 75.8491 202.174 75.8491C201.746 75.8491 201.323 75.9362 200.93 76.1052C200.536 76.2741 200.182 76.5213 199.887 76.8317C199.593 77.1421 199.364 77.5092 199.216 77.9107C199.068 78.3121 199.004 78.7395 199.026 79.1668C199.013 79.8308 199.197 80.4837 199.554 81.0433C199.912 81.6028 200.427 82.0439 201.035 82.3107C196.185 83.0382 196.402 88.304 196.402 88.304L207.869 88.356C207.869 88.356 208.137 82.9949 203.322 82.2761Z" fill="black"/>
<path d="M221.955 91.7524L181.085 91.5669L181.063 96.4516L221.933 96.637L221.955 91.7524Z" fill="#4CAF4F"/>
<path opacity="0.2" d="M221.955 91.7524L181.085 91.5669L181.063 96.4516L221.933 96.637L221.955 91.7524Z" fill="white"/>
<path d="M71.7031 117.067H71.296L70.1182 117.154C69.4807 117.192 68.8469 117.276 68.2214 117.405C67.8163 117.462 67.4145 117.54 67.0176 117.639L65.6752 118.011C63.3903 118.712 61.2345 119.78 59.2921 121.172C56.7258 123.035 54.5829 125.42 53.0043 128.17C52.0765 129.756 51.3382 131.444 50.8045 133.202C50.2437 135.112 49.9208 137.085 49.8431 139.074C49.7915 140.119 49.8089 141.167 49.8951 142.209C49.8951 142.738 50.0423 143.266 50.1116 143.803C50.1699 144.344 50.2713 144.88 50.4147 145.405C51.1935 148.881 52.7738 152.126 55.0293 154.882C57.2849 157.639 60.1534 159.83 63.406 161.281C65.7601 162.296 68.2833 162.863 70.8457 162.952C73.4922 163.098 76.1414 162.718 78.6404 161.835L79.4026 161.549H79.5065L79.5931 161.601L90.5145 167.144L90.194 167.421C89.0248 163.801 87.8989 160.293 86.8076 156.924V156.794L86.9029 156.699C89.5522 154.031 91.519 150.763 92.6364 147.172C93.6484 143.89 93.9438 140.428 93.5024 137.022C93.1099 133.994 92.1365 131.071 90.6357 128.413C89.342 126.129 87.6732 124.08 85.699 122.35C84.0703 120.981 82.2677 119.834 80.338 118.938C78.8779 118.308 77.3572 117.829 75.7997 117.509L74.0675 117.223L72.8117 117.128L72.0495 117.076H71.7897C71.8761 117.066 71.9632 117.066 72.0495 117.076H72.8204L74.0762 117.128L75.8083 117.379C77.3852 117.676 78.9266 118.137 80.4073 118.756C82.3701 119.641 84.2053 120.786 85.8636 122.16C87.874 123.881 89.5783 125.931 90.9042 128.222C92.4476 130.909 93.4509 133.872 93.8575 136.944C94.3355 140.403 94.0607 143.924 93.0521 147.267C91.9274 150.932 89.9303 154.27 87.232 156.993L87.284 156.768C88.3752 160.137 89.5098 163.645 90.6877 167.257L90.8522 167.785L90.3586 167.534L79.4372 161.999H79.6278L78.8483 162.285C76.3011 163.182 73.6029 163.57 70.9063 163.428C68.2887 163.329 65.7127 162.741 63.3107 161.696C58.7289 159.734 54.9168 156.324 52.4587 151.987C51.3275 149.985 50.5014 147.825 50.0077 145.578C49.8725 145.04 49.7712 144.493 49.7046 143.942C49.6353 143.396 49.5227 142.859 49.4967 142.322C49.2623 139.24 49.588 136.142 50.4581 133.176C51.005 131.394 51.764 129.685 52.7185 128.084C54.3347 125.308 56.5223 122.908 59.1362 121.042C61.1106 119.646 63.3026 118.587 65.6232 117.907L66.9829 117.561C67.3831 117.468 67.7879 117.396 68.1955 117.344C68.8274 117.227 69.4672 117.158 70.1095 117.136L71.296 117.093C71.431 117.075 71.567 117.066 71.7031 117.067Z" fill="#4CAF4F"/>
<path d="M76.6396 137.264H75.0374L71.5731 132.397V129.201C71.5731 129.201 69.0961 129.045 69.3905 133.228C69.685 137.411 69.3905 136.346 69.3905 136.346C69.3905 136.346 64.1334 136.346 63.7003 136.822C63.2673 137.299 63.2413 142.374 63.1807 145.206C63.1475 145.889 63.3434 146.563 63.7373 147.122C64.1311 147.68 64.7004 148.091 65.3546 148.289C65.5379 148.34 65.7272 148.366 65.9175 148.367C67.234 148.367 73.9288 147.302 73.9288 147.302H76.6916L76.6396 137.264Z" fill="#4CAF4F"/>
<path d="M81.2213 136.407L80.234 147.354H77.4972V136.632L81.2213 136.407Z" fill="#4CAF4F"/>
<path d="M113.864 359.276V351.871L100.587 351.776L100.474 362.974L101.297 363.035C104.961 363.269 119.935 363.615 122.395 362.853C125.132 362.004 113.864 359.276 113.864 359.276Z" fill="#4CAF4F"/>
<path d="M122.707 362.16C122.707 362.281 117.736 362.385 111.612 362.385C105.489 362.385 100.518 362.281 100.518 362.16C100.518 362.039 105.489 361.935 111.612 361.935C117.736 361.935 122.707 362.039 122.707 362.16Z" fill="#263238"/>
<path d="M114.098 360.792C113.986 360.731 114.098 360.341 114.367 359.925C114.635 359.51 114.999 359.336 115.085 359.423C115.172 359.51 114.99 359.839 114.73 360.194C114.471 360.549 114.211 360.852 114.098 360.792Z" fill="#263238"/>
<path d="M114.947 361.276C114.826 361.276 114.886 360.791 115.146 360.332C115.406 359.873 115.752 359.596 115.848 359.665C115.943 359.735 115.787 360.124 115.544 360.531C115.302 360.938 115.059 361.32 114.947 361.276Z" fill="#263238"/>
<path d="M104.519 362.125C104.467 362.125 104.268 361.969 103.982 361.64C103.633 361.217 103.245 360.829 102.822 360.48C102.406 360.147 101.91 359.929 101.384 359.847C100.977 359.795 100.717 359.847 100.691 359.795C100.665 359.743 100.916 359.562 101.393 359.527C102.021 359.514 102.635 359.722 103.125 360.116C103.584 360.49 103.972 360.945 104.268 361.458C104.467 361.839 104.571 362.091 104.519 362.125Z" fill="#263238"/>
<path d="M114.141 359.397C114.202 359.501 113.977 359.761 113.596 359.899C113.215 360.038 112.877 359.986 112.86 359.899C112.842 359.813 113.111 359.631 113.44 359.51C113.769 359.388 114.072 359.293 114.141 359.397Z" fill="#263238"/>
<path d="M113.933 358.678C113.933 358.808 113.587 358.912 113.137 358.921C112.686 358.93 112.331 358.826 112.34 358.704C112.349 358.583 112.704 358.471 113.137 358.462C113.57 358.453 113.916 358.557 113.933 358.678Z" fill="#263238"/>
<path d="M146.559 359.276V351.871L133.282 351.776L133.169 362.862L133.992 362.922C137.655 363.156 152.639 363.615 155.09 362.853C157.827 362.004 146.559 359.276 146.559 359.276Z" fill="#4CAF4F"/>
<path d="M155.402 362.177C155.402 362.299 150.439 362.403 144.307 362.403C138.175 362.403 133.221 362.299 133.221 362.177C133.221 362.056 138.184 361.952 144.307 361.952C150.43 361.952 155.402 362.056 155.402 362.177Z" fill="#263238"/>
<path d="M146.793 360.792C146.689 360.731 146.793 360.341 147.061 359.925C147.33 359.51 147.694 359.336 147.78 359.423C147.867 359.51 147.685 359.839 147.425 360.194C147.165 360.549 146.905 360.852 146.793 360.792Z" fill="#263238"/>
<path d="M147.641 361.276C147.529 361.276 147.581 360.791 147.849 360.332C148.118 359.873 148.456 359.596 148.551 359.665C148.646 359.735 148.482 360.124 148.239 360.531C147.997 360.938 147.763 361.32 147.641 361.276Z" fill="#263238"/>
<path d="M137.214 362.125C137.162 362.125 136.971 361.969 136.677 361.64C136.328 361.217 135.939 360.829 135.516 360.48C135.1 360.147 134.605 359.929 134.079 359.847C133.68 359.795 133.412 359.847 133.386 359.795C133.36 359.743 133.611 359.562 134.087 359.527C134.716 359.514 135.329 359.722 135.82 360.116C136.281 360.488 136.669 360.943 136.963 361.458C137.162 361.839 137.266 362.091 137.214 362.125Z" fill="#263238"/>
<path d="M146.836 359.397C146.897 359.501 146.671 359.761 146.29 359.899C145.909 360.038 145.572 359.986 145.554 359.899C145.537 359.813 145.805 359.631 146.135 359.51C146.464 359.388 146.767 359.293 146.836 359.397Z" fill="#263238"/>
<path d="M146.645 358.678C146.645 358.808 146.299 358.912 145.849 358.921C145.398 358.93 145.052 358.826 145.061 358.704C145.069 358.583 145.416 358.471 145.849 358.462C146.282 358.453 146.645 358.557 146.645 358.678Z" fill="#263238"/>
<path d="M195.475 139.377C195.129 139.022 194.271 139.195 194.271 139.195C194.357 138.696 194.357 138.187 194.271 137.688C194.116 137.203 193.024 137.298 193.024 137.298C192.974 136.89 192.974 136.477 193.024 136.069C193.033 135.978 193.014 135.887 192.969 135.808C192.924 135.729 192.855 135.666 192.773 135.627C192.257 135.416 191.702 135.316 191.145 135.332C190.478 134.856 193.18 131.071 194.185 129.859C195.19 128.646 195.008 127.702 194.116 127.702C193.501 127.702 190.348 131.34 189.378 132.561C188.408 133.782 185.836 137.177 185.749 134.466C185.663 131.755 184.571 129.711 183.887 129.365C183.203 129.019 182.475 129.833 182.848 130.586C183.175 131.442 183.379 132.34 183.454 133.254C183.548 133.981 183.516 134.72 183.359 135.436C183.072 136.77 182.681 138.079 182.19 139.351H182.12C182.12 139.351 163.222 157.478 161.854 158.769C160.633 159.929 136.071 157.392 131.143 156.872C129.468 156.627 127.777 156.511 126.085 156.525C123.945 156.621 123.564 156.924 121.434 156.95C116.053 157.01 110.685 157.482 105.377 158.362C102.973 158.77 100.728 159.831 98.8857 161.429C97.0438 163.026 95.676 165.099 94.9316 167.421C89.9689 182.924 78.7271 219.62 76.7438 240.233C75.2451 242.95 73.8921 245.746 72.6905 248.608C71.2961 252.401 71.6339 252.531 72.1016 252.618C73.3661 252.851 74.8038 246.044 75.3408 247.689C75.8777 249.335 72.6126 255.805 73.9377 255.995C75.6699 256.238 77.0469 249.067 77.2115 248.495C77.3761 247.923 78.2335 248.105 78.0776 248.642C77.8264 249.404 75.3927 257.485 77.0903 257.745C78.0256 257.883 78.1295 256.177 78.1295 256.177C78.1295 256.177 79.8617 248.443 80.6499 248.599C81.438 248.755 80.5979 253.319 80.1995 254.843C79.8011 256.368 80.3554 257.138 81.1695 256.766C81.7238 256.506 83.0489 251.873 83.4127 250.366C83.7764 248.859 84.6858 244.684 85.907 247.101C87.1282 249.517 88.9816 250.92 89.7437 250.955C89.9155 250.935 90.0774 250.864 90.2086 250.752C90.3398 250.639 90.4343 250.49 90.4799 250.323C90.5255 250.156 90.5202 249.98 90.4647 249.816C90.4091 249.652 90.3058 249.509 90.1681 249.404C89.5126 248.764 88.9499 248.035 88.4966 247.239C88.0926 246.619 87.7995 245.933 87.6305 245.213C87.2815 243.776 87.0784 242.308 87.0242 240.83L86.8857 239.964C88.8257 230.359 94.4119 202.168 102.475 184.162L105.784 190.97L107.221 196.01L98.4046 217.775L136.01 217.281L130.398 195.681L137.214 173.163C144.584 173.327 163.508 173.605 166.661 172.176C170.627 170.443 191.145 144.53 191.145 144.53C192.482 143.491 193.763 142.381 194.982 141.204C194.982 141.204 196.229 140.156 195.475 139.377Z" fill="#FFBE9D"/>
<path d="M96.7503 201.692C97.8415 197.968 103.445 179.555 103.445 179.555C103.445 179.555 106.199 194.564 105.472 196.374C104.803 197.924 104.012 199.418 103.107 200.843C96.7503 210.517 97.5817 215.358 97.5817 215.358L135.993 214.189C136.079 208.82 132.901 196.331 132.242 194.339C131.584 192.347 133.775 185.825 133.775 185.825C133.775 185.825 138.106 181.417 137.95 179.147C137.868 177.109 137.616 175.081 137.196 173.085L160.581 173.951L159.845 158.102L126.258 154.741C125.089 158.041 114.514 156.421 114.514 156.421C103.099 156.802 102.388 158.898 97.6423 162.588C92.8962 166.277 85.0408 197.942 85.0408 197.942L96.7503 201.692Z" fill="#4CAF4F"/>
<path d="M119.459 197.942C118.793 198.06 118.115 198.095 117.441 198.045C116.185 198.045 114.462 197.959 112.565 197.768C110.668 197.578 108.954 197.309 107.732 197.067C107.059 196.98 106.399 196.811 105.766 196.564C106.443 196.565 107.119 196.629 107.784 196.755C109.014 196.911 110.72 197.127 112.608 197.318C114.496 197.508 116.211 197.638 117.45 197.725C118.125 197.734 118.798 197.806 119.459 197.942Z" fill="#263238"/>
<path d="M122.092 194.677C121.426 195.003 120.722 195.244 119.996 195.396C116.541 196.304 112.976 196.726 109.404 196.651C108.665 196.676 107.925 196.606 107.204 196.444C107.933 196.351 108.669 196.314 109.404 196.331C110.764 196.288 112.634 196.192 114.696 195.95C116.757 195.707 118.593 195.361 119.892 195.084C120.614 194.891 121.349 194.755 122.092 194.677Z" fill="#263238"/>
<path d="M135.014 180.109C134.996 180.769 134.906 181.426 134.745 182.066C134.52 183.27 134.174 184.916 133.732 186.717C133.29 188.519 132.866 190.181 132.485 191.307C132.332 191.952 132.105 192.577 131.809 193.169C131.858 192.511 131.98 191.86 132.173 191.229C132.502 189.878 132.875 188.319 133.29 186.613C133.706 184.907 134.105 183.348 134.434 181.997C134.551 181.347 134.746 180.713 135.014 180.109Z" fill="#263238"/>
<path d="M97.1575 199.483C95.1538 199.174 93.1764 198.714 91.2421 198.106C89.2656 197.644 87.326 197.036 85.4393 196.288C87.442 196.602 89.4191 197.062 91.3547 197.665C93.3317 198.125 95.2713 198.733 97.1575 199.483Z" fill="#263238"/>
<path d="M137.612 172.894C137.286 172.951 136.952 172.951 136.625 172.894C135.72 172.802 134.832 172.589 133.983 172.262C132.567 171.73 131.277 170.907 130.197 169.846C129.117 168.786 128.271 167.511 127.713 166.104C127.096 164.557 126.833 162.891 126.942 161.228C126.981 159.857 127.391 158.522 128.129 157.365C128.648 156.586 129.423 156.013 130.32 155.746C130.56 155.68 130.807 155.648 131.056 155.651C131.229 155.651 131.316 155.651 131.316 155.651C131.316 155.651 130.952 155.651 130.372 155.884C129.549 156.188 128.851 156.758 128.388 157.504C127.211 159.357 126.881 162.744 128.137 165.905C128.722 167.396 129.637 168.734 130.813 169.82C131.778 170.708 132.888 171.423 134.096 171.933C135.229 172.381 136.409 172.703 137.612 172.894Z" fill="#263238"/>
<path d="M157.801 173.639C157.584 170.983 157.515 168.317 157.593 165.654C157.525 162.993 157.606 160.33 157.835 157.677C158.052 160.33 158.121 162.993 158.043 165.654C158.116 168.318 158.035 170.984 157.801 173.639Z" fill="#263238"/>
<path d="M126.033 155.711C126.128 153.78 126.327 151.598 126.327 151.598C126.327 151.598 131.108 151.069 131.394 146.133C131.68 141.196 131.394 129.807 131.394 129.807L122.733 125.373L113.119 132.933L114.6 157.617L123.417 158.18C124.091 158.198 124.745 157.949 125.235 157.486C125.726 157.024 126.012 156.385 126.033 155.711Z" fill="#FFBE9D"/>
<path d="M126.89 142.226C126.89 142.226 126.89 142.322 126.812 142.434C126.748 142.516 126.664 142.581 126.569 142.623C126.474 142.665 126.37 142.684 126.266 142.677C125.712 142.677 125.175 142.036 124.985 141.291C124.894 140.93 124.894 140.552 124.985 140.191C125.002 140.033 125.059 139.883 125.15 139.753C125.241 139.623 125.363 139.517 125.504 139.446C125.621 139.398 125.752 139.398 125.868 139.446C125.954 139.489 126.024 139.559 126.067 139.645C126.128 139.793 126.067 139.888 126.067 139.879C126.067 139.871 126.067 139.793 125.981 139.706C125.935 139.644 125.869 139.601 125.794 139.585C125.719 139.569 125.64 139.581 125.574 139.619C125.467 139.684 125.379 139.774 125.317 139.881C125.255 139.989 125.221 140.11 125.218 140.234C125.146 140.557 125.146 140.891 125.218 141.213C125.392 141.889 125.859 142.434 126.275 142.486C126.356 142.497 126.439 142.491 126.518 142.469C126.597 142.447 126.671 142.408 126.734 142.356C126.838 142.287 126.873 142.218 126.89 142.226Z" fill="#EB996E"/>
<path d="M134.364 127.139C133.698 124.87 131.281 123.744 129.081 123.121C125.73 122.168 122.109 121.752 118.836 122.956C115.562 124.16 111.63 126.273 111.63 129.885C109.698 129.729 108.59 131.418 107.828 133.514C107.34 134.791 107.048 136.134 106.962 137.498C106.719 142.226 105.394 148.757 102.328 152.221C100.596 154.152 98.1968 155.486 97.2095 157.894C96.3434 159.981 96.7937 162.458 95.9883 164.571C95.2694 166.434 93.6845 167.759 92.5239 169.378C91.3416 171.216 90.6457 173.323 90.5018 175.503C90.3579 177.683 90.7706 179.864 91.7012 181.841C92.6384 183.767 93.958 185.482 95.5795 186.882C97.201 188.282 99.0905 189.337 101.133 189.982C105.178 191.213 109.492 191.255 113.561 190.104C116.615 189.373 119.463 187.961 121.893 185.972C124.379 183.942 126.086 181.115 126.726 177.97C127.341 174.436 126.353 170.842 125.617 167.326C123.313 156.214 123.971 155.633 126.882 145.318C126.951 145.137 126.985 144.946 127.037 144.764C127.089 144.582 127.115 144.496 127.15 144.357C127.233 143.949 127.276 143.535 127.28 143.119C126.855 143.277 126.394 143.31 125.95 143.215C125.507 143.12 125.1 142.9 124.777 142.582C124.453 142.242 124.228 141.821 124.124 141.364C124.02 140.906 124.042 140.429 124.188 139.983C124.392 139.496 124.697 139.056 125.082 138.694C125.467 138.331 125.923 138.054 126.422 137.879C127.384 137.48 128.414 137.272 129.359 136.831C131.359 135.878 132.745 133.903 133.689 131.833C134.465 130.399 134.705 128.735 134.364 127.139Z" fill="#263238"/>
<path d="M127.237 142.46C127.42 142.731 127.571 143.021 127.687 143.327C127.947 143.872 128.293 144.643 128.674 145.535L128.744 145.7H128.562L127.696 145.778C127.098 145.778 126.596 145.89 126.007 145.881C125.956 145.87 125.908 145.846 125.869 145.811C125.829 145.776 125.799 145.732 125.782 145.682C125.756 145.604 125.756 145.519 125.782 145.44C125.802 145.323 125.828 145.207 125.86 145.093L126.015 144.478C126.094 144.068 126.216 143.668 126.379 143.283C126.363 143.701 126.302 144.117 126.197 144.522L126.076 145.137C126.033 145.345 125.955 145.665 126.076 145.639C126.509 145.639 127.124 145.544 127.696 145.509L128.562 145.431L128.449 145.622C128.077 144.756 127.765 143.941 127.583 143.378C127.424 143.091 127.307 142.782 127.237 142.46Z" fill="#4CAF4F"/>
<path d="M97.5817 215.359L135.993 214.189L152.708 279.44L149.633 354.287H129.324L131.809 281.034L116.956 235.608L119.242 357.189L98.7163 357.492L96.5597 243.212C96.4645 240.033 95.4252 232.871 95.8149 229.718L97.5817 215.359Z" fill="#263238"/>
<path d="M122.066 236.534C121.437 236.574 120.806 236.536 120.187 236.422C119.026 236.283 117.441 236.041 115.7 235.694C113.959 235.348 112.4 234.949 111.275 234.629C110.673 234.497 110.09 234.287 109.542 234.005C109.542 233.875 112.366 234.551 115.83 235.253C119.294 235.954 122.083 236.404 122.066 236.534Z" fill="#455A64"/>
<path d="M149.426 350.182C149.426 350.303 144.827 350.407 139.154 350.407C133.481 350.407 128.873 350.303 128.873 350.182C128.873 350.06 133.472 349.957 139.154 349.957C144.835 349.957 149.426 350.052 149.426 350.182Z" fill="#455A64"/>
<path d="M119.061 354.027C119.061 354.157 114.592 354.253 109.083 354.253C103.575 354.253 99.1148 354.157 99.1148 354.027C99.1148 353.898 103.584 353.802 109.083 353.802C114.583 353.802 119.061 353.906 119.061 354.027Z" fill="#455A64"/>
<path d="M116.411 353.716C116.289 353.716 115.752 327.153 115.207 294.389C114.661 261.625 114.341 235.045 114.453 235.045C114.566 235.045 115.12 261.599 115.657 294.38C116.194 327.162 116.54 353.716 116.411 353.716Z" fill="#455A64"/>
<path d="M146.697 350.182C146.688 350.064 146.688 349.945 146.697 349.827V348.788C146.697 347.852 146.767 346.51 146.819 344.804C146.94 341.34 147.113 336.308 147.33 330.141C147.797 317.739 148.456 300.642 149.174 281.77C149.174 281.588 149.174 281.415 149.174 281.259V281.32C144.628 263.132 140.514 246.625 137.526 234.681L134.061 220.555C133.663 218.901 133.36 217.611 133.143 216.71C133.039 216.286 132.97 215.956 132.909 215.705C132.876 215.593 132.855 215.476 132.849 215.359C132.894 215.468 132.929 215.581 132.953 215.697C133.022 215.939 133.109 216.268 133.23 216.684C133.464 217.55 133.801 218.867 134.234 220.512C135.101 223.855 136.322 228.671 137.846 234.603C140.86 246.538 145.017 263.002 149.625 281.216V281.277C149.625 281.432 149.625 281.614 149.625 281.788C148.854 300.66 148.152 317.747 147.641 330.15C147.373 336.325 147.148 341.322 146.992 344.804C146.905 346.536 146.836 347.852 146.793 348.788C146.793 349.23 146.741 349.576 146.732 349.827C146.733 349.946 146.722 350.065 146.697 350.182Z" fill="#455A64"/>
<path d="M140.072 279.735C138.613 280.215 137.11 280.548 135.586 280.731C133.715 281.051 132.121 281.277 131.402 281.311V281.138C131.636 281.207 131.758 281.251 131.758 281.285C131.758 281.32 131.61 281.285 131.368 281.285H130.848L131.368 281.129C132.043 280.93 133.637 280.601 135.508 280.263C137.008 279.938 138.537 279.761 140.072 279.735Z" fill="#455A64"/>
<path d="M139.717 282.22C138.366 282.282 137.012 282.221 135.672 282.038C134.319 282.011 132.972 281.863 131.645 281.597C134.352 281.376 137.076 281.586 139.717 282.22Z" fill="#455A64"/>
<path opacity="0.2" d="M97.4173 216.736C97.8722 217.32 98.4452 217.802 99.0988 218.149C99.7525 218.497 100.472 218.703 101.211 218.754C102.758 218.937 104.323 218.908 105.862 218.667C115.778 217.567 126.284 216.554 135.993 214.189C123.426 214.891 110.149 214.657 97.5819 215.359L97.452 216.433" fill="black"/>
<g opacity="0.2">
<path d="M110.365 234.447L117.45 261.937L116.956 235.608L110.365 234.447Z" fill="black"/>
</g>
</svg>
