<svg width="48" height="49" viewBox="0 0 48 49" fill="none" xmlns="http://www.w3.org/2000/svg">
<mask id="path-1-inside-1_1_1239" fill="white">
<path d="M28.3116 24.1107C28.0708 24.1107 27.8472 24.0445 27.6486 23.938V23.9408C27.6486 24.3197 27.5014 24.6754 27.2342 24.9419C26.967 25.2091 26.6115 25.3563 26.2331 25.3563C25.9888 25.3563 25.7624 25.2885 25.5617 25.1792C25.5414 25.5257 25.4029 25.8497 25.1557 26.0971C24.8886 26.3642 24.5331 26.5115 24.1544 26.5115C23.4021 26.5115 22.7912 25.9201 22.7472 25.1789C22.5144 25.3047 22.2513 25.3707 21.9798 25.3533C21.2398 25.3047 20.6602 24.6653 20.6602 23.8972V17.5306L19.9353 18.7866C19.6592 19.2669 19.1423 19.5652 18.5858 19.5652C18.3146 19.5652 18.0467 19.494 17.8095 19.3581C17.514 19.1868 17.3027 18.9119 17.2148 18.583C17.1265 18.2538 17.1722 17.9096 17.343 17.6146C17.3432 17.6146 19.715 13.5074 19.8597 13.2551C19.8769 13.2172 19.9259 13.1072 19.9676 13.0134C20.0074 12.9239 20.0416 12.832 20.0743 12.7397C20.7896 10.7204 22.5606 9.46605 24.6965 9.46605C27.4702 9.46605 29.7268 11.9129 29.7268 14.9206L29.727 22.695C29.727 23.0734 29.58 23.4289 29.313 23.6963C29.0459 23.9635 28.6904 24.1107 28.3115 24.1107L28.3116 24.1107ZM24.6966 10.2182C22.8612 10.2182 21.3984 11.2548 20.7833 12.9912C20.7439 13.1015 20.7029 13.2117 20.6551 13.3192C20.5163 13.6304 20.5163 13.6304 20.4772 13.6751L20.472 13.6707C20.2784 14.0361 19.703 15.0324 17.9943 17.9911C17.924 18.1124 17.9054 18.2533 17.9412 18.388C17.9775 18.5228 18.0645 18.6364 18.1849 18.7059C18.5585 18.9205 19.0702 18.782 19.2832 18.4109L20.7107 15.9395C20.796 15.7922 20.9684 15.7199 21.1338 15.7646C21.2983 15.8087 21.4125 15.9578 21.4125 16.1279V23.8975C21.4125 24.264 21.6891 24.5804 22.0291 24.6028C22.2251 24.6132 22.408 24.5475 22.5453 24.4103C22.6702 24.2855 22.739 24.1191 22.739 23.9413V18.8599C22.739 18.6521 22.9074 18.4836 23.1152 18.4836C23.323 18.4836 23.4915 18.6519 23.4915 18.8599L23.4913 25.0963C23.4913 25.4619 23.7888 25.7595 24.1545 25.7595C24.3321 25.7595 24.4989 25.6907 24.624 25.5658C24.7489 25.4407 24.8177 25.2739 24.8177 25.0963V18.8599C24.8177 18.6521 24.9859 18.4836 25.1939 18.4836C25.4017 18.4836 25.5702 18.6519 25.5702 18.8599L25.5699 23.8828V23.9412C25.5699 24.3067 25.8675 24.6042 26.2334 24.6042C26.4108 24.6042 26.5771 24.5352 26.7029 24.4098C26.8278 24.2852 26.8966 24.1189 26.8966 23.941V18.8596C26.8966 18.6518 27.0648 18.4834 27.2728 18.4834C27.4806 18.4834 27.6491 18.6516 27.6491 18.8596L27.6486 22.6952C27.6486 23.0611 27.9462 23.3586 28.3116 23.3586C28.4894 23.3586 28.6558 23.2896 28.7806 23.165C28.906 23.0396 28.9745 22.8728 28.9745 22.6952L28.9748 14.9208C28.9748 12.3281 27.0556 10.2183 24.6965 10.2183L24.6966 10.2182Z"/>
</mask>
<path d="M28.3116 24.1107C28.0708 24.1107 27.8472 24.0445 27.6486 23.938V23.9408C27.6486 24.3197 27.5014 24.6754 27.2342 24.9419C26.967 25.2091 26.6115 25.3563 26.2331 25.3563C25.9888 25.3563 25.7624 25.2885 25.5617 25.1792C25.5414 25.5257 25.4029 25.8497 25.1557 26.0971C24.8886 26.3642 24.5331 26.5115 24.1544 26.5115C23.4021 26.5115 22.7912 25.9201 22.7472 25.1789C22.5144 25.3047 22.2513 25.3707 21.9798 25.3533C21.2398 25.3047 20.6602 24.6653 20.6602 23.8972V17.5306L19.9353 18.7866C19.6592 19.2669 19.1423 19.5652 18.5858 19.5652C18.3146 19.5652 18.0467 19.494 17.8095 19.3581C17.514 19.1868 17.3027 18.9119 17.2148 18.583C17.1265 18.2538 17.1722 17.9096 17.343 17.6146C17.3432 17.6146 19.715 13.5074 19.8597 13.2551C19.8769 13.2172 19.9259 13.1072 19.9676 13.0134C20.0074 12.9239 20.0416 12.832 20.0743 12.7397C20.7896 10.7204 22.5606 9.46605 24.6965 9.46605C27.4702 9.46605 29.7268 11.9129 29.7268 14.9206L29.727 22.695C29.727 23.0734 29.58 23.4289 29.313 23.6963C29.0459 23.9635 28.6904 24.1107 28.3115 24.1107L28.3116 24.1107ZM24.6966 10.2182C22.8612 10.2182 21.3984 11.2548 20.7833 12.9912C20.7439 13.1015 20.7029 13.2117 20.6551 13.3192C20.5163 13.6304 20.5163 13.6304 20.4772 13.6751L20.472 13.6707C20.2784 14.0361 19.703 15.0324 17.9943 17.9911C17.924 18.1124 17.9054 18.2533 17.9412 18.388C17.9775 18.5228 18.0645 18.6364 18.1849 18.7059C18.5585 18.9205 19.0702 18.782 19.2832 18.4109L20.7107 15.9395C20.796 15.7922 20.9684 15.7199 21.1338 15.7646C21.2983 15.8087 21.4125 15.9578 21.4125 16.1279V23.8975C21.4125 24.264 21.6891 24.5804 22.0291 24.6028C22.2251 24.6132 22.408 24.5475 22.5453 24.4103C22.6702 24.2855 22.739 24.1191 22.739 23.9413V18.8599C22.739 18.6521 22.9074 18.4836 23.1152 18.4836C23.323 18.4836 23.4915 18.6519 23.4915 18.8599L23.4913 25.0963C23.4913 25.4619 23.7888 25.7595 24.1545 25.7595C24.3321 25.7595 24.4989 25.6907 24.624 25.5658C24.7489 25.4407 24.8177 25.2739 24.8177 25.0963V18.8599C24.8177 18.6521 24.9859 18.4836 25.1939 18.4836C25.4017 18.4836 25.5702 18.6519 25.5702 18.8599L25.5699 23.8828V23.9412C25.5699 24.3067 25.8675 24.6042 26.2334 24.6042C26.4108 24.6042 26.5771 24.5352 26.7029 24.4098C26.8278 24.2852 26.8966 24.1189 26.8966 23.941V18.8596C26.8966 18.6518 27.0648 18.4834 27.2728 18.4834C27.4806 18.4834 27.6491 18.6516 27.6491 18.8596L27.6486 22.6952C27.6486 23.0611 27.9462 23.3586 28.3116 23.3586C28.4894 23.3586 28.6558 23.2896 28.7806 23.165C28.906 23.0396 28.9745 22.8728 28.9745 22.6952L28.9748 14.9208C28.9748 12.3281 27.0556 10.2183 24.6965 10.2183L24.6966 10.2182Z" fill="#4CAF4F"/>
<path d="M28.3116 24.1107V22.7774H33.0223L29.0104 25.2462L28.3116 24.1107ZM27.6486 23.938H26.3153V21.7102L28.2787 22.7629L27.6486 23.938ZM27.2342 24.9419L26.2914 23.9991L26.2927 23.9979L27.2342 24.9419ZM25.5617 25.1792L24.2306 25.1013L24.3533 23.0029L26.1993 24.0082L25.5617 25.1792ZM25.1557 26.0971L26.099 27.0394L26.0985 27.0399L25.1557 26.0971ZM22.7472 25.1789L22.1132 24.0059L23.9541 23.011L24.0782 25.0999L22.7472 25.1789ZM21.9798 25.3533L21.8944 26.6839L21.8926 26.6837L21.9798 25.3533ZM20.6602 17.5306L19.5055 16.864L21.9936 12.5535V17.5306H20.6602ZM19.9353 18.7866L18.7793 18.1221L18.7805 18.12L19.9353 18.7866ZM17.8095 19.3581L17.1466 20.515L17.1408 20.5116L17.8095 19.3581ZM17.2148 18.583L18.5026 18.2373L18.503 18.2388L17.2148 18.583ZM17.343 17.6146L16.1891 16.9465L16.5743 16.2813H17.343V17.6146ZM19.8597 13.2551L21.074 13.8058L21.0478 13.8635L21.0163 13.9185L19.8597 13.2551ZM19.9676 13.0134L18.7493 12.4716L18.7493 12.4716L19.9676 13.0134ZM20.0743 12.7397L21.3311 13.1848L21.331 13.1852L20.0743 12.7397ZM29.7268 14.9206L28.3934 14.9207V14.9206H29.7268ZM29.727 22.695L31.0603 22.695V22.695H29.727ZM29.313 23.6963L30.2567 24.6382L30.2559 24.6391L29.313 23.6963ZM28.3115 24.1107V25.4441H23.6008L27.6127 22.9752L28.3115 24.1107ZM24.6966 10.2182V8.88486H26.4642L25.9786 10.5845L24.6966 10.2182ZM20.7833 12.9912L22.0401 13.4364L22.039 13.4393L20.7833 12.9912ZM20.6551 13.3192L21.8732 13.8614L21.8729 13.8621L20.6551 13.3192ZM20.4772 13.6751L21.4813 14.5524L20.609 15.5507L19.6057 14.6842L20.4772 13.6751ZM20.472 13.6707L19.2939 13.0463L20.0774 11.5681L21.3435 12.6616L20.472 13.6707ZM17.9943 17.9911L19.1489 18.6579L19.1483 18.6589L17.9943 17.9911ZM17.9412 18.388L16.6537 18.7347L16.6526 18.7305L17.9412 18.388ZM18.1849 18.7059L17.5207 19.862L17.5183 19.8606L18.1849 18.7059ZM19.2832 18.4109L18.1268 17.7472L18.1286 17.744L19.2832 18.4109ZM20.7107 15.9395L19.5561 15.2726L19.5569 15.2712L20.7107 15.9395ZM21.1338 15.7646L20.7888 17.0526L20.7855 17.0517L21.1338 15.7646ZM22.0291 24.6028L21.9587 25.9343L21.9501 25.9338L21.9416 25.9333L22.0291 24.6028ZM22.5453 24.4103L23.4881 25.3531L23.4873 25.354L22.5453 24.4103ZM23.4915 18.8599H24.8248V18.8599L23.4915 18.8599ZM23.4913 25.0963H22.1579V25.0962L23.4913 25.0963ZM24.624 25.5658L25.5677 26.5077L25.5659 26.5095L24.624 25.5658ZM25.5702 18.8599H26.9035V18.8599L25.5702 18.8599ZM25.5699 23.8828H24.2366V23.8828L25.5699 23.8828ZM26.7029 24.4098L27.6448 25.3535L27.644 25.3544L26.7029 24.4098ZM27.6491 18.8596H28.9824V18.8598L27.6491 18.8596ZM27.6486 22.6952H26.3153V22.695L27.6486 22.6952ZM28.7806 23.165L29.7235 24.1078L29.7226 24.1087L28.7806 23.165ZM28.9745 22.6952H27.6412V22.6951L28.9745 22.6952ZM28.9748 14.9208H30.3081V14.9209L28.9748 14.9208ZM24.6965 10.2183V11.5516H22.9289L23.4145 9.85197L24.6965 10.2183ZM28.3116 24.1107V25.444C27.8206 25.444 27.3823 25.3081 27.0186 25.1131L27.6486 23.938L28.2787 22.7629C28.2959 22.7722 28.3069 22.7757 28.3112 22.7769C28.3149 22.7779 28.3144 22.7774 28.3116 22.7774V24.1107ZM27.6486 23.938H28.982V23.9408H27.6486H26.3153V23.938H27.6486ZM27.6486 23.9408H28.982C28.982 24.6722 28.695 25.3681 28.1758 25.886L27.2342 24.9419L26.2927 23.9979C26.3022 23.9884 26.3069 23.9802 26.3097 23.9735C26.3124 23.9669 26.3153 23.9566 26.3153 23.9408H27.6486ZM27.2342 24.9419L28.177 25.8847C27.6596 26.4021 26.9649 26.6897 26.2331 26.6897V25.3563V24.023C26.2484 24.023 26.2585 24.0202 26.2653 24.0174C26.2722 24.0146 26.281 24.0095 26.2914 23.9991L27.2342 24.9419ZM26.2331 25.3563V26.6897C25.7358 26.6897 25.292 26.5505 24.924 26.3501L25.5617 25.1792L26.1993 24.0082C26.2167 24.0176 26.2277 24.0212 26.2321 24.0224C26.2358 24.0235 26.2355 24.023 26.2331 24.023V25.3563ZM25.5617 25.1792L26.8927 25.257C26.8544 25.9133 26.5881 26.5498 26.099 27.0394L25.1557 26.0971L24.2124 25.1547C24.2174 25.1498 24.2202 25.1454 24.2227 25.1399C24.2253 25.1339 24.2294 25.1217 24.2306 25.1013L25.5617 25.1792ZM25.1557 26.0971L26.0985 27.0399C25.581 27.5574 24.8863 27.8448 24.1544 27.8448V26.5115V25.1781C24.1699 25.1781 24.1801 25.1753 24.1869 25.1725C24.1937 25.1697 24.2025 25.1647 24.2129 25.1542L25.1557 26.0971ZM24.1544 26.5115V27.8448C22.6824 27.8448 21.5012 26.6895 21.4162 25.258L22.7472 25.1789L24.0782 25.0999C24.0795 25.1225 24.0888 25.1424 24.1052 25.1581C24.1132 25.1657 24.1214 25.1706 24.1284 25.1735C24.1346 25.1761 24.1425 25.1781 24.1544 25.1781V26.5115ZM22.7472 25.1789L23.3812 26.3519C22.9505 26.5847 22.4398 26.7189 21.8944 26.6839L21.9798 25.3533L22.0653 24.0227C22.0653 24.0227 22.0682 24.0229 22.0752 24.0213C22.0827 24.0196 22.0958 24.0154 22.1132 24.0059L22.7472 25.1789ZM21.9798 25.3533L21.8926 26.6837C20.4121 26.5866 19.3269 25.3277 19.3269 23.8972H20.6602H21.9936C21.9936 23.9423 22.0099 23.977 22.0305 23.9997C22.0505 24.0217 22.064 24.0226 22.0671 24.0228L21.9798 25.3533ZM20.6602 23.8972H19.3269V17.5306H20.6602H21.9936V23.8972H20.6602ZM20.6602 17.5306L21.815 18.1971L21.09 19.4531L19.9353 18.7866L18.7805 18.12L19.5055 16.864L20.6602 17.5306ZM19.9353 18.7866L21.0913 19.451C20.576 20.3473 19.617 20.8985 18.5858 20.8985V19.5652V18.2319C18.6675 18.2319 18.7423 18.1865 18.7793 18.1221L19.9353 18.7866ZM18.5858 19.5652V20.8985C18.0816 20.8985 17.5852 20.7663 17.1466 20.515L17.8095 19.3581L18.4724 18.2012C18.5082 18.2218 18.5476 18.2319 18.5858 18.2319V19.5652ZM17.8095 19.3581L17.1408 20.5116C16.5421 20.1646 16.1064 19.5998 15.9267 18.9271L17.2148 18.583L18.503 18.2388C18.5018 18.2342 18.4984 18.2262 18.492 18.2178C18.4856 18.2095 18.4798 18.2055 18.4782 18.2046L17.8095 19.3581ZM17.2148 18.583L15.9271 18.9286C15.7467 18.2565 15.8411 17.5476 16.1891 16.9465L17.343 17.6146L18.4969 18.2828C18.4988 18.2795 18.5021 18.2719 18.5035 18.2611C18.505 18.2503 18.5038 18.2417 18.5026 18.2373L17.2148 18.583ZM17.343 17.6146V16.2813C16.689 16.4527 16.1994 16.9291 16.1957 16.9353C16.1945 16.9373 16.1927 16.9404 16.1921 16.9414C16.1918 16.9419 16.1912 16.9429 16.191 16.9433C16.1909 16.9435 16.1907 16.9439 16.1906 16.944C16.1904 16.9443 16.1905 16.9442 16.191 16.9433C16.1919 16.9418 16.1934 16.9391 16.1956 16.9353C16.2 16.9277 16.2066 16.9164 16.2153 16.9013C16.2326 16.8713 16.2582 16.8271 16.2907 16.7707C16.3558 16.658 16.449 16.4966 16.5614 16.3021C16.786 15.9132 17.087 15.3919 17.3925 14.8628C18.0045 13.8028 18.632 12.7157 18.7031 12.5918L19.8597 13.2551L21.0163 13.9185C20.9427 14.0468 20.3119 15.1396 19.7019 16.1962C19.3963 16.7254 19.0953 17.2467 18.8706 17.6357C18.7583 17.8303 18.665 17.9917 18.5998 18.1046C18.5672 18.161 18.5416 18.2053 18.5241 18.2356C18.5154 18.2507 18.5087 18.2624 18.504 18.2704C18.5017 18.2743 18.4999 18.2776 18.4985 18.28C18.4978 18.2811 18.497 18.2825 18.4963 18.2838C18.496 18.2843 18.4951 18.2858 18.4941 18.2875C18.4934 18.2886 18.4916 18.2918 18.4903 18.2939C18.4866 18.3001 17.9971 18.7765 17.343 18.948V17.6146ZM19.8597 13.2551L18.6453 12.7045C18.66 12.6722 18.7065 12.5678 18.7493 12.4716L19.9676 13.0134L21.1859 13.5552C21.1453 13.6466 21.0937 13.7623 21.074 13.8058L19.8597 13.2551ZM19.9676 13.0134L18.7493 12.4716C18.7678 12.4299 18.7883 12.3767 18.8176 12.2941L20.0743 12.7397L21.331 13.1852C21.2948 13.2873 21.247 13.4178 21.1859 13.5552L19.9676 13.0134ZM20.0743 12.7397L18.8175 12.2945C19.7206 9.745 21.9936 8.13271 24.6965 8.13271V9.46605V10.7994C23.1276 10.7994 21.8586 11.6958 21.3311 13.1848L20.0743 12.7397ZM24.6965 9.46605V8.13271C28.3062 8.13271 31.0601 11.2803 31.0601 14.9206H29.7268H28.3934C28.3934 12.5456 26.6342 10.7994 24.6965 10.7994V9.46605ZM29.7268 14.9206L31.0601 14.9206L31.0603 22.695L29.727 22.695L28.3937 22.695L28.3934 14.9207L29.7268 14.9206ZM29.727 22.695H31.0603C31.0603 23.4262 30.7735 24.1206 30.2567 24.6382L29.313 23.6963L28.3694 22.7544C28.3799 22.7438 28.385 22.7348 28.3879 22.7278C28.3908 22.7208 28.3937 22.7105 28.3937 22.695H29.727ZM29.313 23.6963L30.2559 24.6391C29.7383 25.1567 29.0435 25.4441 28.3115 25.4441V24.1107V22.7774C28.3272 22.7774 28.3374 22.7745 28.3443 22.7717C28.3511 22.7689 28.3598 22.7639 28.3702 22.7535L29.313 23.6963ZM28.3115 24.1107L27.6127 22.9752L27.6128 22.9752L28.3116 24.1107L29.0104 25.2462L29.0103 25.2463L28.3115 24.1107ZM24.6966 10.2182V11.5515C23.4289 11.5515 22.4676 12.2297 22.0401 13.4364L20.7833 12.9912L19.5265 12.546C20.3292 10.28 22.2936 8.88486 24.6966 8.88486V10.2182ZM20.7833 12.9912L22.039 13.4393C21.9969 13.5573 21.9423 13.7062 21.8732 13.8614L20.6551 13.3192L19.437 12.7769C19.4636 12.7172 19.4909 12.6457 19.5275 12.5431L20.7833 12.9912ZM20.6551 13.3192L21.8729 13.8621C21.8118 13.9991 21.7606 14.1147 21.7215 14.1931C21.6972 14.2417 21.6579 14.3166 21.6008 14.3996C21.543 14.4837 21.4859 14.5471 21.4813 14.5524L20.4772 13.6751L19.4732 12.7979C19.4763 12.7943 19.4753 12.7954 19.4737 12.7973C19.4716 12.7996 19.4665 12.8057 19.4597 12.814C19.4526 12.8225 19.4437 12.8336 19.4338 12.8468C19.4237 12.8601 19.4134 12.8743 19.4031 12.8892C19.3823 12.9196 19.3662 12.9462 19.3547 12.9664C19.3441 12.9852 19.3375 12.9982 19.3361 13.0011C19.3345 13.0041 19.3355 13.0023 19.34 12.9926C19.3444 12.9832 19.3506 12.9697 19.3595 12.95C19.3684 12.9305 19.379 12.9069 19.392 12.8777C19.405 12.8486 19.4199 12.8153 19.4373 12.7762L20.6551 13.3192ZM20.4772 13.6751L19.6057 14.6842L19.6005 14.6798L20.472 13.6707L21.3435 12.6616L21.3487 12.666L20.4772 13.6751ZM20.472 13.6707L21.6501 14.295C21.4415 14.6888 20.8457 15.7199 19.1489 18.6579L17.9943 17.9911L16.8397 17.3242C18.5604 14.3449 19.1153 13.3834 19.2939 13.0463L20.472 13.6707ZM17.9943 17.9911L19.1483 18.6589C19.255 18.4745 19.2847 18.2521 19.2298 18.0456L17.9412 18.388L16.6526 18.7305C16.5261 18.2545 16.5931 17.7503 16.8402 17.3233L17.9943 17.9911ZM17.9412 18.388L19.2287 18.0414C19.1739 17.8376 19.039 17.6594 18.8515 17.5511L18.1849 18.7059L17.5183 19.8606C17.0899 19.6133 16.7812 19.208 16.6538 18.7347L17.9412 18.388ZM18.1849 18.7059L18.849 17.5497C18.6972 17.4625 18.5496 17.4631 18.4477 17.4905C18.3461 17.5179 18.2159 17.5919 18.1268 17.7472L19.2832 18.4109L20.4396 19.0746C19.8585 20.0871 18.5305 20.4421 17.5207 19.862L18.1849 18.7059ZM19.2832 18.4109L18.1286 17.744L19.5561 15.2726L20.7107 15.9395L21.8653 16.6063L20.4378 19.0778L19.2832 18.4109ZM20.7107 15.9395L19.5569 15.2712C19.9421 14.6063 20.7281 14.2735 21.4822 14.4776L21.1338 15.7646L20.7855 17.0517C21.2088 17.1662 21.6499 16.9781 21.8645 16.6077L20.7107 15.9395ZM21.1338 15.7646L21.4789 14.4767C22.2269 14.6771 22.7459 15.355 22.7459 16.1279H21.4125H20.0792C20.0792 16.5607 20.3697 16.9403 20.7888 17.0526L21.1338 15.7646ZM21.4125 16.1279H22.7459V23.8975H21.4125H20.0792V16.1279H21.4125ZM21.4125 23.8975H22.7459C22.7459 23.7455 22.6896 23.6074 22.5972 23.5017C22.5049 23.3962 22.3422 23.2872 22.1167 23.2724L22.0291 24.6028L21.9416 25.9333C20.8192 25.8594 20.0792 24.8817 20.0792 23.8975H21.4125ZM22.0291 24.6028L22.0995 23.2713C21.942 23.263 21.7496 23.3207 21.6033 23.4667L22.5453 24.4103L23.4873 25.354C23.0664 25.7742 22.5083 25.9634 21.9587 25.9343L22.0291 24.6028ZM22.5453 24.4103L21.6025 23.4675C21.476 23.5941 21.4057 23.7674 21.4057 23.9413H22.739H24.0723C24.0723 24.4708 23.8644 24.9769 23.4881 25.3531L22.5453 24.4103ZM22.739 23.9413H21.4057V18.8599H22.739H24.0723V23.9413H22.739ZM22.739 18.8599H21.4057C21.4057 17.9157 22.1711 17.1503 23.1152 17.1503V18.4836V19.817C23.6438 19.817 24.0723 19.3885 24.0723 18.8599H22.739ZM23.1152 18.4836V17.1503C24.0589 17.1503 24.8248 17.9149 24.8248 18.8599H23.4915H22.1582C22.1582 19.3888 22.5872 19.817 23.1152 19.817V18.4836ZM23.4915 18.8599L24.8248 18.8599L24.8246 25.0963L23.4913 25.0963L22.1579 25.0962L22.1582 18.8598L23.4915 18.8599ZM23.4913 25.0963H24.8246C24.8246 24.7255 24.5252 24.4261 24.1545 24.4261V25.7595V27.0928C23.0524 27.0928 22.1579 26.1983 22.1579 25.0963H23.4913ZM24.1545 25.7595V24.4261C23.9809 24.4261 23.8084 24.496 23.6821 24.6221L24.624 25.5658L25.5659 26.5095C25.1894 26.8853 24.6833 27.0928 24.1545 27.0928V25.7595ZM24.624 25.5658L23.6803 24.6239C23.5542 24.7502 23.4843 24.9227 23.4843 25.0963H24.8177H26.151C26.151 25.6251 25.9435 26.1312 25.5677 26.5077L24.624 25.5658ZM24.8177 25.0963H23.4843V18.8599H24.8177H26.151V25.0963H24.8177ZM24.8177 18.8599H23.4843C23.4843 17.9163 24.2489 17.1503 25.1939 17.1503V18.4836V19.817C25.7228 19.817 26.151 19.3879 26.151 18.8599H24.8177ZM25.1939 18.4836V17.1503C26.1375 17.1503 26.9035 17.9149 26.9035 18.8599H25.5702H24.2368C24.2368 19.3888 24.6659 19.817 25.1939 19.817V18.4836ZM25.5702 18.8599L26.9035 18.8599L26.9033 23.8829L25.5699 23.8828L24.2366 23.8828L24.2368 18.8598L25.5702 18.8599ZM25.5699 23.8828H26.9033V23.9412H25.5699H24.2366V23.8828H25.5699ZM25.5699 23.9412H26.9033C26.9033 23.5696 26.6032 23.2709 26.2334 23.2709V24.6042V25.9375C25.1318 25.9375 24.2366 25.0437 24.2366 23.9412H25.5699ZM26.2334 24.6042V23.2709C26.0562 23.2709 25.8847 23.3429 25.7619 23.4653L26.7029 24.4098L27.644 25.3544C27.2695 25.7274 26.7654 25.9375 26.2334 25.9375V24.6042ZM26.7029 24.4098L25.761 23.4661C25.6335 23.5934 25.5632 23.7674 25.5632 23.941H26.8966H28.2299C28.2299 24.4704 28.0221 24.977 27.6448 25.3535L26.7029 24.4098ZM26.8966 23.941H25.5632V18.8596H26.8966H28.2299V23.941H26.8966ZM26.8966 18.8596H25.5632C25.5632 17.916 26.3279 17.15 27.2728 17.15V18.4834V19.8167C27.8017 19.8167 28.2299 19.3877 28.2299 18.8596H26.8966ZM27.2728 18.4834V17.15C28.2165 17.15 28.9824 17.9147 28.9824 18.8596H27.6491H26.3157C26.3157 19.3885 26.7448 19.8167 27.2728 19.8167V18.4834ZM27.6491 18.8596L28.9824 18.8598L28.9819 22.6953L27.6486 22.6952L26.3153 22.695L26.3157 18.8595L27.6491 18.8596ZM27.6486 22.6952H28.9819C28.9819 22.3253 28.6832 22.0253 28.3116 22.0253V23.3586V24.6919C27.2092 24.6919 26.3153 23.7968 26.3153 22.6952H27.6486ZM28.3116 23.3586V22.0253C28.1367 22.0253 27.9641 22.0961 27.8387 22.2213L28.7806 23.165L29.7226 24.1087C29.3474 24.4831 28.8422 24.6919 28.3116 24.6919V23.3586ZM28.7806 23.165L27.8378 22.2221C27.7109 22.3491 27.6412 22.5224 27.6412 22.6952H28.9745H30.3079C30.3079 23.2232 30.1011 23.7301 29.7235 24.1078L28.7806 23.165ZM28.9745 22.6952L27.6412 22.6951L27.6414 14.9208L28.9748 14.9208L30.3081 14.9209L30.3079 22.6952L28.9745 22.6952ZM28.9748 14.9208H27.6414C27.6414 12.9429 26.2033 11.5516 24.6965 11.5516V10.2183V8.88493C27.9079 8.88493 30.3081 11.7132 30.3081 14.9208H28.9748ZM24.6965 10.2183L23.4145 9.85197L23.4145 9.85189L24.6966 10.2182L25.9786 10.5845L25.9786 10.5846L24.6965 10.2183Z" fill="#4CAF4F" mask="url(#path-1-inside-1_1_1239)"/>
<path d="M11.9632 26.6799L11.888 26.6399C11.8705 26.6714 11.8206 26.76 11.7474 26.8918C11.7734 26.9049 11.7992 26.9171 11.8255 26.927C11.8704 26.8461 11.9166 26.7639 11.9632 26.6799Z" fill="#4CAF4F" stroke="#4CAF4F" stroke-width="1.33333"/>
<path d="M27.8259 28.5417L27.8279 28.5427C27.8303 28.5444 27.8322 28.5469 27.8347 28.5486C27.8316 28.5464 27.8289 28.5439 27.8259 28.5417Z" fill="#4CAF4F" stroke="#4CAF4F" stroke-width="1.33333"/>
</svg>
