<svg width="48" height="49" viewBox="0 0 48 49" fill="none" xmlns="http://www.w3.org/2000/svg">
<path d="M9.75 8.46606H38.25C39.8042 8.46606 41.2988 9.04489 42.4453 10.0833L42.6689 10.2971C43.841 11.4692 44.5 13.0585 44.5 14.7161V34.2161C44.5 35.7703 43.9212 37.2648 42.8828 38.4114L42.6689 38.635C41.4968 39.8071 39.9076 40.4661 38.25 40.4661H9.75C8.19581 40.4661 6.70125 39.8872 5.55469 38.8489L5.33105 38.635C4.15895 37.4629 3.5 35.8737 3.5 34.2161V14.7161C3.5 13.1619 4.07882 11.6673 5.11719 10.5208L5.33105 10.2971C6.42998 9.19819 7.89554 8.55043 9.44043 8.47388L9.75 8.46606ZM5.5 34.2161C5.5 35.2728 5.89363 36.289 6.59961 37.0686L6.74512 37.2209C7.54215 38.018 8.62283 38.4661 9.75 38.4661H38.25C39.3068 38.4661 40.3229 38.0724 41.1025 37.3665L41.2549 37.2209C42.0519 36.4239 42.5 35.3432 42.5 34.2161V19.4661H5.5V34.2161ZM31.5 29.4661H36C36.2652 29.4661 36.5195 29.5715 36.707 29.759C36.8946 29.9466 37 30.2008 37 30.4661C37 30.7313 36.8946 30.9856 36.707 31.1731C36.5195 31.3606 36.2652 31.4661 36 31.4661H31.5C31.2348 31.4661 30.9805 31.3606 30.793 31.1731C30.6054 30.9856 30.5 30.7313 30.5 30.4661C30.5 30.2008 30.6054 29.9466 30.793 29.759C30.9805 29.5715 31.2348 29.4661 31.5 29.4661ZM9.75 10.4661C8.62283 10.4661 7.54215 10.9142 6.74512 11.7112C5.94809 12.5082 5.5 13.5889 5.5 14.7161V17.4661H42.5V14.7161C42.5 13.5889 42.0519 12.5082 41.2549 11.7112C40.4579 10.9142 39.3772 10.4661 38.25 10.4661H9.75Z" fill="#4CAF4F" stroke="#4CAF4F"/>
</svg>
