<svg width="370" height="276" viewBox="0 0 370 276" fill="none" xmlns="http://www.w3.org/2000/svg">
<path d="M184.804 275.932C263.962 275.932 328.131 272.186 328.131 267.564C328.131 262.943 263.962 259.197 184.804 259.197C105.647 259.197 41.4775 262.943 41.4775 267.564C41.4775 272.186 105.647 275.932 184.804 275.932Z" fill="#F5F5F5"/>
<path d="M258.172 80.6827L250.839 77.7258C250.839 77.7258 241.162 95.371 238.39 96.2654C234.62 97.4777 226.814 100.849 222.187 101.44C221.558 102.179 220.531 104.478 220.627 105.313C226.844 107.391 240.505 104.633 243.432 102.46C250.092 97.5295 258.172 80.6827 258.172 80.6827Z" fill="#E58A7B"/>
<path d="M260.426 76.6689C261.794 81.7178 254.387 91.8746 254.387 91.8746L244.681 86.434C244.681 86.434 246.5 82.2574 248.717 78.0069C252.273 71.1396 258.867 70.9104 260.426 76.6689Z" fill="#4CAF4F"/>
<path opacity="0.2" d="M260.426 76.6689C261.794 81.7178 254.387 91.8746 254.387 91.8746L244.681 86.434C244.681 86.434 246.5 82.2574 248.717 78.0069C252.273 71.1396 258.867 70.9104 260.426 76.6689Z" fill="black"/>
<path opacity="0.2" d="M248.532 88.6072L252.354 90.7509L253.027 79.0195C250.802 80.7271 249.235 85.8721 248.532 88.6072Z" fill="black"/>
<path d="M254.04 72.8692C254.04 72.8692 246.485 89.679 250.891 120.977H280.659C281.132 116.409 279.565 94.1143 285.235 72.5882C281.969 71.9501 278.665 71.5278 275.344 71.3242C271.131 71.0801 266.908 71.0801 262.696 71.3242C259.776 71.6207 256.882 72.1372 254.04 72.8692Z" fill="#4CAF4F"/>
<path opacity="0.2" d="M254.04 72.8692C254.04 72.8692 246.485 89.679 250.891 120.977H280.659C281.132 116.409 279.565 94.1143 285.235 72.5882C281.969 71.9501 278.665 71.5278 275.344 71.3242C271.131 71.0801 266.908 71.0801 262.696 71.3242C259.776 71.6207 256.882 72.1372 254.04 72.8692Z" fill="black"/>
<g style="mix-blend-mode:multiply">
<path d="M247.135 268.23C247.091 269.028 258.379 269.671 272.343 269.671C286.306 269.671 297.676 269.028 297.72 268.23C297.764 267.431 286.484 266.796 272.513 266.796C258.541 266.796 247.187 267.439 247.135 268.23Z" fill="#E8ECF1"/>
</g>
<path d="M267.006 247.253L261.726 249.297L266.274 261.046L271.554 259.002L267.006 247.253Z" fill="#E58A7B"/>
<path d="M290.55 262.545H284.983L282.943 249.661H288.509L290.55 262.545Z" fill="#E58A7B"/>
<path d="M284.599 261.902H290.853C290.961 261.902 291.066 261.941 291.149 262.012C291.231 262.082 291.286 262.179 291.304 262.287L292.109 267.232C292.126 267.356 292.116 267.482 292.08 267.602C292.044 267.722 291.983 267.833 291.9 267.927C291.817 268.021 291.715 268.096 291.601 268.147C291.486 268.198 291.362 268.224 291.237 268.222C289.056 268.185 288.007 268.052 285.257 268.052C283.564 268.052 280.082 268.23 277.732 268.23C275.381 268.23 275.226 265.923 276.194 265.709C280.541 264.77 282.226 263.491 283.675 262.25C283.93 262.025 284.259 261.902 284.599 261.902Z" fill="#263238"/>
<path d="M266.118 259.995L272.032 258.265C272.138 258.235 272.25 258.243 272.351 258.286C272.452 258.329 272.535 258.405 272.587 258.502L274.804 262.937C274.856 263.049 274.882 263.172 274.881 263.296C274.881 263.419 274.853 263.542 274.8 263.653C274.747 263.765 274.671 263.864 274.576 263.944C274.481 264.023 274.369 264.08 274.25 264.112C272.099 264.704 270.657 265.066 267.966 265.849C266.111 266.389 264.219 267.269 262.385 267.853C261.114 268.259 258.128 268.274 256.583 268.274C254.298 268.274 253.788 265.864 254.771 265.753C257.248 265.48 257.58 265.606 258.948 264.918C261.186 263.94 263.214 262.539 264.921 260.793C265.243 260.426 265.656 260.151 266.118 259.995Z" fill="#263238"/>
<path d="M223.118 101.411L216.997 98.8455L214.477 105.631C216.985 106.014 219.538 106.014 222.046 105.631L223.118 101.411Z" fill="#E58A7B"/>
<path d="M212.444 98.668L212.281 103.177L214.477 105.617L216.997 98.8306L212.444 98.668Z" fill="#E58A7B"/>
<path d="M267.73 248.25L262.434 250.295L264.78 256.371L270.076 254.326L267.73 248.25Z" fill="#CF6F64"/>
<path d="M288.509 249.661H282.943L284 256.306H289.566L288.509 249.661Z" fill="#CF6F64"/>
<path opacity="0.2" d="M249.944 112.513C250.055 113.851 250.181 115.219 250.344 116.623L272.476 109.438C275.932 108.414 278.936 106.242 280.992 103.281C281.08 101.307 281.191 99.2297 281.361 97.0638C281.435 96.0141 281.524 94.9348 281.62 93.8408C281.716 92.7467 281.849 91.5344 281.989 90.3665L249.944 112.513Z" fill="black"/>
<path d="M257.174 88.2671L256.435 88.1784C256.871 84.4823 259.628 81.5698 262.533 81.6437V82.3829C259.99 82.3312 257.566 84.9554 257.174 88.2671Z" fill="white"/>
<path d="M261.114 95.0902H260.988V94.351C263.531 94.4471 265.919 91.7933 266.311 88.489L267.05 88.5777C266.658 92.1925 263.99 95.0902 261.114 95.0902Z" fill="white"/>
<path d="M274.93 57.0796C273.888 61.1527 272.661 68.6114 275.344 71.3243C275.344 71.3243 273.466 75.4565 265.904 75.4565C258.992 75.4565 262.696 71.3243 262.696 71.3243C267.294 70.2451 267.375 66.889 266.769 63.7104L274.93 57.0796Z" fill="#E58A7B"/>
<path d="M271.603 59.7852L266.776 63.7104C266.926 64.4408 267.013 65.1828 267.035 65.9281C268.447 67.3326 271.278 63.7769 271.566 61.9585C271.713 61.2425 271.726 60.5057 271.603 59.7852Z" fill="#CF6F64"/>
<path d="M258.475 57.0279C258.811 57.6101 259.263 58.1167 259.804 58.5161C260.344 58.9155 260.961 59.199 261.617 59.3491C263.391 59.7408 264.278 58.1072 263.79 56.4661C263.354 54.9877 261.898 52.9992 260.094 53.3392C259.707 53.4188 259.346 53.5898 259.039 53.8379C258.732 54.086 258.49 54.404 258.331 54.7652C258.173 55.1264 258.103 55.5204 258.128 55.914C258.153 56.3077 258.272 56.6897 258.475 57.0279Z" fill="#CF6F64"/>
<path d="M261.41 43.9954C258.645 45.2595 257.669 56.2443 261.144 57.8706C264.618 59.4968 266.643 41.593 261.41 43.9954Z" fill="#263238"/>
<path d="M275.773 50.9514C275.107 56.466 275.033 59.7112 272.077 62.535C271.16 63.472 270.003 64.1377 268.732 64.4584C267.461 64.7791 266.127 64.7424 264.876 64.3524C263.624 63.9623 262.505 63.2341 261.642 62.2481C260.779 61.2621 260.204 60.0567 259.983 58.765C259.088 53.8122 260.323 45.6291 265.852 43.4336C267.014 42.9211 268.292 42.7288 269.553 42.8764C270.814 43.0241 272.013 43.5063 273.025 44.2732C274.037 45.0401 274.825 46.0638 275.308 47.238C275.792 48.4123 275.952 49.6944 275.773 50.9514Z" fill="#E58A7B"/>
<path d="M266.688 46.8488C270.783 45.8065 273.792 45.0969 272.712 48.5046C271.286 53.0582 269.571 57.464 271.87 57.6636C273.274 57.7892 279.484 55.1576 278.693 52.489C278.005 50.1679 280.91 49.5322 281.428 48.3568C283.342 44.0989 277.865 44.6607 278.84 42.0734C279.816 39.4862 274.405 35.317 271.448 37.3942C266.636 40.7502 258.379 40.6985 262.718 35.1765C265.83 31.2365 260.279 32.0423 260.279 32.0423C260.279 32.0423 263.635 34.0308 257.987 37.1059C252.014 40.388 257.492 49.2069 266.688 46.8488Z" fill="#263238"/>
<path d="M277.946 57.0279C277.137 58.1977 275.923 59.0251 274.538 59.3491C272.712 59.7408 272.01 58.1072 272.697 56.4661C273.311 54.9877 274.996 52.9992 276.741 53.3392C278.486 53.6793 278.885 55.579 277.946 57.0279Z" fill="#E58A7B"/>
<path d="M250.891 120.978C250.891 120.978 245.893 165.7 245.502 182.673C245.102 200.325 262.437 255.404 262.437 255.404L271.308 251.708C271.308 251.708 260.959 201.382 262.437 184.048C264.004 165.146 270.48 121.007 270.48 121.007L250.891 120.978Z" fill="#4CAF4F"/>
<path opacity="0.2" d="M263.309 133.256C259.325 141.52 262.008 157.864 264.167 167.548C264.987 160.71 265.963 153.289 266.887 146.421C266.799 135.865 265.978 127.712 263.309 133.256Z" fill="black"/>
<path d="M270.916 248.781C270.96 248.781 271.966 251.605 271.966 251.605L261.735 255.907L260.123 252.906L270.916 248.781Z" fill="#4CAF4F"/>
<path d="M261.454 120.978C261.454 120.978 265.276 163.512 267.804 179.442C270.583 196.895 281.479 255.02 281.479 255.02H291.673C291.673 255.02 285.567 198.307 284.414 181.024C283.157 162.278 280.659 120.978 280.659 120.978H261.454Z" fill="#4CAF4F"/>
<path d="M291.828 252.366C291.873 252.366 292.168 255.212 292.168 255.212H280.962L280.164 251.945L291.828 252.366Z" fill="#4CAF4F"/>
<path opacity="0.2" d="M287.925 248.995C287.902 248.996 287.88 248.988 287.862 248.973C287.845 248.958 287.833 248.937 287.829 248.914C287.77 248.397 282.263 197.169 281.228 181.645C280.104 164.806 277.842 127.453 277.82 127.076C277.819 127.064 277.821 127.051 277.825 127.04C277.829 127.028 277.835 127.018 277.843 127.009C277.852 126.999 277.862 126.992 277.873 126.987C277.884 126.982 277.897 126.98 277.909 126.98C277.933 126.98 277.957 126.989 277.974 127.005C277.992 127.022 278.003 127.044 278.005 127.069C278.005 127.446 280.289 164.769 281.413 181.638C282.448 197.161 287.955 248.352 288.007 248.907C288.009 248.919 288.008 248.931 288.005 248.943C288.002 248.955 287.997 248.967 287.989 248.976C287.981 248.986 287.972 248.994 287.961 249C287.95 249.006 287.938 249.009 287.925 249.01V248.995Z" fill="black"/>
<path d="M267.316 52.4889C267.316 52.9398 267.035 53.3021 266.739 53.3021C266.444 53.3021 266.229 52.9398 266.259 52.4889C266.288 52.038 266.54 51.6758 266.835 51.6758C267.131 51.6758 267.346 52.0454 267.316 52.4889Z" fill="#263238"/>
<path d="M262.245 52.4889C262.245 52.9398 261.957 53.3021 261.668 53.3021C261.38 53.3021 261.158 52.9398 261.18 52.4889C261.203 52.038 261.469 51.6758 261.764 51.6758C262.06 51.6758 262.275 52.0454 262.245 52.4889Z" fill="#263238"/>
<path d="M263.842 52.7183C263.225 54.0952 262.429 55.3851 261.476 56.5548C262.215 57.294 263.598 56.954 263.598 56.954L263.842 52.7183Z" fill="#DF5753"/>
<path d="M263.975 58.839C263.958 58.839 263.941 58.8355 263.925 58.8287C263.909 58.822 263.895 58.812 263.883 58.7996C263.871 58.7871 263.862 58.7724 263.856 58.7563C263.851 58.7402 263.848 58.723 263.849 58.7059C263.851 58.6699 263.867 58.6361 263.893 58.6113C263.919 58.5866 263.953 58.5728 263.989 58.5728C264.555 58.5768 265.114 58.454 265.626 58.2135C266.137 57.973 266.589 57.6209 266.946 57.1831C266.972 57.1608 267.005 57.1484 267.039 57.1484C267.073 57.1484 267.106 57.1608 267.131 57.1831C267.155 57.2079 267.168 57.241 267.168 57.2755C267.168 57.31 267.155 57.3431 267.131 57.3679C266.748 57.8332 266.266 58.2068 265.72 58.4614C265.174 58.7159 264.577 58.845 263.975 58.839Z" fill="#263238"/>
<path d="M268.218 51.129C268.182 51.1471 268.143 51.1566 268.103 51.1566C268.063 51.1566 268.024 51.1471 267.989 51.129C267.712 50.9502 267.397 50.839 267.07 50.8043C266.743 50.7697 266.412 50.8125 266.104 50.9294C266.074 50.9444 266.041 50.9532 266.007 50.9554C265.974 50.9576 265.94 50.953 265.909 50.942C265.877 50.9309 265.848 50.9137 265.823 50.8912C265.798 50.8687 265.778 50.8415 265.764 50.8111C265.736 50.7453 265.736 50.6714 265.762 50.6052C265.788 50.5389 265.839 50.4855 265.904 50.4563C266.291 50.2984 266.709 50.2362 267.125 50.2748C267.541 50.3134 267.941 50.4517 268.292 50.678C268.32 50.6973 268.344 50.722 268.363 50.7507C268.382 50.7794 268.395 50.8116 268.401 50.8453C268.407 50.8789 268.406 50.9135 268.399 50.947C268.392 50.9805 268.378 51.0122 268.358 51.0403C268.321 51.0827 268.272 51.1134 268.218 51.129Z" fill="#263238"/>
<path d="M260.286 49.6505C260.247 49.6409 260.211 49.6204 260.183 49.5913C260.158 49.5673 260.138 49.5385 260.125 49.5068C260.112 49.475 260.105 49.441 260.105 49.4065C260.105 49.3721 260.112 49.338 260.125 49.3063C260.138 49.2746 260.158 49.2458 260.183 49.2217C260.466 48.904 260.819 48.6559 261.214 48.4969C261.609 48.3379 262.035 48.2723 262.459 48.3051C262.493 48.3104 262.526 48.3225 262.555 48.3409C262.584 48.3592 262.609 48.3833 262.629 48.4118C262.648 48.4402 262.661 48.4723 262.668 48.5061C262.674 48.5398 262.674 48.5746 262.666 48.6082C262.65 48.6766 262.61 48.7369 262.553 48.7778C262.496 48.8186 262.426 48.8372 262.356 48.83C262.02 48.8088 261.684 48.8644 261.372 48.9924C261.061 49.1205 260.783 49.3177 260.56 49.5692C260.526 49.6066 260.482 49.634 260.434 49.6483C260.386 49.6627 260.335 49.6634 260.286 49.6505Z" fill="#263238"/>
<path d="M288.095 79.8623L280.408 77.8147C280.408 77.8147 272.868 96.3765 270.199 97.5814C266.577 99.2372 257.403 104.974 253.5 107.686C253.286 108.611 253.456 111.057 253.944 111.73C260.597 110.518 273.333 105.617 275.994 103.126C282.063 97.4409 288.095 79.8623 288.095 79.8623Z" fill="#E58A7B"/>
<path d="M282.729 262.878C282.354 262.908 281.98 262.806 281.672 262.59C281.576 262.504 281.505 262.394 281.465 262.273C281.425 262.151 281.417 262.02 281.442 261.895C281.447 261.816 281.473 261.74 281.517 261.675C281.561 261.61 281.622 261.558 281.694 261.525C282.315 261.207 284.052 262.309 284.251 262.434C284.273 262.448 284.29 262.468 284.3 262.492C284.309 262.516 284.31 262.543 284.303 262.567C284.297 262.593 284.284 262.617 284.266 262.636C284.248 262.656 284.225 262.67 284.2 262.678C283.718 262.797 283.225 262.864 282.729 262.878ZM281.989 261.725C281.933 261.712 281.875 261.712 281.819 261.725C281.791 261.739 281.768 261.761 281.752 261.789C281.736 261.817 281.729 261.848 281.731 261.88C281.711 261.966 281.714 262.056 281.74 262.14C281.766 262.224 281.814 262.3 281.879 262.36C282.167 262.619 282.891 262.649 283.845 262.464C283.277 262.09 282.638 261.838 281.967 261.725H281.989Z" fill="#4CAF4F"/>
<path d="M284.163 262.678C284.144 262.684 284.123 262.684 284.104 262.678C283.549 262.368 282.507 261.148 282.662 260.527C282.685 260.429 282.741 260.341 282.82 260.278C282.899 260.215 282.997 260.18 283.098 260.18C283.197 260.166 283.298 260.175 283.394 260.204C283.49 260.233 283.578 260.283 283.653 260.35C284.266 260.875 284.303 262.486 284.303 262.567C284.307 262.592 284.302 262.616 284.29 262.638C284.278 262.659 284.259 262.676 284.237 262.686C284.212 262.691 284.186 262.688 284.163 262.678ZM283.172 260.424H283.12C282.95 260.424 282.928 260.52 282.921 260.557C282.832 260.919 283.49 261.843 284.037 262.279C284.035 261.655 283.841 261.046 283.483 260.535C283.397 260.46 283.286 260.42 283.172 260.424Z" fill="#4CAF4F"/>
<path d="M263.102 261.954C262.65 262.112 262.158 262.112 261.705 261.954C261.603 261.898 261.516 261.818 261.452 261.719C261.389 261.621 261.351 261.509 261.343 261.392C261.334 261.319 261.343 261.245 261.37 261.176C261.397 261.108 261.441 261.047 261.498 261C262.09 260.468 264.507 261 264.78 261.104C264.806 261.11 264.829 261.126 264.846 261.147C264.862 261.169 264.87 261.195 264.869 261.222C264.87 261.25 264.863 261.277 264.849 261.301C264.834 261.325 264.813 261.343 264.788 261.355C264.244 261.601 263.68 261.801 263.102 261.954ZM261.898 261.074C261.813 261.091 261.734 261.129 261.668 261.185C261.645 261.203 261.627 261.227 261.616 261.254C261.606 261.282 261.603 261.311 261.609 261.34C261.614 261.418 261.638 261.493 261.68 261.559C261.721 261.625 261.778 261.679 261.846 261.717C262.238 261.924 263.147 261.762 264.322 261.266C263.53 261.067 262.711 261.002 261.898 261.074Z" fill="#4CAF4F"/>
<path d="M264.766 261.355H264.707C263.967 261.222 262.489 260.372 262.445 259.736C262.445 259.588 262.511 259.381 262.866 259.263C262.986 259.22 263.113 259.202 263.24 259.21C263.367 259.218 263.491 259.251 263.605 259.307C264.403 259.699 264.825 261.119 264.847 261.185C264.852 261.207 264.852 261.231 264.845 261.253C264.839 261.275 264.827 261.295 264.81 261.311C264.799 261.329 264.784 261.344 264.766 261.355ZM263.014 259.485H262.94C262.711 259.566 262.711 259.662 262.711 259.692C262.711 260.076 263.783 260.778 264.529 261.015C264.357 260.421 263.993 259.901 263.494 259.537C263.346 259.461 263.175 259.443 263.014 259.485Z" fill="#4CAF4F"/>
<path d="M254.128 107.25L246.418 110.798L245.524 113.016L248.37 114.931C248.37 114.931 253.692 114.354 255.208 110.932L254.128 107.25Z" fill="#E58A7B"/>
<path d="M254.454 111.856C254.281 110.374 253.792 108.947 253.02 107.672L254.239 106.755C255.157 108.225 255.742 109.877 255.954 111.597L254.454 111.856Z" fill="#263238"/>
<path d="M255.769 108.3C255.932 108.556 256.012 108.857 255.999 109.16C255.985 109.464 255.878 109.755 255.693 109.996C255.507 110.237 255.252 110.414 254.962 110.505C254.672 110.595 254.361 110.594 254.072 110.501C253.782 110.409 253.528 110.23 253.345 109.988C253.161 109.746 253.056 109.453 253.044 109.15C253.033 108.846 253.115 108.546 253.28 108.291C253.445 108.036 253.684 107.838 253.966 107.723C254.282 107.562 254.648 107.533 254.986 107.641C255.324 107.749 255.605 107.985 255.769 108.3Z" fill="#263238"/>
<path d="M241.207 113.667L242.234 114.702L249.153 111.745L246.418 110.799L241.207 113.667Z" fill="#E58A7B"/>
<path opacity="0.2" d="M270.916 248.781C270.96 248.781 271.966 251.605 271.966 251.605L261.735 255.907L260.123 252.906L270.916 248.781Z" fill="black"/>
<path opacity="0.2" d="M291.828 252.366C291.873 252.366 292.168 255.212 292.168 255.212H280.962L280.164 251.945L291.828 252.366Z" fill="black"/>
<path d="M290.099 77.7334C292.132 84.2903 284.185 93.257 284.185 93.257L273.208 88.7773C274.509 84.9875 276.009 81.269 277.702 77.6373C281.073 70.3708 288.044 71.1174 290.099 77.7334Z" fill="#4CAF4F"/>
<path opacity="0.2" d="M290.099 77.7334C292.132 84.2903 284.185 93.257 284.185 93.257L273.208 88.7773C274.509 84.9875 276.009 81.269 277.702 77.6373C281.073 70.3708 288.044 71.1174 290.099 77.7334Z" fill="black"/>
<path d="M181.02 12.0388H176.296V12.8002H181.02V12.0388Z" fill="#4CAF4F"/>
<path d="M242.166 42.1742L241.595 54.8611L242.355 54.8954L242.927 42.2085L242.166 42.1742Z" fill="#4CAF4F"/>
<path d="M240.697 15.4541H153.469L145.352 197.095H232.58L240.697 15.4541Z" fill="#4CAF4F"/>
<path opacity="0.56" d="M238.095 17.9526H150.867L142.75 199.593H229.978L238.095 17.9526Z" fill="#FAFAFA"/>
<path opacity="0.07" d="M235.493 20.4438H148.265L140.141 202.084H227.369L235.493 20.4438Z" fill="#4CAF4F"/>
<path d="M225.565 99.6658H151.111L150.49 113.563H224.944L225.565 99.6658Z" fill="white"/>
<path d="M192.056 89.5237H151.562L151.288 95.7405H191.783L192.056 89.5237Z" fill="#4CAF4F"/>
<path d="M223.887 137.174H149.433L148.812 151.071H223.266L223.887 137.174Z" fill="white"/>
<path opacity="0.47" d="M210.234 169.84H160.166L159.42 186.494H209.487L210.234 169.84Z" fill="#4CAF4F"/>
<path d="M206.885 189.081H156.818C156.796 189.087 156.773 189.087 156.751 189.081C156.744 189.06 156.744 189.036 156.751 189.015L157.49 172.353C157.49 172.342 157.493 172.33 157.497 172.32C157.502 172.31 157.508 172.3 157.517 172.293C157.525 172.285 157.535 172.279 157.546 172.276C157.556 172.272 157.568 172.271 157.579 172.272H207.646C207.655 172.267 207.666 172.265 207.676 172.265C207.686 172.265 207.696 172.267 207.705 172.272C207.711 172.281 207.713 172.291 207.713 172.301C207.713 172.312 207.711 172.322 207.705 172.331L206.981 189.03C206.972 189.047 206.958 189.061 206.941 189.07C206.924 189.08 206.904 189.084 206.885 189.081ZM156.906 188.904H206.796L207.535 172.419H157.646L156.906 188.904Z" fill="white"/>
<path d="M183.311 127.031H149.884L149.61 133.256H183.03L183.311 127.031Z" fill="#4CAF4F"/>
<path d="M209.28 54.773C209.089 58.8176 207.651 62.7038 205.163 65.8983C203.321 68.3112 200.951 70.27 198.234 71.6245C195.517 72.9789 192.527 73.693 189.491 73.7118C187.038 73.7305 184.607 73.2468 182.348 72.2905C180.089 71.3342 178.05 69.9255 176.356 68.1513C174.662 66.377 173.35 64.2747 172.499 61.9739C171.648 59.6731 171.278 57.2225 171.41 54.773C171.67 49.6902 173.862 44.8986 177.537 41.3783C181.213 37.8579 186.095 35.8748 191.184 35.8343C193.639 35.8114 196.072 36.2921 198.334 37.2468C200.596 38.2014 202.637 39.6098 204.333 41.3847C206.029 43.1596 207.343 45.2635 208.194 47.5662C209.045 49.869 209.415 52.3218 209.28 54.773Z" fill="white"/>
<path d="M211.062 39.7964C211.013 40.8718 210.631 41.9055 209.967 42.7533C209.477 43.3942 208.846 43.9144 208.123 44.2744C207.401 44.6344 206.606 44.8246 205.798 44.8305C205.016 44.8352 204.245 44.6484 203.552 44.2863C202.858 43.9242 202.264 43.3979 201.821 42.7533C201.235 41.8822 200.944 40.8454 200.993 39.7964C201.065 38.4469 201.648 37.1755 202.625 36.2414C203.602 35.3074 204.898 34.781 206.249 34.7697C206.901 34.7638 207.547 34.8914 208.148 35.1447C208.749 35.398 209.291 35.7716 209.742 36.2426C210.193 36.7135 210.543 37.2718 210.77 37.883C210.997 38.4942 211.096 39.1454 211.062 39.7964Z" fill="#4CAF4F"/>
<path d="M159.131 106.614C159.096 107.21 158.836 107.77 158.404 108.182C157.972 108.593 157.4 108.826 156.803 108.832C156.515 108.836 156.229 108.78 155.963 108.668C155.698 108.557 155.458 108.392 155.258 108.184C155.058 107.977 154.904 107.73 154.803 107.46C154.703 107.19 154.659 106.902 154.674 106.614C154.706 106.018 154.965 105.455 155.398 105.043C155.831 104.631 156.405 104.4 157.002 104.397C157.29 104.394 157.576 104.451 157.841 104.563C158.106 104.674 158.346 104.839 158.545 105.047C158.744 105.254 158.899 105.501 159 105.77C159.101 106.04 159.146 106.327 159.131 106.614Z" fill="#263238"/>
<path d="M169.096 106.614C169.062 107.211 168.803 107.772 168.37 108.184C167.938 108.595 167.365 108.827 166.768 108.832C166.48 108.834 166.195 108.778 165.93 108.666C165.665 108.554 165.426 108.389 165.228 108.182C165.029 107.974 164.875 107.728 164.775 107.458C164.675 107.189 164.631 106.901 164.646 106.614C164.678 106.019 164.936 105.458 165.367 105.046C165.798 104.633 166.371 104.401 166.967 104.397C167.255 104.393 167.541 104.449 167.807 104.56C168.072 104.672 168.313 104.836 168.512 105.044C168.712 105.252 168.866 105.499 168.967 105.769C169.067 106.039 169.111 106.327 169.096 106.614Z" fill="#263238"/>
<path d="M179.068 106.614C179.034 107.211 178.775 107.772 178.342 108.184C177.91 108.595 177.337 108.827 176.74 108.832C176.452 108.834 176.167 108.778 175.901 108.666C175.636 108.554 175.396 108.39 175.197 108.182C174.998 107.974 174.843 107.728 174.742 107.459C174.641 107.189 174.597 106.902 174.611 106.614C174.644 106.018 174.904 105.457 175.336 105.045C175.769 104.633 176.342 104.401 176.939 104.397C177.227 104.393 177.513 104.449 177.779 104.56C178.045 104.672 178.285 104.836 178.484 105.044C178.684 105.252 178.838 105.499 178.939 105.769C179.039 106.039 179.083 106.327 179.068 106.614Z" fill="#263238"/>
<path d="M157.453 144.122C157.418 144.718 157.158 145.278 156.726 145.69C156.294 146.101 155.722 146.333 155.125 146.34C154.837 146.342 154.552 146.286 154.287 146.174C154.021 146.062 153.782 145.898 153.582 145.69C153.383 145.482 153.228 145.236 153.127 144.967C153.027 144.697 152.982 144.41 152.996 144.122C153.03 143.526 153.289 142.965 153.722 142.553C154.154 142.141 154.727 141.909 155.324 141.905C155.612 141.902 155.898 141.959 156.163 142.07C156.428 142.182 156.668 142.347 156.867 142.555C157.066 142.762 157.221 143.008 157.322 143.278C157.423 143.547 157.468 143.835 157.453 144.122Z" fill="#263238"/>
<path d="M167.418 144.122C167.384 144.717 167.126 145.277 166.695 145.689C166.264 146.101 165.693 146.333 165.097 146.34C164.809 146.343 164.523 146.288 164.257 146.176C163.992 146.065 163.752 145.9 163.552 145.692C163.352 145.484 163.198 145.238 163.097 144.968C162.997 144.698 162.953 144.41 162.968 144.122C163.002 143.526 163.261 142.965 163.694 142.553C164.126 142.141 164.699 141.909 165.297 141.905C165.584 141.902 165.869 141.959 166.134 142.07C166.399 142.182 166.638 142.347 166.837 142.555C167.035 142.763 167.189 143.009 167.289 143.278C167.389 143.548 167.433 143.835 167.418 144.122Z" fill="#263238"/>
<path d="M177.412 144.122C177.379 144.719 177.119 145.28 176.687 145.692C176.254 146.103 175.681 146.335 175.084 146.34C174.796 146.341 174.511 146.284 174.247 146.172C173.982 146.06 173.743 145.895 173.544 145.688C173.345 145.48 173.19 145.235 173.089 144.966C172.987 144.696 172.942 144.41 172.955 144.122C172.99 143.527 173.25 142.967 173.682 142.555C174.115 142.144 174.687 141.911 175.283 141.905C175.571 141.901 175.857 141.957 176.123 142.068C176.389 142.18 176.629 142.344 176.828 142.552C177.028 142.76 177.183 143.007 177.283 143.277C177.383 143.547 177.427 143.835 177.412 144.122Z" fill="#263238"/>
<path d="M187.362 144.122C187.327 144.718 187.067 145.278 186.635 145.69C186.202 146.101 185.63 146.333 185.034 146.34C184.746 146.341 184.461 146.284 184.197 146.172C183.932 146.06 183.693 145.895 183.494 145.688C183.295 145.48 183.14 145.235 183.038 144.965C182.937 144.696 182.892 144.409 182.905 144.122C182.94 143.527 183.2 142.967 183.632 142.555C184.064 142.143 184.637 141.911 185.233 141.905C185.521 141.902 185.806 141.959 186.072 142.07C186.337 142.182 186.576 142.347 186.776 142.555C186.975 142.762 187.13 143.008 187.231 143.278C187.332 143.547 187.376 143.835 187.362 144.122Z" fill="#263238"/>
<path d="M197.371 144.122C197.336 144.718 197.076 145.278 196.644 145.69C196.211 146.101 195.639 146.333 195.043 146.34C194.755 146.343 194.469 146.288 194.203 146.176C193.937 146.065 193.697 145.9 193.498 145.692C193.298 145.484 193.143 145.238 193.043 144.968C192.943 144.698 192.899 144.41 192.914 144.122C192.947 143.526 193.207 142.965 193.639 142.553C194.072 142.141 194.645 141.909 195.242 141.905C195.53 141.902 195.815 141.959 196.081 142.07C196.346 142.182 196.585 142.347 196.785 142.555C196.984 142.762 197.139 143.008 197.24 143.278C197.341 143.547 197.385 143.835 197.371 144.122Z" fill="#263238"/>
<path d="M195.858 53.7866C198.952 50.7609 199.116 45.9111 196.225 42.9543C193.333 39.9975 188.481 40.0533 185.387 43.0789C182.293 46.1046 182.129 50.9544 185.021 53.9112C187.912 56.868 192.764 56.8122 195.858 53.7866Z" fill="#4CAF4F"/>
<path d="M205.163 65.8981C203.321 68.311 200.951 70.2699 198.234 71.6243C195.517 72.9788 192.527 73.6928 189.491 73.7117C186.548 73.7366 183.643 73.0369 181.034 71.6743C178.425 70.3117 176.191 68.328 174.529 65.8981C178.122 62.3203 183.807 59.9844 190.105 59.9844C196.403 59.9844 201.888 62.3203 205.163 65.8981Z" fill="#4CAF4F"/>
<path opacity="0.1" d="M195.858 53.7866C198.952 50.7609 199.116 45.9111 196.225 42.9543C193.333 39.9975 188.481 40.0533 185.387 43.0789C182.293 46.1046 182.129 50.9544 185.021 53.9112C187.912 56.868 192.764 56.8122 195.858 53.7866Z" fill="white"/>
<path opacity="0.1" d="M205.163 65.8981C203.321 68.311 200.951 70.2699 198.234 71.6243C195.517 72.9788 192.527 73.6928 189.491 73.7117C186.548 73.7366 183.643 73.0369 181.034 71.6743C178.425 70.3117 176.191 68.328 174.529 65.8981C178.122 62.3203 183.807 59.9844 190.105 59.9844C196.403 59.9844 201.888 62.3203 205.163 65.8981Z" fill="white"/>
<path d="M96.4014 116.912C95.6992 118.449 94.9599 120.142 94.3168 121.783C93.6737 123.424 93.0158 125.117 92.4466 126.803C91.2844 130.124 90.3993 133.536 89.8002 137.004L89.6376 138.09C89.6221 138.277 89.6396 138.465 89.6893 138.645C89.8638 139.258 90.1385 139.837 90.5025 140.36C91.4518 141.713 92.553 142.953 93.7846 144.056C95.0831 145.264 96.4452 146.401 97.8651 147.464C99.2844 148.558 100.778 149.622 102.249 150.628L100.866 153.222C97.3537 151.692 94.0196 149.781 90.9238 147.523C89.2722 146.318 87.7816 144.907 86.4885 143.324C85.722 142.382 85.1243 141.314 84.7218 140.168C84.4877 139.452 84.368 138.703 84.3669 137.95C84.3669 137.773 84.3669 137.514 84.3669 137.388V137.026L84.4409 136.287C84.8647 132.435 85.6745 128.636 86.8581 124.947C87.4347 123.129 88.0482 121.318 88.7505 119.551C89.4528 117.784 90.1772 116.054 91.0717 114.258L96.4014 116.912Z" fill="#E58A7B"/>
<path d="M101.206 150.169L106.433 147.523L105.08 153.259C105.08 153.259 101.495 154.265 99.8314 152.52L101.206 150.169Z" fill="#E58A7B"/>
<path d="M111.215 148.462L109.826 153.208L105.08 153.259L106.433 147.523L111.215 148.462Z" fill="#E58A7B"/>
<path d="M118.593 89.2356C118.872 90.26 119.261 91.2514 119.753 92.1925C119.61 92.3554 119.424 92.4765 119.218 92.5429C119.011 92.6093 118.79 92.6184 118.578 92.5695L118.593 89.2356Z" fill="#DF5753"/>
<path d="M118.438 89.2798C118.744 89.2798 118.992 88.8992 118.992 88.4297C118.992 87.9602 118.744 87.5796 118.438 87.5796C118.131 87.5796 117.883 87.9602 117.883 88.4297C117.883 88.8992 118.131 89.2798 118.438 89.2798Z" fill="#263238"/>
<path d="M118.275 87.6094L119.398 87.2915C119.398 87.2915 118.851 88.1638 118.275 87.6094Z" fill="#263238"/>
<path d="M104.156 94.6614C104.828 98.0987 105.501 104.404 103.091 106.703C103.091 106.703 104.038 110.192 110.432 110.192C117.462 110.192 113.788 106.703 113.788 106.703C109.951 105.787 110.047 102.941 110.72 100.265L104.156 94.6614Z" fill="#E58A7B"/>
<path d="M102.286 86.8256C102.64 92.5693 102.67 95.0088 105.568 97.9582C109.936 102.394 116.915 100.708 118.282 95.0014C119.517 89.8268 118.733 81.311 113.108 79.0269C111.873 78.5182 110.529 78.3329 109.202 78.4886C107.876 78.6443 106.611 79.1357 105.528 79.9165C104.444 80.6973 103.578 81.7416 103.011 82.9506C102.443 84.1595 102.194 85.4933 102.286 86.8256Z" fill="#E58A7B"/>
<path d="M102.855 80.3649C99.9718 81.4146 96.1279 80.631 97.6359 89.5238C99.2326 98.9415 96.7784 102.039 96.7784 102.039C96.7784 102.039 107.711 104.367 118.874 101.898C118.874 101.898 115.466 95.9402 116.419 91.5493C117.639 86.0051 116.678 83.9575 116.678 83.9575C116.678 83.9575 106.906 78.8865 102.855 80.3649Z" fill="#263238"/>
<path d="M115.052 89.8194C115.055 90.9115 115.368 91.9804 115.954 92.902C116.737 94.0995 117.661 93.6412 117.89 92.3697C118.097 91.2535 117.942 89.2798 116.944 88.511C115.946 87.7422 115.067 88.4962 115.052 89.8194Z" fill="#E58A7B"/>
<path d="M100.349 81.3333C99.5209 79.0048 103.468 75.4196 111.821 76.898C120.175 78.3764 120.537 85.3325 120.537 85.3325L118.851 83.3218L118.925 85.436L110.343 87.0844L100.349 81.3333Z" fill="#263238"/>
<path d="M101.058 107.095C101.009 106.757 101.094 106.414 101.294 106.138C101.494 105.862 101.794 105.675 102.13 105.617C104.732 105.188 110.646 104.316 113.618 104.729C115.835 105.04 116.412 106.326 116.508 107.383C116.523 107.568 116.498 107.755 116.436 107.929C116.373 108.104 116.273 108.263 116.144 108.396C116.014 108.529 115.857 108.633 115.684 108.701C115.511 108.768 115.326 108.798 115.141 108.788L102.293 108.211C101.99 108.196 101.702 108.076 101.477 107.873C101.252 107.67 101.104 107.395 101.058 107.095Z" fill="#4CAF4F"/>
<path opacity="0.6" d="M101.058 107.095C101.009 106.757 101.094 106.414 101.294 106.138C101.494 105.862 101.794 105.675 102.13 105.617C104.732 105.188 110.646 104.316 113.618 104.729C115.835 105.04 116.412 106.326 116.508 107.383C116.523 107.568 116.498 107.755 116.436 107.929C116.373 108.104 116.273 108.263 116.144 108.396C116.014 108.529 115.857 108.633 115.684 108.701C115.511 108.768 115.326 108.798 115.141 108.788L102.293 108.211C101.99 108.196 101.702 108.076 101.477 107.873C101.252 107.67 101.104 107.395 101.058 107.095Z" fill="black"/>
<path d="M108.488 236.236L113.256 239.548L121.232 228.733L116.464 225.429L108.488 236.236Z" fill="#E58A7B"/>
<path d="M97.3698 236.022L102.404 238.89L109.463 227.455L104.429 224.586L97.3698 236.022Z" fill="#E58A7B"/>
<path d="M121.224 228.733L117.114 234.307L112.346 231.003L116.456 225.429L121.224 228.733Z" fill="#CF6F64"/>
<path d="M104.422 224.586L109.463 227.462L105.826 233.354L100.785 230.478L104.422 224.586Z" fill="#CF6F64"/>
<path d="M112.509 143.198C112.509 143.198 131.122 166.654 127.626 189.089C124.81 207.207 108.473 231.742 108.473 231.742L100.792 227.928C106.206 217.08 110.826 205.854 114.616 194.338C115.784 190.762 116.126 186.968 115.613 183.242C115.101 179.515 113.749 175.954 111.659 172.826C102.226 159.055 87.1168 167.253 97.2811 143.198H112.509Z" fill="#4CAF4F"/>
<path opacity="0.6" d="M112.509 143.198C112.509 143.198 131.122 166.654 127.626 189.089C124.81 207.207 108.473 231.742 108.473 231.742L100.792 227.928C106.206 217.08 110.826 205.854 114.616 194.338C115.784 190.762 116.126 186.968 115.613 183.242C115.101 179.515 113.749 175.954 111.659 172.826C102.226 159.055 87.1168 167.253 97.2811 143.198H112.509Z" fill="black"/>
<path opacity="0.4" d="M121.638 158.264L118.933 155.573C118.933 155.787 124.174 188.143 125.645 197.235C126.513 194.579 127.178 191.861 127.633 189.104C129.363 178.097 125.748 166.853 121.638 158.264Z" fill="black"/>
<path d="M120.818 143.198C120.818 143.198 143.231 172.679 143.867 190.353C144.391 205.138 119.472 233.782 119.472 233.782L112.228 229.096C112.228 229.096 126.813 208.752 130.487 192.135C129.067 175.665 99.0552 143.198 99.0552 143.198H120.818Z" fill="#4CAF4F"/>
<path opacity="0.6" d="M120.818 143.198C120.818 143.198 143.231 172.679 143.867 190.353C144.391 205.138 119.472 233.782 119.472 233.782L112.228 229.096C112.228 229.096 126.813 208.752 130.487 192.135C129.067 175.665 99.0552 143.198 99.0552 143.198H120.818Z" fill="black"/>
<path d="M93.0897 108.019C90.6946 108.588 88.3957 117.296 88.3957 117.296L97.7616 123.55C97.7616 123.55 100.881 116.661 99.787 113.645C98.656 110.503 96.0983 107.302 93.0897 108.019Z" fill="#4CAF4F"/>
<path opacity="0.2" d="M94.923 113.63L94.2725 121.221L97.7542 123.557C98.7155 121.393 99.4273 119.126 99.8757 116.801L94.923 113.63Z" fill="black"/>
<path d="M123.59 108.189C123.59 108.189 126.355 109.157 120.818 143.191H97.2663C97.6655 133.581 97.6729 127.667 93.0897 108.019C96.3874 107.339 99.7301 106.9 103.091 106.703C106.652 106.448 110.227 106.448 113.788 106.703C118.386 107.125 123.59 108.189 123.59 108.189Z" fill="#4CAF4F"/>
<path d="M125.985 113.63C126.517 115.108 127.079 116.697 127.67 118.228C128.262 119.758 128.824 121.332 129.422 122.885L131.233 127.527L131.692 128.687L131.928 129.264L132.039 129.552C132.039 129.604 132.039 129.604 132.039 129.597C131.904 129.406 131.727 129.249 131.522 129.138C131.229 128.966 130.9 128.867 130.561 128.85C130.279 128.841 129.999 128.894 129.74 129.005C129.4 129.161 129.4 129.227 129.407 129.22C129.469 129.17 129.524 129.113 129.57 129.05C129.979 128.512 130.333 127.935 130.627 127.327C130.975 126.647 131.307 125.923 131.64 125.191C132.29 123.713 132.889 122.182 133.488 120.637C134.087 119.092 134.656 117.533 135.21 115.958L136.896 111.242L139.742 111.981C139.18 115.352 138.456 118.634 137.583 121.975C137.162 123.639 136.667 125.287 136.105 126.95C135.824 127.786 135.513 128.614 135.159 129.464C134.789 130.386 134.333 131.272 133.798 132.11C133.602 132.392 133.384 132.659 133.148 132.908C132.77 133.316 132.312 133.641 131.803 133.862C131.35 134.056 130.86 134.147 130.368 134.128C129.817 134.108 129.281 133.947 128.809 133.662C128.252 133.315 127.79 132.835 127.463 132.265C127.352 132.073 127.256 131.881 127.19 131.74L127.049 131.46L126.768 130.883L126.207 129.737C125.467 128.2 124.728 126.647 124.085 125.087C123.442 123.528 122.762 121.946 122.126 120.357C121.49 118.767 120.921 117.178 120.382 115.463L125.985 113.63Z" fill="#E58A7B"/>
<path d="M123.59 108.189C126.421 108.862 129.607 117.23 129.607 117.23L121.187 124.393C121.187 124.393 115.739 115.271 116.841 112.262C117.987 109.128 119.894 107.309 123.59 108.189Z" fill="#4CAF4F"/>
<path d="M138.234 108.596L141.191 106.127L143.246 109.328L141.73 111.996C141.73 111.996 139.32 114.214 137.191 113.083C136.854 112.323 136.773 111.474 136.961 110.665C137.149 109.855 137.596 109.128 138.234 108.596Z" fill="#E58A7B"/>
<path d="M146.528 106.134L146.306 106.94L141.627 107.723L141.168 106.127L146.528 106.134Z" fill="#E58A7B"/>
<path d="M120.049 234.159L111.607 228.704L113.123 226.072L122.607 231.905L120.049 234.159Z" fill="#4CAF4F"/>
<path d="M105.708 238.506C104.967 238.415 104.256 238.163 103.624 237.767C103.597 237.758 103.575 237.741 103.559 237.718C103.543 237.696 103.534 237.669 103.534 237.641C103.534 237.613 103.543 237.586 103.559 237.564C103.575 237.541 103.597 237.524 103.624 237.515C103.853 237.441 105.841 236.828 106.418 237.301C106.483 237.355 106.532 237.425 106.56 237.504C106.589 237.584 106.596 237.669 106.58 237.752C106.57 237.885 106.526 238.013 106.452 238.124C106.379 238.236 106.278 238.326 106.159 238.388C106.021 238.463 105.866 238.504 105.708 238.506ZM104.045 237.693C104.969 238.166 105.708 238.336 106.063 238.158C106.14 238.116 106.205 238.054 106.252 237.979C106.298 237.904 106.325 237.818 106.329 237.73C106.329 237.611 106.329 237.56 106.263 237.53C105.952 237.279 104.843 237.471 104.03 237.693H104.045Z" fill="#263238"/>
<path d="M103.675 237.818C103.636 237.818 103.599 237.802 103.572 237.774C103.561 237.754 103.555 237.731 103.555 237.708C103.555 237.684 103.561 237.661 103.572 237.641C103.572 237.574 104.052 235.97 104.806 235.608C104.903 235.564 105.007 235.542 105.113 235.542C105.219 235.542 105.324 235.564 105.42 235.608C105.524 235.641 105.614 235.708 105.675 235.797C105.737 235.887 105.767 235.995 105.76 236.103C105.708 236.769 104.355 237.685 103.734 237.841L103.675 237.818ZM105.109 235.8C105.037 235.803 104.967 235.82 104.902 235.852C104.444 236.074 104.067 236.939 103.882 237.464C104.533 237.19 105.427 236.466 105.457 236.059C105.457 235.993 105.457 235.911 105.287 235.837C105.231 235.808 105.171 235.788 105.109 235.778V235.8Z" fill="#263238"/>
<path d="M116.257 241.699C115.421 241.699 114.261 240.627 113.625 239.969C113.609 239.947 113.6 239.92 113.6 239.892C113.6 239.864 113.609 239.837 113.625 239.814C113.64 239.79 113.661 239.771 113.685 239.758C113.71 239.745 113.738 239.739 113.766 239.74C114.061 239.74 116.626 240.125 116.989 240.849C117.027 240.914 117.047 240.988 117.047 241.063C117.047 241.139 117.027 241.213 116.989 241.278C116.934 241.391 116.852 241.488 116.75 241.56C116.648 241.633 116.529 241.678 116.405 241.692L116.257 241.699ZM114.113 240.073C115.044 240.975 115.865 241.477 116.331 241.418C116.412 241.408 116.49 241.377 116.557 241.329C116.624 241.282 116.678 241.218 116.715 241.145C116.732 241.119 116.74 241.09 116.74 241.06C116.74 241.03 116.732 241 116.715 240.975C116.523 240.576 115.155 240.235 114.113 240.073Z" fill="#263238"/>
<path d="M114.194 240.036C114.028 240.041 113.862 240.028 113.699 239.999C113.676 239.996 113.655 239.986 113.637 239.972C113.618 239.958 113.604 239.939 113.596 239.918C113.585 239.896 113.579 239.872 113.579 239.848C113.579 239.823 113.585 239.799 113.596 239.777C113.64 239.726 114.638 238.521 115.584 238.439C115.852 238.419 116.117 238.503 116.323 238.676C116.612 238.927 116.597 239.149 116.523 239.289C116.338 239.792 115.059 240.036 114.194 240.036ZM114.002 239.763C114.83 239.807 116.153 239.533 116.323 239.171C116.323 239.171 116.382 239.053 116.19 238.89C116.114 238.824 116.024 238.774 115.928 238.743C115.831 238.713 115.729 238.702 115.628 238.713C114.991 238.891 114.424 239.26 114.002 239.77V239.763Z" fill="#263238"/>
<path d="M103.875 237.02L97.6063 235.246C97.4983 235.213 97.3819 235.221 97.2796 235.269C97.1773 235.317 97.0962 235.401 97.0519 235.504L94.9377 240.258C94.8881 240.379 94.8648 240.51 94.8693 240.642C94.8739 240.773 94.9062 240.902 94.9642 241.02C95.0221 241.138 95.1044 241.242 95.2056 241.326C95.3068 241.41 95.4246 241.472 95.5513 241.507C97.769 242.084 98.8334 242.246 101.591 243.037C103.291 243.51 105.716 244.39 108.059 245.055C110.402 245.72 111.186 243.436 110.277 242.948C106.166 240.775 105.841 239.252 104.718 237.626C104.516 237.332 104.218 237.117 103.875 237.02Z" fill="#4CAF4F"/>
<path d="M113.795 239.104L108.443 235.408C108.353 235.342 108.241 235.312 108.129 235.323C108.017 235.334 107.913 235.385 107.837 235.468L104.289 239.282C104.202 239.381 104.138 239.496 104.1 239.622C104.061 239.747 104.05 239.879 104.067 240.009C104.084 240.14 104.128 240.265 104.197 240.376C104.266 240.488 104.358 240.583 104.466 240.657C106.351 241.921 107.327 242.431 109.685 244.065C111.164 245.07 114.024 247.302 116.02 248.692C118.016 250.082 119.502 248.175 118.792 247.421C115.614 244.028 114.919 241.899 114.394 239.969C114.303 239.619 114.091 239.313 113.795 239.104Z" fill="#4CAF4F"/>
<path d="M109.456 232.23L99.8092 227.432L100.807 224.815L111.112 229.872L109.456 232.23Z" fill="#4CAF4F"/>
<path d="M96.9115 141.809L96.0983 143.938C96.017 144.1 96.2092 144.27 96.4827 144.27H120.936C121.15 144.27 121.328 144.167 121.343 144.034L121.55 141.92C121.55 141.779 121.38 141.654 121.15 141.654H97.2959C97.224 141.647 97.1517 141.657 97.0848 141.684C97.0179 141.711 96.9585 141.754 96.9115 141.809Z" fill="#4CAF4F"/>
<path opacity="0.4" d="M96.9115 141.809L96.0983 143.938C96.017 144.1 96.2092 144.27 96.4827 144.27H120.936C121.15 144.27 121.328 144.167 121.343 144.034L121.55 141.92C121.55 141.779 121.38 141.654 121.15 141.654H97.2959C97.224 141.647 97.1517 141.657 97.0848 141.684C97.0179 141.711 96.9585 141.754 96.9115 141.809Z" fill="white"/>
<path d="M100.763 144.477H100.12C99.994 144.477 99.8979 144.411 99.9053 144.329L100.208 141.587C100.208 141.513 100.327 141.447 100.452 141.447H101.095C101.221 141.447 101.317 141.513 101.31 141.587L101.007 144.329C100.999 144.411 100.888 144.477 100.763 144.477Z" fill="#4CAF4F"/>
<path d="M115.843 144.477H115.207C115.081 144.477 114.985 144.411 114.993 144.329L115.288 141.587C115.288 141.513 115.414 141.447 115.54 141.447H116.175C116.301 141.447 116.405 141.513 116.39 141.587L116.094 144.329C116.057 144.411 115.976 144.477 115.843 144.477Z" fill="#4CAF4F"/>
<g style="mix-blend-mode:multiply">
<path d="M100.201 269.664C111.138 269.664 120.005 269.022 120.005 268.23C120.005 267.438 111.138 266.796 100.201 266.796C89.2637 266.796 80.3973 267.438 80.3973 268.23C80.3973 269.022 89.2637 269.664 100.201 269.664Z" fill="#F5F5F5"/>
</g>
<path d="M112.265 266.204C108.761 265.184 104.873 263.876 102.522 262.508C102.456 262.464 102.382 262.442 102.315 262.405V246.541H109.404C109.942 246.509 110.448 246.273 110.818 245.881C111.188 245.488 111.393 244.97 111.393 244.431C111.393 243.891 111.188 243.373 110.818 242.98C110.448 242.588 109.942 242.352 109.404 242.32H102.352V170.01H98.0942V242.32H91.0495C90.7618 242.303 90.4737 242.345 90.2029 242.443C89.932 242.542 89.6841 242.694 89.4744 242.892C89.2647 243.09 89.0977 243.328 88.9835 243.593C88.8693 243.857 88.8104 244.142 88.8104 244.431C88.8104 244.719 88.8693 245.004 88.9835 245.268C89.0977 245.533 89.2647 245.771 89.4744 245.969C89.6841 246.167 89.932 246.319 90.2029 246.418C90.4737 246.516 90.7618 246.558 91.0495 246.541H98.0942V262.382C98.0277 262.382 97.9612 262.442 97.8946 262.486C95.507 263.876 91.6482 265.184 88.1443 266.182C87.9077 266.254 87.7044 266.408 87.5714 266.616C87.4384 266.824 87.3845 267.074 87.4193 267.318C87.4541 267.563 87.5755 267.788 87.7614 267.951C87.9473 268.114 88.1854 268.205 88.4326 268.207H111.977C112.213 268.191 112.437 268.095 112.61 267.934C112.784 267.773 112.897 267.557 112.931 267.322C112.964 267.088 112.917 266.849 112.796 266.646C112.674 266.442 112.487 266.286 112.265 266.204Z" fill="#E0E0E0"/>
<path d="M113.352 162.647H87.0651C84.9503 162.647 83.2359 164.362 83.2359 166.476V174.29C83.2359 176.405 84.9503 178.119 87.0651 178.119H113.352C115.466 178.119 117.181 176.405 117.181 174.29V166.476C117.181 164.362 115.466 162.647 113.352 162.647Z" fill="#4CAF4F"/>
<path d="M86.8211 178.126V179.472C86.8211 180.581 88.0261 181.483 89.5045 181.483H110.942C112.42 181.483 113.625 180.581 113.625 179.472V178.126H86.8211Z" fill="#4CAF4F"/>
<path opacity="0.3" d="M86.8211 178.126V179.472C86.8211 180.581 88.0261 181.483 89.5045 181.483H110.942C112.42 181.483 113.625 180.581 113.625 179.472V178.126H86.8211Z" fill="white"/>
</svg>
