<svg width="48" height="49" viewBox="0 0 48 49" fill="none" xmlns="http://www.w3.org/2000/svg">
<path d="M40 42.4661V38.4661C40 36.3443 39.1571 34.3095 37.6569 32.8092C36.1566 31.3089 34.1217 30.4661 32 30.4661H30C29.4696 30.4661 28.9609 30.2554 28.5858 29.8803C28.2107 29.5052 28 28.9965 28 28.4661V18.4661C28 17.4052 27.5786 16.3878 26.8284 15.6376C26.0783 14.8875 25.0609 14.4661 24 14.4661C22.9391 14.4661 21.9217 14.8875 21.1716 15.6376C20.4214 16.3878 20 17.4052 20 18.4661V36.4661L15.2 30.0661C14.8274 29.5693 14.3443 29.1661 13.7889 28.8884C13.2334 28.6106 12.621 28.4661 12 28.4661H11.132C9.402 28.4661 8 29.8681 8 31.5981C8 32.1661 8.154 32.7241 8.446 33.2101L14 42.4661M24 8.46606V6.46606V8.46606ZM36 20.4661H38H36ZM10 20.4661H12H10ZM14.686 11.1521L13.272 9.73806L14.686 11.1521ZM33.314 11.1521L34.728 9.73806L33.314 11.1521Z" fill="#4CAF4F"/>
<path d="M40 42.4661V38.4661C40 36.3443 39.1571 34.3095 37.6569 32.8092C36.1566 31.3089 34.1217 30.4661 32 30.4661H30C29.4696 30.4661 28.9609 30.2554 28.5858 29.8803C28.2107 29.5052 28 28.9965 28 28.4661V18.4661C28 17.4052 27.5786 16.3878 26.8284 15.6376C26.0783 14.8875 25.0609 14.4661 24 14.4661V14.4661C22.9391 14.4661 21.9217 14.8875 21.1716 15.6376C20.4214 16.3878 20 17.4052 20 18.4661V36.4661L15.2 30.0661C14.8274 29.5693 14.3443 29.1661 13.7889 28.8884C13.2334 28.6106 12.621 28.4661 12 28.4661H11.132C9.402 28.4661 8 29.8681 8 31.5981C8 32.1661 8.154 32.7241 8.446 33.2101L14 42.4661M24 8.46606V6.46606M36 20.4661H38M10 20.4661H12M14.686 11.1521L13.272 9.73806M33.314 11.1521L34.728 9.73806" stroke="#4CAF4F" stroke-width="2" stroke-linecap="round" stroke-linejoin="round"/>
</svg>
