<svg width="268" height="144" viewBox="0 0 268 144" fill="none" xmlns="http://www.w3.org/2000/svg">
<path d="M166.5 38C166.5 47.9411 158.441 56 148.5 56L121.5 56C118.739 56 116.5 53.7614 116.5 51L116.5 17C116.5 11.4772 120.977 7 126.5 7L161.5 7C164.261 7 166.5 9.23858 166.5 12L166.5 38Z" fill="#E8F5E9"/>
<path d="M129.812 23.6446C129.571 23.6446 129.347 23.5784 129.149 23.4719V23.4748C129.149 23.8536 129.001 24.2094 128.734 24.4758C128.467 24.743 128.112 24.8903 127.733 24.8903C127.489 24.8903 127.262 24.8224 127.062 24.7131C127.041 25.0597 126.903 25.3836 126.656 25.631C126.389 25.8982 126.033 26.0454 125.654 26.0454C124.902 26.0454 124.291 25.4541 124.247 24.7129C124.014 24.8387 123.751 24.9046 123.48 24.8872C122.74 24.8387 122.16 24.1993 122.16 23.4312V17.0645L121.435 18.3205C121.159 18.8009 120.642 19.0991 120.086 19.0991C119.815 19.0991 119.547 19.028 119.309 18.892C119.014 18.7208 118.803 18.4458 118.715 18.1169C118.626 17.7878 118.672 17.4436 118.843 17.1486C118.843 17.1486 121.215 13.0414 121.36 12.7891C121.377 12.7512 121.426 12.6411 121.468 12.5474C121.507 12.4578 121.542 12.366 121.574 12.2736C122.29 10.2543 124.061 8.99998 126.197 8.99998C128.97 8.99998 131.227 11.4469 131.227 14.4546L131.227 22.2289C131.227 22.6073 131.08 22.9628 130.813 23.2302C130.546 23.4974 130.19 23.6447 129.812 23.6447L129.812 23.6446ZM126.197 9.75212C124.361 9.75212 122.898 10.7888 122.283 12.5251C122.244 12.6354 122.203 12.7457 122.155 12.8531C122.016 13.1643 122.016 13.1643 121.977 13.2091L121.972 13.2046C121.778 13.57 121.203 14.5663 119.494 17.525C119.424 17.6463 119.405 17.7872 119.441 17.922C119.478 18.0567 119.564 18.1703 119.685 18.2398C120.059 18.4544 120.57 18.3159 120.783 17.9448L122.211 15.4734C122.296 15.3261 122.468 15.2538 122.634 15.2986C122.798 15.3426 122.913 15.4918 122.913 15.6619V23.4314C122.913 23.798 123.189 24.1144 123.529 24.1368C123.725 24.1471 123.908 24.0814 124.045 23.9443C124.17 23.8194 124.239 23.6531 124.239 23.4752V18.3938C124.239 18.186 124.407 18.0176 124.615 18.0176C124.823 18.0176 124.991 18.1858 124.991 18.3938L124.991 24.6302C124.991 24.9958 125.289 25.2934 125.654 25.2934C125.832 25.2934 125.999 25.2246 126.124 25.0997C126.249 24.9746 126.318 24.8078 126.318 24.6302V18.3938C126.318 18.186 126.486 18.0176 126.694 18.0176C126.902 18.0176 127.07 18.1858 127.07 18.3938L127.07 23.4168V23.4752C127.07 23.8406 127.367 24.1381 127.733 24.1381C127.911 24.1381 128.077 24.0691 128.203 23.9438C128.328 23.8191 128.397 23.6528 128.397 23.4749V18.3936C128.397 18.1858 128.565 18.0173 128.773 18.0173C128.981 18.0173 129.149 18.1855 129.149 18.3936L129.149 22.2291C129.149 22.595 129.446 22.8925 129.812 22.8925C129.989 22.8925 130.156 22.8235 130.281 22.6989C130.406 22.5736 130.475 22.4067 130.475 22.2291L130.475 14.4548C130.475 11.862 128.556 9.7522 126.197 9.7522L126.197 9.75212Z" fill="#103E13"/>
<path d="M115.029 29.048L120.489 25.7727C121.147 25.3774 121.994 25.5454 122.416 26.1553C122.57 26.3775 122.649 26.6364 122.661 26.9001C122.865 26.7938 123.086 26.7361 123.312 26.7361C123.427 26.7361 123.543 26.7505 123.658 26.779C124.024 26.8706 124.333 27.0999 124.528 27.424C124.722 27.7487 124.779 28.1291 124.688 28.4955C124.603 28.8346 124.397 29.1199 124.11 29.3157C124.311 29.4339 124.484 29.5953 124.607 29.8008C124.801 30.1254 124.858 30.5057 124.767 30.8725C124.675 31.2389 124.446 31.548 124.121 31.7429L124.119 31.744C124.316 31.8621 124.486 32.0218 124.608 32.2242C124.802 32.5488 124.859 32.9293 124.767 33.2961C124.676 33.6627 124.446 33.9718 124.122 34.1664L117.456 38.1657C116.212 38.9119 114.773 39.1694 113.406 38.8902C112.027 38.6084 110.885 37.8157 110.19 36.6579C109.091 34.8261 109.256 32.6619 110.619 31.0101C110.682 30.9347 110.743 30.8579 110.799 30.7783C110.858 30.6942 110.927 30.5952 110.951 30.5613C111.092 30.3092 113.395 26.1603 113.395 26.1608C113.627 25.7412 114.063 25.5037 114.512 25.5039C114.722 25.5039 114.935 25.5555 115.131 25.6644C115.368 25.7968 115.567 25.9898 115.707 26.2223C115.993 26.6994 116.003 27.2964 115.733 27.7796L115.029 29.048ZM115.062 26.6091C114.989 26.4873 114.888 26.3902 114.766 26.3214C114.512 26.181 114.192 26.2724 114.053 26.5252C112.405 29.4937 111.843 30.5054 111.627 30.8654L111.632 30.8666C111.613 30.9269 111.613 30.9269 111.415 31.2103C111.348 31.3062 111.274 31.3983 111.2 31.489C110.027 32.9094 109.891 34.6969 110.835 36.2709C111.42 37.2458 112.386 37.9142 113.557 38.1531C114.739 38.3937 115.986 38.1699 117.068 37.5206L123.735 33.5211C123.888 33.4299 123.995 33.285 124.038 33.1133C124.081 32.9417 124.054 32.7634 123.963 32.6112C123.775 32.2979 123.366 32.1949 123.053 32.3836L119.764 34.3568C119.586 34.4637 119.355 34.4062 119.248 34.2279C119.141 34.0498 119.199 33.8187 119.377 33.7117L122.666 31.7386L123.734 31.0977C123.886 31.0063 123.994 30.8614 124.037 30.6901C124.08 30.5184 124.053 30.3398 123.962 30.1878C123.774 29.8743 123.365 29.7723 123.052 29.9603L118.695 32.5742C118.516 32.6814 118.286 32.6235 118.179 32.4454C118.072 32.2673 118.13 32.0361 118.307 31.9292L123.655 28.7211C123.808 28.6296 123.915 28.485 123.958 28.3132C124.001 28.1417 123.974 27.9634 123.883 27.8112C123.792 27.6592 123.647 27.5518 123.475 27.5089C123.302 27.466 123.125 27.4927 122.973 27.5836L121.983 28.1775C121.983 28.1775 121.983 28.1778 121.983 28.1778H121.982L117.625 30.7917C117.447 30.8992 117.216 30.8412 117.109 30.6629C117.002 30.4848 117.06 30.2536 117.238 30.1467L121.595 27.5327C121.747 27.4413 121.855 27.2964 121.898 27.1251C121.945 26.9371 121.909 26.7449 121.798 26.5837C121.604 26.3036 121.19 26.2291 120.876 26.4179L114.214 30.4146C114.068 30.5017 113.881 30.4805 113.759 30.3625C113.636 30.2442 113.609 30.0583 113.691 29.9097L115.076 27.4137C115.215 27.1642 115.21 26.8561 115.062 26.6092L115.062 26.6091Z" fill="#103E13"/>
<path d="M141.118 36.6576C140.424 37.8156 139.282 38.6081 137.902 38.8899C136.535 39.1686 135.097 38.9116 133.853 38.1655L127.186 34.166C126.862 33.9714 126.632 33.6623 126.54 33.2952C126.449 32.9288 126.506 32.5483 126.7 32.2241C126.822 32.0215 126.992 31.8618 127.189 31.7437L127.187 31.7426C126.863 31.548 126.633 31.2389 126.542 30.8723C126.45 30.5057 126.507 30.1249 126.702 29.8003C126.827 29.5918 126.999 29.4288 127.195 29.3131C126.91 29.1173 126.705 28.8329 126.621 28.4956C126.529 28.1287 126.586 27.7482 126.781 27.424C126.975 27.0996 127.284 26.8704 127.651 26.7787C127.765 26.75 127.881 26.7359 127.996 26.7359C128.222 26.7361 128.444 26.7933 128.647 26.8998C128.66 26.6362 128.738 26.3773 128.892 26.1551C129.315 25.5456 130.161 25.3769 130.82 25.7725L136.28 29.0473L135.576 27.7798C135.306 27.2958 135.316 26.6988 135.602 26.2215C135.742 25.9892 135.941 25.7963 136.179 25.6627C136.375 25.5543 136.587 25.5029 136.796 25.5029C137.245 25.5032 137.682 25.7402 137.914 26.1598C138.723 27.6184 140.251 30.3692 140.358 30.5613C140.381 30.5945 140.45 30.6934 140.51 30.7776C140.566 30.8574 140.627 30.9338 140.69 31.0096C142.053 32.6621 142.217 34.8261 141.118 36.6576L141.118 36.6576ZM140.109 31.4891C140.034 31.3984 139.961 31.3058 139.894 31.2104C139.69 30.9215 139.685 30.914 139.67 30.8384C139.432 30.4447 138.851 29.3996 137.256 26.5248C137.116 26.2725 136.798 26.1803 136.544 26.3203C136.42 26.39 136.319 26.4873 136.246 26.6091C136.099 26.8558 136.093 27.164 136.233 27.4142L137.617 29.9094C137.7 30.0583 137.673 30.244 137.55 30.3622C137.428 30.4807 137.242 30.5015 137.095 30.4143L130.433 26.4176C130.119 26.2293 129.705 26.3031 129.511 26.5834C129.399 26.7446 129.364 26.9368 129.41 27.1246C129.453 27.2961 129.561 27.4408 129.713 27.5322C129.714 27.5324 129.714 27.5329 129.714 27.5331L134.07 30.1464C134.248 30.2533 134.306 30.4842 134.199 30.6626C134.092 30.8405 133.862 30.8986 133.683 30.7914L128.335 27.5833C128.183 27.4924 128.005 27.4655 127.833 27.5087C127.661 27.5515 127.517 27.659 127.426 27.8114C127.334 27.9634 127.308 28.1417 127.35 28.3132C127.393 28.4847 127.501 28.6296 127.653 28.721L128.694 29.3452L133 31.9292C133.179 32.0362 133.236 32.2671 133.129 32.4454C133.022 32.6233 132.792 32.6812 132.613 32.5743L128.256 29.9603C127.943 29.7718 127.535 29.8741 127.346 30.1879C127.255 30.3401 127.229 30.5184 127.271 30.6899C127.314 30.8615 127.422 31.0061 127.574 31.0978L128.642 31.7386L131.931 33.7117C132.109 33.8187 132.167 34.0496 132.06 34.2279C131.953 34.4058 131.722 34.4642 131.544 34.3568L128.255 32.3837C128.103 32.2927 127.925 32.2659 127.753 32.309C127.581 32.3519 127.436 32.4593 127.345 32.6112C127.254 32.7634 127.227 32.942 127.27 33.1133C127.312 33.2848 127.42 33.4295 127.573 33.5211L134.24 37.5206C135.321 38.1697 136.569 38.3944 137.751 38.1532C138.921 37.9143 139.888 37.2459 140.473 36.271C141.418 34.6967 141.282 32.909 140.109 31.4891L140.109 31.4891Z" fill="#103E13"/>
<path d="M82.6025 86.7656H78.2473C78.1678 86.2022 78.0054 85.7017 77.7601 85.2642C77.5149 84.8201 77.2 84.4422 76.8155 84.1307C76.431 83.8191 75.9869 83.5805 75.4831 83.4148C74.986 83.2491 74.4457 83.1662 73.8624 83.1662C72.8084 83.1662 71.8903 83.428 71.1081 83.9517C70.3259 84.4687 69.7194 85.2244 69.2885 86.2188C68.8577 87.2064 68.6422 88.4062 68.6422 89.8182C68.6422 91.2699 68.8577 92.4896 69.2885 93.4773C69.726 94.465 70.3359 95.2107 71.1181 95.7145C71.9003 96.2183 72.8051 96.4702 73.8326 96.4702C74.4093 96.4702 74.9429 96.3939 75.4334 96.2415C75.9306 96.089 76.3714 95.867 76.7559 95.5753C77.1403 95.277 77.4585 94.9157 77.7104 94.4915C77.9689 94.0672 78.1479 93.5833 78.2473 93.0398L82.6025 93.0597C82.4898 93.9943 82.208 94.8958 81.7573 95.7642C81.3132 96.6259 80.7132 97.3982 79.9576 98.081C79.2085 98.7571 78.3136 99.294 77.2729 99.6918C76.2388 100.083 75.0688 100.278 73.763 100.278C71.9467 100.278 70.3226 99.8674 68.8908 99.0455C67.4656 98.2235 66.3387 97.0336 65.5101 95.4759C64.6882 93.9181 64.2772 92.0322 64.2772 89.8182C64.2772 87.5975 64.6948 85.7083 65.53 84.1506C66.3652 82.5928 67.4988 81.4062 68.9306 80.5909C70.3624 79.7689 71.9732 79.358 73.763 79.358C74.9429 79.358 76.0366 79.5237 77.0442 79.8551C78.0584 80.1866 78.9566 80.6705 79.7388 81.3068C80.521 81.9366 81.1574 82.7088 81.6479 83.6236C82.1451 84.5384 82.4632 85.5857 82.6025 86.7656ZM89.8461 79.6364V100H85.6103V79.6364H89.8461ZM103.033 93.4972V84.7273H107.269V100H103.202V97.2259H103.043C102.698 98.1207 102.125 98.84 101.323 99.3835C100.528 99.9271 99.5564 100.199 98.4096 100.199C97.3888 100.199 96.4906 99.9669 95.715 99.5028C94.9395 99.0388 94.3329 98.3793 93.8954 97.5241C93.4645 96.669 93.2458 95.6449 93.2392 94.4517V84.7273H97.475V93.696C97.4816 94.5975 97.7235 95.3101 98.2008 95.8338C98.6781 96.3575 99.3178 96.6193 100.12 96.6193C100.63 96.6193 101.108 96.5033 101.552 96.2713C101.996 96.0327 102.354 95.6813 102.626 95.2173C102.904 94.7533 103.04 94.1799 103.033 93.4972ZM110.737 100V79.6364H114.972V87.2926H115.102C115.287 86.8816 115.556 86.464 115.907 86.0398C116.265 85.6089 116.729 85.2509 117.299 84.9659C117.876 84.6742 118.592 84.5284 119.447 84.5284C120.561 84.5284 121.588 84.8201 122.529 85.4034C123.471 85.9801 124.223 86.8518 124.786 88.0185C125.35 89.1785 125.632 90.6335 125.632 92.3835C125.632 94.0871 125.356 95.5256 124.806 96.6989C124.263 97.8655 123.52 98.7505 122.579 99.3537C121.644 99.9503 120.597 100.249 119.437 100.249C118.615 100.249 117.916 100.113 117.339 99.8409C116.769 99.5691 116.302 99.2277 115.937 98.8168C115.572 98.3991 115.294 97.9782 115.102 97.554H114.913V100H110.737ZM114.883 92.3636C114.883 93.2718 115.009 94.0639 115.261 94.7401C115.513 95.4162 115.877 95.9432 116.355 96.321C116.832 96.6922 117.412 96.8778 118.095 96.8778C118.784 96.8778 119.367 96.6889 119.845 96.3111C120.322 95.9266 120.683 95.3963 120.928 94.7202C121.18 94.0374 121.306 93.2519 121.306 92.3636C121.306 91.482 121.184 90.7064 120.938 90.0369C120.693 89.3674 120.332 88.8437 119.855 88.4659C119.377 88.0881 118.791 87.8991 118.095 87.8991C117.405 87.8991 116.822 88.0814 116.345 88.446C115.874 88.8106 115.513 89.3277 115.261 89.9972C115.009 90.6667 114.883 91.4555 114.883 92.3636ZM141.165 89.0824L137.287 89.321C137.221 88.9896 137.079 88.6913 136.86 88.4261C136.641 88.1544 136.353 87.9389 135.995 87.7798C135.644 87.6141 135.223 87.5312 134.732 87.5312C134.076 87.5312 133.522 87.6705 133.072 87.9489C132.621 88.2206 132.395 88.5852 132.395 89.0426C132.395 89.4072 132.541 89.7154 132.833 89.9673C133.125 90.2192 133.625 90.4214 134.334 90.5739L137.099 91.1307C138.583 91.4356 139.69 91.9261 140.42 92.6023C141.149 93.2784 141.513 94.1667 141.513 95.267C141.513 96.268 141.218 97.1463 140.628 97.902C140.045 98.6577 139.243 99.2476 138.222 99.6719C137.208 100.089 136.038 100.298 134.712 100.298C132.69 100.298 131.08 99.8774 129.88 99.0355C128.687 98.187 127.987 97.0336 127.782 95.5753L131.948 95.3565C132.074 95.973 132.379 96.4437 132.863 96.7685C133.347 97.0866 133.966 97.2457 134.722 97.2457C135.465 97.2457 136.061 97.1032 136.512 96.8182C136.969 96.5265 137.201 96.152 137.208 95.6946C137.201 95.3101 137.039 94.9953 136.721 94.75C136.403 94.4981 135.912 94.3059 135.249 94.1733L132.604 93.6463C131.113 93.348 130.002 92.831 129.273 92.0952C128.551 91.3594 128.189 90.4214 128.189 89.2812C128.189 88.3002 128.455 87.455 128.985 86.7457C129.522 86.0365 130.274 85.4896 131.242 85.1051C132.216 84.7206 133.357 84.5284 134.662 84.5284C136.591 84.5284 138.109 84.9361 139.216 85.7514C140.33 86.5668 140.98 87.6771 141.165 89.0824ZM154.251 100H149.637L156.667 79.6364H162.215L169.235 100H164.621L159.52 84.2898H159.361L154.251 100ZM153.962 91.9957H164.86V95.3565H153.962V91.9957ZM175.842 91.1705V100H171.606V84.7273H175.643V87.4219H175.822C176.16 86.5336 176.727 85.831 177.523 85.3139C178.318 84.7902 179.282 84.5284 180.416 84.5284C181.477 84.5284 182.401 84.7604 183.19 85.2244C183.979 85.6884 184.592 86.3513 185.03 87.2131C185.467 88.0682 185.686 89.089 185.686 90.2756V100H181.45V91.0312C181.457 90.0966 181.218 89.3674 180.734 88.8438C180.25 88.3134 179.584 88.0483 178.736 88.0483C178.166 88.0483 177.662 88.1709 177.224 88.4162C176.793 88.6615 176.455 89.0194 176.21 89.4901C175.971 89.9541 175.849 90.5142 175.842 91.1705ZM194.652 100.249C193.492 100.249 192.441 99.9503 191.5 99.3537C190.566 98.7505 189.823 97.8655 189.273 96.6989C188.729 95.5256 188.458 94.0871 188.458 92.3835C188.458 90.6335 188.739 89.1785 189.303 88.0185C189.866 86.8518 190.615 85.9801 191.55 85.4034C192.491 84.8201 193.522 84.5284 194.642 84.5284C195.497 84.5284 196.21 84.6742 196.78 84.9659C197.357 85.2509 197.821 85.6089 198.172 86.0398C198.53 86.464 198.802 86.8816 198.987 87.2926H199.117V79.6364H203.343V100H199.166V97.554H198.987C198.789 97.9782 198.507 98.3991 198.142 98.8168C197.784 99.2277 197.317 99.5691 196.74 99.8409C196.17 100.113 195.474 100.249 194.652 100.249ZM195.994 96.8778C196.677 96.8778 197.254 96.6922 197.725 96.321C198.202 95.9432 198.566 95.4162 198.818 94.7401C199.077 94.0639 199.206 93.2718 199.206 92.3636C199.206 91.4555 199.08 90.6667 198.828 89.9972C198.576 89.3277 198.212 88.8106 197.735 88.446C197.257 88.0814 196.677 87.8991 195.994 87.8991C195.298 87.8991 194.712 88.0881 194.235 88.4659C193.757 88.8437 193.396 89.3674 193.151 90.0369C192.905 90.7064 192.783 91.482 192.783 92.3636C192.783 93.2519 192.905 94.0374 193.151 94.7202C193.403 95.3963 193.764 95.9266 194.235 96.3111C194.712 96.6889 195.298 96.8778 195.994 96.8778ZM99.2337 122.219C99.0945 121.735 98.8989 121.307 98.647 120.936C98.3951 120.558 98.0869 120.24 97.7223 119.982C97.3643 119.716 96.9534 119.514 96.4893 119.375C96.032 119.236 95.5249 119.166 94.968 119.166C93.9273 119.166 93.0125 119.425 92.2237 119.942C91.4415 120.459 90.8317 121.211 90.3942 122.199C89.9567 123.18 89.7379 124.38 89.7379 125.798C89.7379 127.217 89.9534 128.423 90.3842 129.418C90.8151 130.412 91.425 131.171 92.2138 131.695C93.0026 132.212 93.9339 132.47 95.0078 132.47C95.9822 132.47 96.8142 132.298 97.5036 131.953C98.1996 131.602 98.7299 131.108 99.0945 130.472C99.4657 129.835 99.6513 129.083 99.6513 128.214L100.526 128.344H95.2763V125.102H103.798V127.668C103.798 129.457 103.42 130.995 102.664 132.281C101.908 133.561 100.868 134.548 99.5419 135.244C98.2161 135.934 96.6982 136.278 94.9879 136.278C93.0788 136.278 91.4018 135.857 89.9567 135.016C88.5116 134.167 87.3847 132.964 86.576 131.406C85.7739 129.842 85.3729 127.986 85.3729 125.838C85.3729 124.187 85.6115 122.716 86.0888 121.423C86.5727 120.124 87.2488 119.024 88.1172 118.122C88.9856 117.221 89.9964 116.535 91.1499 116.064C92.3033 115.593 93.5528 115.358 94.8984 115.358C96.0518 115.358 97.1257 115.527 98.12 115.865C99.1143 116.196 99.996 116.667 100.765 117.277C101.54 117.887 102.174 118.613 102.664 119.455C103.155 120.29 103.469 121.211 103.609 122.219H99.2337ZM106.952 136V120.727H111.059V123.392H111.218C111.496 122.444 111.963 121.728 112.62 121.244C113.276 120.754 114.032 120.509 114.887 120.509C115.099 120.509 115.328 120.522 115.573 120.548C115.818 120.575 116.033 120.611 116.219 120.658V124.416C116.02 124.357 115.745 124.304 115.394 124.257C115.042 124.211 114.721 124.188 114.429 124.188C113.806 124.188 113.249 124.323 112.759 124.595C112.275 124.86 111.891 125.232 111.605 125.709C111.327 126.186 111.188 126.736 111.188 127.359V136H106.952ZM124.599 136.298C123.054 136.298 121.719 135.97 120.592 135.314C119.471 134.651 118.606 133.73 117.996 132.55C117.387 131.363 117.082 129.988 117.082 128.423C117.082 126.846 117.387 125.467 117.996 124.287C118.606 123.1 119.471 122.179 120.592 121.523C121.719 120.86 123.054 120.528 124.599 120.528C126.143 120.528 127.476 120.86 128.596 121.523C129.723 122.179 130.591 123.1 131.201 124.287C131.811 125.467 132.116 126.846 132.116 128.423C132.116 129.988 131.811 131.363 131.201 132.55C130.591 133.73 129.723 134.651 128.596 135.314C127.476 135.97 126.143 136.298 124.599 136.298ZM124.619 133.017C125.321 133.017 125.908 132.818 126.379 132.42C126.849 132.016 127.204 131.466 127.442 130.77C127.688 130.074 127.81 129.282 127.81 128.393C127.81 127.505 127.688 126.713 127.442 126.017C127.204 125.321 126.849 124.771 126.379 124.366C125.908 123.962 125.321 123.76 124.619 123.76C123.909 123.76 123.313 123.962 122.829 124.366C122.352 124.771 121.99 125.321 121.745 126.017C121.506 126.713 121.387 127.505 121.387 128.393C121.387 129.282 121.506 130.074 121.745 130.77C121.99 131.466 122.352 132.016 122.829 132.42C123.313 132.818 123.909 133.017 124.619 133.017ZM144.664 129.497V120.727H148.9V136H144.833V133.226H144.674C144.329 134.121 143.756 134.84 142.954 135.384C142.158 135.927 141.187 136.199 140.04 136.199C139.02 136.199 138.121 135.967 137.346 135.503C136.57 135.039 135.964 134.379 135.526 133.524C135.095 132.669 134.877 131.645 134.87 130.452V120.727H139.106V129.696C139.112 130.598 139.354 131.31 139.832 131.834C140.309 132.357 140.949 132.619 141.751 132.619C142.261 132.619 142.738 132.503 143.183 132.271C143.627 132.033 143.985 131.681 144.256 131.217C144.535 130.753 144.671 130.18 144.664 129.497ZM152.288 141.727V120.727H156.464V123.293H156.653C156.839 122.882 157.107 122.464 157.458 122.04C157.816 121.609 158.28 121.251 158.85 120.966C159.427 120.674 160.143 120.528 160.998 120.528C162.112 120.528 163.139 120.82 164.081 121.403C165.022 121.98 165.774 122.852 166.338 124.018C166.901 125.179 167.183 126.634 167.183 128.384C167.183 130.087 166.908 131.526 166.358 132.699C165.814 133.866 165.072 134.75 164.13 135.354C163.196 135.95 162.148 136.249 160.988 136.249C160.166 136.249 159.467 136.113 158.89 135.841C158.32 135.569 157.853 135.228 157.488 134.817C157.124 134.399 156.845 133.978 156.653 133.554H156.524V141.727H152.288ZM156.434 128.364C156.434 129.272 156.56 130.064 156.812 130.74C157.064 131.416 157.429 131.943 157.906 132.321C158.383 132.692 158.963 132.878 159.646 132.878C160.335 132.878 160.919 132.689 161.396 132.311C161.873 131.927 162.234 131.396 162.48 130.72C162.732 130.037 162.858 129.252 162.858 128.364C162.858 127.482 162.735 126.706 162.49 126.037C162.244 125.367 161.883 124.844 161.406 124.466C160.929 124.088 160.342 123.899 159.646 123.899C158.957 123.899 158.373 124.081 157.896 124.446C157.425 124.811 157.064 125.328 156.812 125.997C156.56 126.667 156.434 127.455 156.434 128.364ZM182.714 125.082L178.836 125.321C178.77 124.99 178.627 124.691 178.409 124.426C178.19 124.154 177.902 123.939 177.544 123.78C177.192 123.614 176.771 123.531 176.281 123.531C175.625 123.531 175.071 123.67 174.62 123.949C174.17 124.221 173.944 124.585 173.944 125.043C173.944 125.407 174.09 125.715 174.382 125.967C174.673 126.219 175.174 126.421 175.883 126.574L178.647 127.131C180.132 127.436 181.239 127.926 181.968 128.602C182.698 129.278 183.062 130.167 183.062 131.267C183.062 132.268 182.767 133.146 182.177 133.902C181.594 134.658 180.792 135.248 179.771 135.672C178.757 136.089 177.587 136.298 176.261 136.298C174.239 136.298 172.628 135.877 171.429 135.036C170.235 134.187 169.536 133.034 169.331 131.575L173.497 131.357C173.623 131.973 173.928 132.444 174.412 132.768C174.895 133.087 175.515 133.246 176.271 133.246C177.013 133.246 177.61 133.103 178.061 132.818C178.518 132.527 178.75 132.152 178.757 131.695C178.75 131.31 178.588 130.995 178.27 130.75C177.951 130.498 177.461 130.306 176.798 130.173L174.153 129.646C172.662 129.348 171.551 128.831 170.822 128.095C170.1 127.359 169.738 126.421 169.738 125.281C169.738 124.3 170.003 123.455 170.534 122.746C171.071 122.036 171.823 121.49 172.791 121.105C173.765 120.721 174.905 120.528 176.211 120.528C178.14 120.528 179.658 120.936 180.765 121.751C181.879 122.567 182.529 123.677 182.714 125.082Z" fill="#4D4D4D"/>
</svg>
