<svg width="48" height="49" viewBox="0 0 48 49" fill="none" xmlns="http://www.w3.org/2000/svg">
<path d="M16.4999 9.2019C18.8587 9.2019 21.161 9.92769 23.0936 11.28C25.0259 12.6323 26.4955 14.5459 27.3036 16.7615C28.1117 18.9774 28.2195 21.3888 27.6112 23.6677C27.0029 25.9466 25.7081 27.9833 23.9032 29.5017L23.2958 30.0134L24.0184 30.3406C26.9917 31.6861 29.5508 33.8032 31.4286 36.4724L31.4354 36.4822L31.4433 36.4919C31.5891 36.6787 31.6953 36.8937 31.7558 37.1228C31.8011 37.2946 31.8205 37.4723 31.8124 37.6492L31.7948 37.8259C31.7687 38.0019 31.7158 38.1723 31.6386 38.3318L31.5536 38.4871C31.4292 38.6889 31.265 38.8633 31.0712 38.9998C30.9258 39.1021 30.7662 39.1821 30.5976 39.2361L30.4257 39.281C30.1938 39.33 29.954 39.3322 29.7216 39.2859C29.4892 39.2396 29.2685 39.1456 29.0731 39.0115C28.8778 38.8773 28.7115 38.7049 28.5849 38.5046L28.579 38.4949L28.5722 38.4851L28.3114 38.1257C27.0726 36.4695 25.499 35.0924 23.6933 34.0837L23.3026 33.8728C21.2015 32.7807 18.8679 32.2107 16.4999 32.2107C14.1319 32.2107 11.7983 32.7807 9.69716 33.8728C7.72739 34.8967 6.01578 36.3511 4.68837 38.1257L4.42861 38.4851L4.42763 38.4861C4.30768 38.6583 4.15745 38.8075 3.98525 38.9255L3.80556 39.033C3.61921 39.1299 3.41733 39.192 3.20986 39.2166L3.00185 39.2283H2.99794C2.68404 39.2292 2.37673 39.1442 2.10927 38.9832L1.99697 38.9089L1.99501 38.908L1.85829 38.8005C1.55453 38.5375 1.34854 38.1765 1.27919 37.7771C1.19998 37.3206 1.30589 36.8516 1.57216 36.4724L1.57118 36.4714C3.44898 33.8025 6.00825 31.686 8.98134 30.3406L9.704 30.0134L9.09657 29.5017C7.29174 27.9833 5.99688 25.9466 5.38857 23.6677C4.81829 21.5312 4.87718 19.2786 5.55263 17.1794L5.69618 16.7615C6.45382 14.6842 7.79302 12.8724 9.5497 11.5398L9.90712 11.28C11.8397 9.92771 14.1411 9.20193 16.4999 9.2019ZM28.538 9.16577L28.6659 9.64917L28.6747 9.64722C29.5585 9.39562 30.4692 9.25295 31.3866 9.22241L31.7802 9.21558H31.7831C33.9956 9.20923 36.1596 9.84244 38.0165 11.0339L38.3837 11.28C40.1987 12.5458 41.6067 14.3071 42.4423 16.3494L42.6015 16.7615C43.36 18.8401 43.5007 21.0904 43.0116 23.2419L42.9052 23.6707C42.2939 25.9503 40.9953 27.9868 39.1854 29.5017L38.5751 30.0125L39.2997 30.3406C42.0871 31.602 44.5103 33.5415 46.3495 35.9783L46.7099 36.4724L46.7118 36.4753C46.8453 36.662 46.9401 36.8737 46.9911 37.0974C47.0294 37.2651 47.0426 37.4372 47.0302 37.6082L47.0097 37.7791C46.9704 38.005 46.886 38.2206 46.7626 38.4138C46.6699 38.559 46.5564 38.6893 46.4257 38.8005L46.2899 38.905L46.2841 38.9089C45.9921 39.1177 45.642 39.2284 45.2831 39.2273C45.0729 39.226 44.8654 39.1879 44.6698 39.114L44.4774 39.0291C44.2907 38.9318 44.1238 38.8015 43.9833 38.6462L43.8515 38.4832C42.4881 36.5492 40.6809 34.9702 38.5809 33.8796C36.6119 32.8571 34.4393 32.2923 32.2255 32.2234L31.7821 32.2156H31.7811C31.375 32.2156 30.9832 32.0752 30.6718 31.8201L30.5438 31.7039C30.2157 31.3757 30.0311 30.9297 30.0311 30.4656C30.0312 30.0597 30.1726 29.6685 30.4276 29.3572L30.5438 29.2283C30.872 28.9002 31.3171 28.7156 31.7811 28.7156C33.7702 28.7156 35.6828 27.975 37.1503 26.6462L37.4384 26.3728C38.9386 24.8725 39.7811 22.8372 39.7811 20.7156C39.781 18.7266 39.0405 16.8139 37.7118 15.3464L37.4384 15.0593C35.9381 13.559 33.9029 12.7156 31.7811 12.7156C31.1413 12.7145 30.5041 12.7923 29.8837 12.946L29.619 13.0164L29.6132 13.0183C29.4465 13.068 29.2737 13.0918 29.1005 13.0906L28.9267 13.0808C28.7534 13.0622 28.5843 13.0182 28.4247 12.95L28.2694 12.8738C28.117 12.7898 27.9781 12.6838 27.8573 12.5593L27.7421 12.4294C27.5978 12.2477 27.4915 12.0386 27.4286 11.8152C27.3814 11.6475 27.3592 11.474 27.3632 11.3005L27.3759 11.1277C27.3971 10.9548 27.4438 10.7861 27.5145 10.6277L27.5936 10.4734C27.7087 10.2719 27.8628 10.0953 28.0468 9.95386C28.2307 9.8125 28.4407 9.70857 28.6649 9.64917L28.538 9.16577ZM18.0604 12.8699C16.5087 12.5613 14.9001 12.7195 13.4384 13.325C12.068 13.8926 10.8844 14.8293 10.0175 16.0281L9.84853 16.2712C8.96955 17.5867 8.49998 19.1335 8.4999 20.7156C8.4999 22.8372 9.34254 24.8725 10.8427 26.3728C12.3429 27.8731 14.3782 28.7155 16.4999 28.7156C17.9832 28.7156 19.4355 28.3039 20.6952 27.5281L20.9442 27.3679C22.2598 26.4889 23.286 25.2389 23.8915 23.7771C24.459 22.4068 24.633 20.9076 24.3983 19.447L24.3466 19.155C24.0571 17.7001 23.369 16.3564 22.3622 15.2722L22.1571 15.0593C21.1083 14.0105 19.7897 13.2755 18.3505 12.9333L18.0604 12.8699Z" fill="#4CAF4F" stroke="#4CAF4F"/>
</svg>
