<svg width="18" height="17" viewBox="0 0 18 17" fill="none" xmlns="http://www.w3.org/2000/svg">
<path fill-rule="evenodd" clip-rule="evenodd" d="M17.0303 0.29098C17.2341 0.494708 17.3031 0.797133 17.2079 1.06907L11.9579 16.0691C11.8563 16.3593 11.5878 16.5582 11.2806 16.5707C10.9733 16.5832 10.6895 16.4069 10.5646 16.1259L7.6818 9.63951L1.1954 6.75667C0.91439 6.63177 0.738092 6.348 0.750627 6.04074C0.763163 5.73348 0.961991 5.465 1.25224 5.36342L16.2522 0.113416C16.5242 0.0182371 16.8266 0.0872515 17.0303 0.29098ZM9.14456 9.23741L11.1671 13.788L14.7064 3.67557L9.14456 9.23741ZM13.6457 2.61491L3.53331 6.15426L8.0839 8.17675L13.6457 2.61491Z" fill="white"/>
</svg>
